<svg width="424" height="225" viewBox="0 0 424 225" fill="none" xmlns="http://www.w3.org/2000/svg">
<g clip-path="url(#clip0_68_1748)">
<path d="M366.65 161.91C366.65 181.9 366.63 201.9 366.68 221.89C366.68 223.7 366.49 224.46 364.31 224.46C324.24 224.39 284.16 224.41 244.09 224.46C242.46 224.46 241.95 224.02 241.95 222.35C242 182.11 242.03 141.87 241.95 101.63C241.95 99.1798 243.25 99.6698 244.58 99.6698C275.82 99.6698 307.06 99.6698 338.31 99.6698C346.89 99.6698 355.47 99.7298 364.05 99.6198C366.04 99.5998 366.72 100.02 366.71 102.18C366.62 122.09 366.66 142 366.66 161.91H366.64H366.65ZM304.49 129.96C285.75 129.97 267 130.01 248.26 129.91C246.07 129.9 245.72 130.57 245.72 132.56C245.78 160.72 245.75 188.88 245.77 217.03C245.77 220.63 245.09 220.3 249.13 220.3C286.12 220.32 323.11 220.29 360.09 220.37C362.33 220.37 362.83 219.84 362.82 217.65C362.74 189.16 362.74 160.67 362.82 132.18C362.82 130.22 362.27 129.9 360.47 129.91C341.81 129.98 323.15 129.95 304.49 129.95V129.96ZM304.24 103.48C304.24 103.48 304.24 103.51 304.24 103.53C285.67 103.53 267.09 103.56 248.52 103.49C246.41 103.49 245.63 103.94 245.71 106.23C245.89 111.97 245.84 117.72 245.73 123.47C245.69 125.29 246.16 125.93 248.07 125.92C285.63 125.87 323.2 125.87 360.76 125.93C362.53 125.93 362.83 125.37 362.81 123.81C362.74 117.9 362.68 111.98 362.83 106.07C362.88 103.97 362.3 103.42 360.22 103.43C341.56 103.51 322.91 103.48 304.25 103.48H304.24Z" fill="black" stroke="black" stroke-miterlimit="10"/>
<path d="M275.74 144.36C276.47 144.9 277.41 145.38 278.03 146.11C278.57 146.74 277.74 147.3 277.39 147.8C271.88 155.61 266.38 163.44 260.8 171.2C259.83 172.55 259.74 173.46 260.77 174.88C266.37 182.63 271.8 190.5 277.37 198.27C278.4 199.7 278.6 200.6 276.92 201.61C275.87 202.24 275.42 202.04 274.76 201.1C268.39 192.06 261.98 183.05 255.55 174.06C254.96 173.24 255.05 172.71 255.63 171.9C261.98 163.05 268.27 154.17 274.58 145.3C274.86 144.91 275.06 144.42 275.75 144.35L275.74 144.36Z" fill="black" stroke="black" stroke-miterlimit="10"/>
<path d="M348.97 173.03C348.49 172.29 348.08 171.59 347.6 170.92C342.17 163.25 336.78 155.56 331.28 147.94C330.33 146.62 330.43 146.1 331.75 145.09C333.27 143.92 333.6 144.8 334.32 145.81C340.48 154.49 346.66 163.16 352.9 171.79C353.63 172.8 353.55 173.38 352.85 174.35C346.55 183.14 340.3 191.95 334.11 200.81C333.25 202.04 332.69 202.24 331.39 201.38C329.99 200.46 330.2 199.74 331.01 198.6C336.56 190.81 342.06 182.99 347.57 175.18C348.04 174.51 348.47 173.81 348.98 173.03H348.97Z" fill="black" stroke="black" stroke-miterlimit="10"/>
<path d="M317.91 145.56C317.68 146.11 317.51 146.49 317.35 146.88C309.89 165.28 302.41 183.66 295.03 202.09C294.28 203.96 293.54 203.94 291.99 203.21C290.85 202.68 290.8 202.22 291.23 201.16C298.86 182.47 306.44 163.77 314.05 145.08C314.3 144.47 314.28 143.38 315.47 143.94C316.36 144.37 317.59 144.39 317.91 145.56Z" fill="black" stroke="black" stroke-miterlimit="10"/>
<path d="M338.76 114.95C338.72 118.01 336.45 120.18 333.32 120.16C330.39 120.14 327.94 117.65 327.98 114.73C328.02 111.9 330.64 109.27 333.43 109.26C336.47 109.26 338.81 111.75 338.76 114.95ZM333.48 113.57C332.74 113.63 332.15 113.93 332.18 114.74C332.21 115.57 332.69 116.16 333.59 116.12C334.34 116.08 334.8 115.62 334.76 114.82C334.72 114.04 334.23 113.66 333.48 113.57Z" fill="black" stroke="black" stroke-miterlimit="10"/>
<path d="M314.68 120.17C311.75 120.17 309.29 117.72 309.28 114.8C309.26 111.93 311.79 109.33 314.63 109.27C317.4 109.22 320.12 111.83 320.2 114.61C320.29 117.62 317.75 120.17 314.68 120.17ZM314.86 116.15C315.52 116 316.15 115.66 316.11 114.91C316.06 114.11 315.54 113.57 314.63 113.62C313.87 113.66 313.31 114.05 313.36 114.8C313.41 115.6 313.96 116.1 314.87 116.16L314.86 116.15Z" fill="black" stroke="black" stroke-miterlimit="10"/>
<path d="M352.25 120.16C349.36 120.13 346.84 117.59 346.87 114.75C346.9 112 349.62 109.27 352.32 109.28C355.15 109.28 357.76 112.03 357.75 115C357.75 117.94 355.34 120.2 352.25 120.16ZM352.4 116.16C353.17 116.04 353.65 115.59 353.7 114.88C353.77 113.96 353.13 113.58 352.31 113.55C351.54 113.52 351.03 113.98 351.04 114.73C351.05 115.55 351.6 116.03 352.4 116.16Z" fill="black" stroke="black" stroke-miterlimit="10"/>
<path d="M229.74 30.63C205.99 30.63 182.25 30.65 158.5 30.59C156.48 30.59 155.63 31.02 155.84 33.19C156.04 35.25 155.99 37.36 155.85 39.43C155.72 41.4 156.39 42.03 158.4 41.99C167.81 41.82 177.22 41.74 186.63 41.75C195.71 41.75 204.78 41.97 213.86 41.93C215.88 41.93 215.88 42.87 215.95 44.35C216.03 46.03 215.62 46.69 213.78 46.66C206.53 46.56 199.28 46.66 192.03 46.56C190.2 46.53 189.65 46.99 189.65 48.92C189.72 92.58 189.72 136.24 189.68 179.9C189.68 181.63 190.1 182.3 191.88 182.15C193.53 182.01 195.21 182.08 196.88 182.15C200.21 182.28 202.72 184.39 203.26 187.71C203.92 191.76 203.44 195.86 203.52 199.93C203.54 200.92 203.04 201.23 202.14 201.21C201.14 201.18 200.14 201.21 199.14 201.21C183.23 201.21 167.31 201.17 151.4 201.25C149.32 201.26 148.65 200.72 148.79 198.62C148.98 195.72 148.79 192.79 148.84 189.87C148.92 184.89 151.66 182.17 156.59 182.11C160.703 182.063 162.76 179.987 162.76 175.88C162.76 133.8 162.76 91.73 162.74 49.65C162.74 48.67 163.38 47.07 162.13 46.79C160.23 46.36 158.14 46.27 156.22 46.88C155.49 47.11 155.81 48.23 155.81 48.95C155.8 54.03 155.83 59.11 155.81 64.2C155.8 67.26 154.85 68.21 151.76 68.22C144.51 68.24 137.26 68.24 130.01 68.22C127.17 68.22 126.07 67.21 126.06 64.3C126 50.56 125.99 36.81 126.02 23.06C126.02 20.04 127.08 19.12 130.19 19.1C137.36 19.07 144.52 19.06 151.69 19.1C154.96 19.11 155.88 19.96 155.74 23.3C155.65 25.52 156.38 25.9 158.53 26.13C162.63 26.57 164.78 24.85 166.72 21.44C170.42 14.94 174.63 8.73 178.55 2.35C179.54 0.749995 180.8 0.229995 182.64 0.0799951C189.51 -0.450005 195.88 1.95 202.38 3.35C226.88 8.63 251.32 14.21 275.79 19.65C285.07 21.71 294.37 23.72 303.67 25.73C304.79 25.97 305.6 26.7 306.44 27.35C310.28 30.28 314.03 33.33 317.92 36.18C320.08 37.77 320.13 39.88 320.1 42.18C320.03 46.64 320.06 46.64 315.63 46.63C312.96 46.63 310.3 46.67 307.63 46.6C306.27 46.57 305.71 46.98 305.72 48.44C305.77 57.19 305.76 65.94 305.72 74.69C305.72 75.58 305.97 76.31 306.52 76.98C307.1 77.69 307.77 78.35 308.23 79.13C310.47 82.93 313.39 85.1 318.16 84.29C320.29 83.93 321.79 85.29 321.79 87.71C321.79 91.88 321.82 96.04 321.79 100.21C321.78 102.43 320.57 103.64 318.39 103.65C308.48 103.69 298.56 103.69 288.65 103.66C286.47 103.66 285.21 102.49 285.19 100.27C285.14 96.1 285.16 91.94 285.18 87.77C285.19 85.41 286.59 83.9 288.76 84.28C293.66 85.14 296.32 82.61 298.93 79.03C300.56 76.8 301.34 74.73 301.28 71.99C301.13 64.58 301.12 57.16 301.28 49.75C301.33 47.32 300.85 46.53 298.21 46.56C282.13 46.7 266.05 46.63 249.97 46.62C247.39 46.62 246.37 45.12 247.25 42.72C247.67 41.56 248.63 42.02 249.37 42.02C269.03 41.99 288.7 42 308.36 41.99C310.19 41.99 312.02 41.94 313.85 41.89C314.39 41.87 315.09 42.02 315.23 41.19C315.33 40.58 315.19 40.05 314.66 39.65C310.97 36.8 307.29 33.94 303.61 31.09C302.73 30.41 301.68 30.69 300.71 30.69C277.05 30.67 253.38 30.68 229.72 30.68L229.74 30.63ZM279.56 26.03C279.47 25.12 279.05 25.22 278.77 25.15C267.16 22.54 255.55 19.93 243.94 17.34C226.53 13.45 209.11 9.59 191.7 5.66C189.87 5.25 189.66 5.93 189.68 7.49C189.75 12.73 189.85 17.98 189.65 23.22C189.56 25.64 190.4 26.07 192.6 26.06C219.66 25.99 246.71 26.02 273.77 26.03C275.69 26.03 277.61 26.03 279.55 26.03H279.56ZM130.73 43.68H130.71C130.71 49.59 130.76 55.5 130.68 61.4C130.66 63.03 130.93 63.75 132.81 63.71C138.3 63.58 143.79 63.62 149.28 63.7C150.78 63.72 151.29 63.32 151.28 61.75C151.22 49.68 151.21 37.62 151.28 25.55C151.28 23.95 150.75 23.62 149.28 23.64C143.79 23.72 138.29 23.74 132.81 23.63C130.94 23.59 130.67 24.32 130.7 25.96C130.79 31.87 130.74 37.78 130.74 43.68H130.73ZM176 196.68C182.74 196.68 189.49 196.59 196.23 196.73C198.39 196.78 198.99 196.07 198.8 194.05C198.65 192.48 198.8 190.89 198.78 189.31C198.76 187.6 197.92 186.68 196.17 186.68C182.85 186.68 169.53 186.68 156.21 186.68C154.47 186.68 153.59 187.59 153.56 189.29C153.52 191.12 153.66 192.96 153.51 194.78C153.38 196.42 154.08 196.72 155.53 196.71C162.36 196.65 169.18 196.68 176.01 196.69L176 196.68ZM303.47 89.03C299.56 89.03 295.63 89.16 291.73 88.96C290.18 88.88 289.64 89.08 289.72 90.69C289.83 92.85 289.81 95.02 289.72 97.18C289.67 98.51 289.96 99.13 291.49 99.12C299.49 99.05 307.48 99.07 315.48 99.1C316.68 99.1 317.33 98.86 317.28 97.45C317.18 95.12 317.21 92.79 317.28 90.45C317.31 89.26 316.98 88.94 315.71 88.97C311.63 89.09 307.55 89.01 303.47 89.02V89.03ZM184.42 114.39C184.3 114.07 184.23 113.73 184.05 113.46C181.69 109.74 179.32 106.03 176.95 102.32C176.14 101.04 175.71 101.82 175.21 102.6C172.99 106.11 170.78 109.63 168.49 113.1C167.89 114.01 167.94 114.67 168.52 115.56C170.79 119.04 173.02 122.55 175.19 126.09C175.98 127.38 176.4 127.33 177.17 126.05C179.28 122.57 181.51 119.16 183.68 115.71C183.94 115.29 184.15 114.84 184.4 114.38L184.42 114.39ZM176.18 162.2C176.49 161.82 176.72 161.6 176.89 161.34C179.26 157.62 181.62 153.9 183.99 150.18C184.4 149.53 184.32 148.97 183.91 148.34C181.62 144.77 179.34 141.19 177.1 137.59C176.36 136.41 175.91 136.54 175.22 137.67C173.04 141.21 170.8 144.71 168.54 148.21C168.03 149 167.96 149.64 168.49 150.47C170.8 154.03 173.05 157.62 175.34 161.2C175.55 161.53 175.83 161.8 176.18 162.22V162.2ZM184.39 79.36C184.26 79.02 184.18 78.68 184.01 78.41C181.65 74.7 179.29 70.99 176.91 67.29C176.02 65.92 175.64 67.01 175.21 67.68C173.03 71.11 170.88 74.56 168.64 77.96C167.98 78.95 168.06 79.69 168.69 80.65C170.87 83.98 173.02 87.34 175.09 90.73C175.91 92.07 176.44 92.11 177.27 90.76C179.39 87.29 181.59 83.88 183.76 80.44C183.98 80.09 184.17 79.73 184.38 79.36H184.39ZM184.97 15.26C184.97 15.26 185.01 15.26 185.02 15.26C185.02 12.43 185.04 9.6 185.01 6.78C185.01 6.02 185.39 5.00999 184.21 4.72C183.1 4.43999 182.36 4.93 181.76 5.9C178.01 11.98 174.23 18.04 170.42 24.08C169.62 25.34 169.78 25.78 171.32 25.76C175.23 25.72 179.14 25.71 183.05 25.8C184.62 25.84 185.04 25.19 185 23.74C184.92 20.91 184.98 18.09 184.98 15.26H184.97ZM183.07 182.05C180.84 178.53 178.93 175.54 177.05 172.54C176.44 171.57 175.96 171.43 175.29 172.52C173.64 175.21 171.93 177.87 170.22 180.52C169.38 181.82 170 182.07 171.2 182.06C174.93 182.04 178.66 182.06 183.07 182.06V182.05ZM169.36 46.71C171.62 50.25 173.6 53.36 175.59 56.47C175.89 56.94 176.29 57.32 176.71 56.67C178.76 53.45 180.78 50.21 182.97 46.71H169.37H169.36ZM167.93 123.23C167.77 123.29 167.61 123.36 167.45 123.42V140.5C169.57 137.99 171.26 135.31 172.96 132.63C173.25 132.18 173.36 131.73 173.05 131.25C171.34 128.58 169.64 125.9 167.93 123.23ZM167.92 88C167.76 88.06 167.59 88.12 167.43 88.18V105.37C169.59 102.8 171.35 100.06 173.09 97.31C173.47 96.71 173.14 96.22 172.82 95.71C171.18 93.14 169.55 90.57 167.92 87.99V88ZM167.92 158.07C167.76 158.14 167.6 158.2 167.43 158.27V175.48C169.58 172.89 171.32 170.14 173.07 167.39C173.46 166.77 173.11 166.31 172.79 165.81C171.16 163.24 169.54 160.65 167.92 158.07ZM167.41 70.3C167.57 70.38 167.72 70.46 167.88 70.54C169.56 67.91 171.24 65.27 172.92 62.65C173.21 62.21 173.41 61.75 173.1 61.26C171.37 58.51 169.62 55.78 167.87 53.04C167.71 53.11 167.56 53.19 167.4 53.26V70.3H167.41ZM184.97 53.3C184.79 53.23 184.61 53.16 184.43 53.1C182.78 55.73 181.14 58.37 179.49 61C179.21 61.45 179.1 61.94 179.39 62.4C181.09 65.12 182.81 67.83 184.53 70.55C184.68 70.47 184.83 70.4 184.98 70.32V53.3H184.97ZM184.84 141.16V122.49C182.84 125.7 181.26 128.29 179.62 130.85C179.15 131.57 179.1 132.2 179.56 132.91C181.2 135.46 182.84 138.02 184.85 141.16H184.84ZM184.41 105.37C184.58 105.32 184.75 105.28 184.92 105.23V88.05C182.82 90.6 181.13 93.31 179.44 96.01C179.02 96.68 179.29 97.25 179.67 97.85C181.26 100.35 182.83 102.87 184.4 105.38L184.41 105.37ZM184.86 157.49C182.81 160.74 181.16 163.36 179.5 165.98C179.09 166.63 179.18 167.21 179.58 167.83C181.22 170.38 182.83 172.94 184.86 176.13V157.49ZM300.94 84.02C302.83 84.19 304.37 84.35 306.02 83.9C304.367 81.6 302.673 81.64 300.94 84.02Z" fill="black"/>
<path d="M231.59 46.5999C231.01 46.5999 230.43 46.5999 229.85 46.5999C227.32 46.5899 226.28 44.9899 227.21 42.6599C227.51 41.8999 228.08 42.0099 228.62 41.9999C230.36 41.9699 232.12 42.1199 233.84 41.9399C235.84 41.7399 236.36 42.4599 236.32 44.4099C236.28 46.1399 235.83 46.8399 234.08 46.6199C233.26 46.5199 232.42 46.5999 231.6 46.5999H231.59Z" fill="black"/>
</g>
<path d="M0.5 200.5H242" stroke="black" stroke-width="5"/>
<path d="M378.375 68.9502L389.555 112.539L400.317 94.5429L419.791 89.5483L378.375 68.9502Z" fill="black"/>
<defs>
<clipPath id="clip0_68_1748">
<rect width="241.22" height="224.97" fill="white" transform="translate(126)"/>
</clipPath>
</defs>
</svg>
