<svg width="79" height="79" viewBox="0 0 79 79" fill="none" xmlns="http://www.w3.org/2000/svg">
<path d="M26.9621 3.2204C15.6724 3.2204 5.71534 11.4548 3.60989 22.8338C2.65506 28.006 3.33855 32.9927 5.60543 37.7491C5.81494 38.189 6.05536 38.6255 5.75311 39.1204C5.52643 39.4915 5.21044 39.6771 4.76393 39.6806C4.21439 39.6806 3.96023 39.3403 3.74041 38.9142C2.73749 36.9484 1.98529 34.8795 1.56627 32.7212C-0.00680768 24.6312 1.68305 17.2663 6.81786 10.8121C10.9875 5.57454 16.4658 2.44714 23.0913 1.35082C35.6072 -0.724958 47.759 6.60556 51.8565 18.1873C55.2122 27.6727 53.5841 36.3916 47.2919 44.2205C46.7457 44.9009 46.7148 45.2687 47.3708 45.8426C48.2329 46.5918 49.0195 47.4338 49.7992 48.2689C50.1838 48.6813 50.438 48.6848 50.8296 48.2758C51.9183 47.1417 53.0449 46.0385 54.1646 44.9319C54.8447 44.2617 55.4079 44.248 56.0846 44.9216C62.6413 51.4788 69.2256 58.0086 75.7343 64.614C78.8151 67.7414 78.6778 72.6971 75.5866 75.7249C72.4885 78.7561 67.5838 78.7733 64.4686 75.6871C59.7116 70.9788 55.0061 66.2224 50.2766 61.4865C48.518 59.727 46.7595 57.9673 45.0078 56.2009C44.2007 55.3898 44.2041 54.8984 45.0009 54.0976C46.0897 53.0013 47.1716 51.8981 48.281 50.8224C48.6279 50.4856 48.7481 50.2897 48.3154 49.8911C47.3468 49.0044 46.4298 48.0559 45.5196 47.1039C45.1864 46.7533 44.9735 46.664 44.5579 47.0283C40.8965 50.2691 36.641 52.2796 31.8359 53.1422C31.386 53.2212 30.936 53.3003 30.4861 53.3553C29.8026 53.4378 29.2359 53.0391 29.1809 52.4239C29.1191 51.7194 29.4213 51.2829 30.1598 51.1798C33.8246 50.6781 37.2695 49.5439 40.3538 47.4613C46.2374 43.4884 49.8472 38.0275 51.0047 30.9857C52.8114 19.9985 46.653 9.22779 36.5036 5.05218C33.5429 3.83558 30.4689 3.17916 26.9656 3.2204H26.9621ZM75.7171 69.6144C75.6862 68.4665 75.116 67.0884 73.9654 65.9371C69.4729 61.4556 64.9906 56.9638 60.5084 52.472C60.1993 52.1627 59.9932 51.8431 59.5021 52.3414C57.1184 54.7712 54.697 57.1666 52.2755 59.5586C51.9355 59.8919 52.0076 60.1084 52.3133 60.3971C52.856 60.9058 53.3678 61.4487 53.8933 61.9746C57.8981 65.9818 61.8926 69.9959 65.9111 73.9893C67.7075 75.773 69.837 76.237 72.2034 75.3091C74.3226 74.4774 75.7068 72.3603 75.7171 69.6144ZM50.3521 58.3763C50.4792 58.2629 50.5891 58.177 50.6853 58.0773C53.1445 55.6098 55.6003 53.1422 58.0664 50.6815C58.3343 50.4134 58.3171 50.2622 58.0458 50.0045C57.1974 49.2003 56.3594 48.3789 55.5591 47.5266C55.219 47.1657 55.013 47.1657 54.6695 47.5129C52.279 49.9254 49.8747 52.3277 47.4602 54.7162C47.1407 55.0324 47.1442 55.2386 47.4636 55.5445C48.3085 56.3555 49.126 57.1941 49.9572 58.0189C50.0774 58.1358 50.2079 58.2423 50.3556 58.3694L50.3521 58.3763Z" fill="black" stroke="black" stroke-miterlimit="10"/>
<path d="M9.57587 44.1035C9.89186 44.076 10.1495 44.2238 10.3968 44.4403C11.1661 45.1174 11.9458 45.7806 12.722 46.4508C13.2887 46.9388 13.4192 47.6055 13.038 48.097C12.6396 48.6091 12.0007 48.6778 11.3825 48.1795C10.517 47.4853 9.68578 46.7498 8.86147 46.0075C8.46648 45.65 8.36344 45.1826 8.59356 44.6843C8.77903 44.2822 9.11563 44.1001 9.57587 44.1035Z" fill="black" stroke="black" stroke-miterlimit="10"/>
<path d="M19.0556 49.9564C20.3092 50.307 21.5526 50.6025 22.7616 51.0081C23.3249 51.1971 23.4554 51.771 23.2699 52.3071C23.081 52.8467 22.6173 53.1423 22.054 53.0357C20.8828 52.8158 19.7288 52.5099 18.6194 52.0666C18.0458 51.8363 17.9153 51.3449 18.0252 50.7915C18.1351 50.2314 18.5541 50.0217 19.059 49.9564H19.0556Z" fill="black" stroke="black" stroke-miterlimit="10"/>
<path d="M31.0979 21.8493C25.4691 25.525 24.2924 30.9044 22.0346 36.0313C20.9374 31.141 20.3809 26.2664 14.8157 24.0105C17.9958 20.8712 20.7148 18.0632 22.3525 12.8416C24.4514 17.3218 26.2323 20.6977 31.0979 21.8651V21.8493Z" fill="black"/>
<path d="M38.4988 37.5892C35.9403 39.2315 35.4055 41.6351 34.3792 43.9259C33.8805 41.7408 33.6275 39.5628 31.0978 38.5548C32.5433 37.1522 33.7793 35.8975 34.5237 33.5645C35.4777 35.5662 36.2872 37.0746 38.4988 37.5962V37.5892Z" fill="black"/>
</svg>
