<svg width="78" height="77" viewBox="0 0 78 77" fill="none" xmlns="http://www.w3.org/2000/svg">
<g id="Group 42">
<g id="Group">
<path id="Vector" d="M38.8088 0.0461586C50.0858 0.0461586 61.3628 0.0461586 72.6444 0.0461586C75.2319 0.0461586 76.6404 0.950512 77.3974 3.0117C77.5626 3.46159 77.5763 3.90688 77.5763 4.36135C77.5763 27.1217 77.5763 49.882 77.5763 72.6423C77.5763 74.8918 75.9568 76.7234 73.7179 76.8244C70.8184 76.9575 67.9143 76.9897 65.0102 76.9897C47.5396 77.0034 30.0689 77.0034 12.5983 76.9897C9.85019 76.9897 7.09747 76.9392 4.34933 76.8703C1.69295 76.8015 0.0504972 75.0662 0.0504972 72.399C0.0504972 49.9463 0.082619 27.4889 3.7299e-05 5.03617C-0.00913844 2.20375 1.6746 -0.0272915 5.09716 0.000252302C16.3374 0.0966555 27.5777 0.0369773 38.818 0.0369773L38.8088 0.0461586ZM38.9006 17.1187C27.5089 17.1187 16.1126 17.1187 4.72095 17.1279C2.87203 17.1279 3.11061 16.9121 3.11061 18.6841C3.09685 35.5914 3.09685 52.4987 3.09685 69.4105C3.09685 70.4067 3.1152 71.3983 3.12438 72.3945C3.13355 73.3998 3.66115 73.8405 4.63837 73.8313C6.01473 73.8221 7.39568 73.7579 8.76745 73.8543C9.83643 73.9277 10.1943 73.5926 10.0291 72.5368C9.78137 70.953 10.4145 69.9798 11.9836 69.4105C13.7682 68.7587 15.4474 67.813 17.2091 67.0923C17.8881 66.8122 17.934 66.5093 17.7 65.9125C16.9385 63.9615 16.2503 61.9737 15.4566 60.0365C15.0299 59.0036 15.2088 58.2324 16.0025 57.4703C17.6817 55.8544 19.3471 54.2202 20.9574 52.5308C21.7374 51.7091 22.5265 51.6127 23.5266 52.0075C25.4398 52.7557 27.3942 53.3938 29.289 54.188C30.0781 54.5185 30.3305 54.2844 30.6241 53.605C31.4545 51.677 32.3675 49.7856 33.2162 47.8667C33.62 46.9532 34.2577 46.5263 35.2624 46.5354C37.5931 46.5584 39.9283 46.5676 42.2589 46.5354C43.3554 46.5171 44.0436 46.9624 44.4749 47.9723C45.241 49.7627 46.1311 51.4979 46.833 53.3112C47.2551 54.4084 47.7965 54.4864 48.7737 54.0779C50.5997 53.3158 52.4761 52.6685 54.3204 51.9478C55.1095 51.6402 55.7977 51.677 56.4171 52.2967C58.2247 54.11 60.0415 55.9141 61.8491 57.7274C62.4501 58.3288 62.5694 58.9898 62.2345 59.8161C61.427 61.8314 60.7159 63.888 59.9176 65.9079C59.6653 66.546 59.78 66.8306 60.4223 67.0969C61.8996 67.712 63.3035 68.5246 64.8083 69.0387C66.7811 69.7135 67.9923 70.7556 67.5794 73.028C67.4555 73.6982 67.8363 73.868 68.4557 73.8497C69.7173 73.813 70.979 73.8359 72.2407 73.8359C74.319 73.8359 74.5346 73.6201 74.5346 71.5498C74.5346 53.8759 74.53 36.2019 74.5759 18.528C74.5759 17.3069 74.1951 17.0958 73.0848 17.1003C61.6931 17.1417 50.3015 17.1233 38.9052 17.1233L38.9006 17.1187ZM38.7721 13.9328C40.644 13.9328 42.5158 13.9328 44.3877 13.9328C53.9809 13.9328 63.5696 13.9236 73.1628 13.9604C74.1446 13.9604 74.5805 13.7997 74.5438 12.6704C74.4566 10.0721 74.5254 7.4692 74.5162 4.87091C74.5162 3.46159 74.1676 3.13106 72.7407 3.13106C50.1179 3.13106 27.4951 3.13106 4.87235 3.13106C3.45011 3.13106 3.1152 3.44781 3.10602 4.88468C3.09226 7.48298 3.13814 10.0859 3.09226 12.6842C3.07391 13.6482 3.33541 13.9649 4.37686 13.9604C15.8419 13.919 27.307 13.9328 38.7676 13.9328H38.7721ZM57.4264 73.8221C59.413 73.8221 61.4041 73.8405 63.3906 73.8084C63.7714 73.8038 64.3816 74.1114 64.4872 73.3723C64.5789 72.7388 64.5009 72.2567 63.7485 71.9446C61.6702 71.0861 59.6378 70.1221 57.5916 69.1902C56.1326 68.5246 55.8895 67.914 56.4584 66.3761C57.2383 64.269 58.0045 62.1528 58.8257 60.0594C59.0414 59.5086 58.9725 59.1597 58.5505 58.7557C57.4952 57.7549 56.463 56.7312 55.4674 55.6754C55.0086 55.1888 54.6049 55.1016 53.9672 55.354C51.8797 56.1895 49.7647 56.9516 47.6588 57.732C46.1815 58.2783 45.6402 58.0396 44.9795 56.5706C44.0711 54.5553 43.1398 52.5492 42.2635 50.5155C42.002 49.9004 41.6763 49.6479 40.9881 49.6754C39.575 49.7305 38.1574 49.7213 36.7443 49.6754C36.0378 49.6525 35.6432 49.8774 35.3588 50.5477C34.5008 52.5446 33.5878 54.5186 32.6794 56.4925C31.9454 58.0901 31.3811 58.3104 29.7111 57.6723C27.7567 56.924 25.793 56.1987 23.8524 55.4137C23.1183 55.1153 22.5907 55.1658 22.0402 55.7902C21.2281 56.7037 20.3748 57.5897 19.4434 58.3793C18.6772 59.0265 18.5672 59.6279 18.9525 60.5414C19.7416 62.4374 20.4206 64.3838 21.1364 66.3119C21.7419 67.9553 21.5309 68.4924 19.9756 69.204C17.8973 70.1588 15.819 71.1137 13.7178 72.018C12.9975 72.3302 13.0709 72.8902 13.1305 73.4411C13.1948 74.0333 13.7178 73.8084 14.0435 73.8084C18.0946 73.8221 22.1457 73.7992 26.1968 73.8267C26.9492 73.8313 27.2199 73.6064 27.3713 72.8352C28.4219 67.5238 33.3493 63.6034 38.8318 63.6447C44.3969 63.686 49.2095 67.5605 50.2418 72.8994C50.384 73.6247 50.6364 73.8451 51.3475 73.8313C53.3707 73.79 55.3986 73.8175 57.4264 73.8175V73.8221ZM38.7446 73.813V73.8038C41.2266 73.8038 43.7041 73.7533 46.1815 73.8267C47.1955 73.8543 47.2964 73.5467 47.0303 72.6791C45.9751 69.181 42.3965 66.6332 38.5703 66.7159C34.822 66.7939 31.4361 69.4794 30.4864 73.0234C30.2662 73.8451 30.6333 73.8221 31.1838 73.8175C33.7025 73.813 36.2213 73.8175 38.74 73.8175L38.7446 73.813Z" fill="black"/>
<path id="Vector_2" d="M22.9761 8.56633C22.9853 9.40182 22.2053 10.1822 21.3657 10.1226C20.4344 10.0583 19.9251 9.48905 19.838 8.58928C19.7646 7.81347 20.5262 7.06519 21.329 7.03765C22.187 7.00552 22.9669 7.73083 22.9715 8.56174L22.9761 8.56633Z" fill="black"/>
<path id="Vector_3" d="M13.3553 7.04219C14.1811 7.07433 14.8785 7.79505 14.8556 8.60759C14.828 9.489 14.0619 10.1868 13.1902 10.1271C12.3643 10.0674 11.7083 9.32373 11.7542 8.5066C11.8 7.69406 12.5479 7.01465 13.3553 7.04219Z" fill="black"/>
<path id="Vector_4" d="M31.0049 8.58929C31.0003 9.46151 30.3717 10.118 29.5276 10.1363C28.7339 10.1547 28.009 9.44315 27.9952 8.63061C27.9769 7.74002 28.5779 7.07438 29.422 7.04684C30.3213 7.0193 31.014 7.68953 31.0049 8.58929Z" fill="black"/>
</g>
<path id="Vector_5" d="M66.6395 31.8276C60.7156 35.7509 59.4773 41.4926 57.101 46.965C55.9464 41.7452 55.3607 36.5423 49.5037 34.1344C52.8505 30.7837 55.7121 27.7865 57.4357 22.2131C59.6446 26.9951 61.5189 30.5985 66.6395 31.8445V31.8276Z" fill="black"/>
</g>
</svg>
