<svg width="74" height="77" viewBox="0 0 74 77" fill="none" xmlns="http://www.w3.org/2000/svg">
<g id="Group 39">
<g id="Group">
<path id="Vector" d="M33.8941 76.9915C23.2667 76.9915 12.6393 76.9915 2.00781 76.9915C0.189263 76.9915 0 76.798 0 75.0072C0 57.4077 0 39.8082 0 22.2129C0 20.4056 0.181034 20.2327 2.00781 20.2327C22.6825 20.2368 43.3531 20.245 64.0277 20.2491C64.9219 20.2491 65.369 19.8155 65.369 18.9482C65.369 15.8276 65.3649 12.703 65.3773 9.5824C65.3814 8.15798 65.7763 7.83277 67.1917 8.01391C71.0386 8.50382 73.6471 11.4762 73.6471 15.3748C73.6471 33.3489 73.6471 51.3271 73.6471 69.3012C73.6471 73.8586 70.5572 76.9832 65.9903 76.9915C55.2929 77.0079 44.5956 76.9956 33.8983 76.9956L33.8941 76.9915ZM34.898 74.7684H37.7781C47.3769 74.7684 56.9757 74.7766 66.5745 74.7602C69.253 74.7561 71.4007 72.5618 71.4953 69.8241C71.5858 67.2716 69.5945 64.9209 67.13 64.6698C65.4842 64.5051 65.3649 64.3693 65.3649 62.7143C65.3649 49.7463 65.3731 36.7824 65.3649 23.8143C65.3649 22.3158 65.5747 22.4475 63.9825 22.4475C43.7892 22.4475 23.5959 22.464 3.40669 22.4228C2.3205 22.4228 2.12713 22.748 2.12713 23.7237C2.15182 40.3928 2.15593 57.066 2.12713 73.7351C2.12713 74.6325 2.4028 74.7848 3.22155 74.7807C13.779 74.7519 24.3406 74.7643 34.898 74.7602V74.7684ZM71.52 39.4377C71.52 31.5169 71.52 23.592 71.52 15.6712C71.52 13.4852 70.7753 11.719 68.7469 10.6693C67.5867 10.0682 67.4756 10.1423 67.4756 11.4638C67.4756 27.3754 67.4756 43.2869 67.4756 59.2026C67.4756 60.026 67.5044 60.8494 67.4674 61.6727C67.4386 62.2614 67.5414 62.599 68.2326 62.7143C69.0761 62.8543 69.8372 63.27 70.549 63.7682C70.8082 63.9493 71.0551 64.3898 71.3924 64.1716C71.6846 63.9823 71.5118 63.5335 71.5159 63.2042C71.5241 55.2834 71.5241 47.3585 71.52 39.4377Z" fill="black"/>
<path id="Vector_2" d="M17.2886 26.3625C21.1519 26.3461 24.2583 29.3802 24.2706 33.18C24.283 37.1651 21.2589 40.261 17.3297 40.2774C13.5239 40.2939 10.3558 37.1157 10.3517 33.2706C10.3476 29.4996 13.4787 26.3749 17.2886 26.3584V26.3625ZM12.5447 33.2953C12.5324 35.9053 14.6759 38.0996 17.2639 38.1202C19.9135 38.1408 22.1312 35.963 22.1476 33.32C22.1641 30.7099 19.8971 28.4456 17.3009 28.4703C14.7294 28.495 12.557 30.7016 12.5406 33.2953H12.5447Z" fill="black"/>
<path id="Vector_3" d="M24.2747 65.0031C24.2747 68.8729 21.1808 71.9235 17.2762 71.907C13.4869 71.8906 10.3929 68.7865 10.36 64.9743C10.3312 61.1621 13.5198 57.988 17.3544 58.0127C21.2589 58.0374 24.2747 61.0839 24.2747 65.0031ZM12.5447 64.9208C12.5282 67.5432 14.6348 69.721 17.2433 69.7786C19.8518 69.8363 22.1065 67.642 22.1517 64.999C22.197 62.3971 19.9506 60.137 17.3256 60.1453C14.7089 60.1535 12.5612 62.2984 12.5447 64.9208Z" fill="black"/>
<path id="Vector_4" d="M17.268 56.0903C13.384 56.0204 10.2859 52.8586 10.3558 49.0464C10.4299 45.1807 13.5897 42.1837 17.449 42.1837C21.189 42.1837 24.5381 45.5472 24.2953 49.6928C24.0978 53.1057 20.8721 56.1562 17.268 56.0903ZM17.3132 44.3121C14.6883 44.3121 12.5323 46.5311 12.5406 49.2111C12.5529 51.7924 14.7829 54.0031 17.342 53.9661C19.9382 53.929 22.1106 51.7636 22.1476 49.17C22.1846 46.5764 19.93 44.308 17.3091 44.3121H17.3132Z" fill="black"/>
<path id="Vector_5" d="M42.884 31.7516C47.3728 31.7516 51.8615 31.7516 56.3503 31.7516C56.7576 31.7516 57.1649 31.7063 57.5435 31.9533C57.9426 32.2086 58.0742 32.5626 58.0413 33.0031C58.0125 33.4231 57.7821 33.7236 57.3871 33.8347C57.0621 33.9212 56.7165 33.9582 56.3791 33.9582C47.5044 33.9665 38.6297 33.9665 29.7551 33.9623C28.3644 33.9623 27.7925 33.633 27.7802 32.8549C27.7678 32.0769 28.3521 31.7434 29.7263 31.7434C34.1122 31.7434 38.4981 31.7434 42.884 31.7434V31.7516Z" fill="black"/>
<path id="Vector_6" d="M42.9128 51.0925C38.494 51.0925 34.0752 51.0925 29.6563 51.0925C29.3477 51.0925 29.0351 51.109 28.7306 51.0719C28.1381 50.9937 27.8172 50.6108 27.7884 50.0345C27.7596 49.4293 28.1011 49.0794 28.6977 48.997C28.9322 48.9641 29.1749 48.9641 29.4136 48.9641C38.3541 48.9641 47.2946 48.9724 56.2351 48.9765C56.4079 48.9765 56.5766 48.9806 56.7494 48.9765C57.4982 48.9641 58.0578 49.207 58.0372 50.0633C58.0166 50.8538 57.4941 51.0966 56.7864 51.0884C56.3051 51.0802 55.8278 51.0884 55.3464 51.0884C51.2032 51.0884 47.056 51.0884 42.9128 51.0884V51.0925Z" fill="black"/>
<path id="Vector_7" d="M42.991 68.2391C38.5022 68.2391 34.0135 68.2391 29.5247 68.2391C29.1832 68.2391 28.8335 68.2392 28.5085 68.1527C27.9695 68.0127 27.7391 67.5969 27.7885 67.0576C27.8296 66.5595 28.1546 66.2548 28.6195 66.1354C28.8458 66.0778 29.0968 66.1149 29.3354 66.1149C38.3459 66.1149 47.3605 66.1149 56.3709 66.1149C56.6466 66.1149 56.9222 66.0984 57.1938 66.1354C57.7575 66.2137 58.0126 66.6007 58.0496 67.1276C58.0866 67.6793 57.8233 68.0622 57.2761 68.1733C56.9428 68.2392 56.5931 68.2268 56.2516 68.2268C51.8328 68.2268 47.4098 68.2268 42.991 68.2268V68.235V68.2391Z" fill="black"/>
<path id="Vector_8" d="M14.0094 33.3734C13.9477 32.6076 14.2193 32.3112 14.6677 32.1054C15.2149 31.8542 15.6798 32.093 15.9226 32.4882C16.4698 33.3734 16.8689 33.0358 17.3585 32.4636C17.8029 31.9448 18.2801 31.4508 18.7697 30.9732C19.284 30.471 19.8559 30.3969 20.3908 30.9444C20.901 31.4673 20.7693 31.986 20.3085 32.4759C19.3211 33.5216 18.3542 34.5878 17.3421 35.6047C16.6673 36.2839 16.116 36.2511 15.5317 35.4977C14.9516 34.7525 14.2769 34.065 14.0094 33.3734Z" fill="black"/>
<path id="Vector_9" d="M16.5192 67.7326C16.0748 67.6832 15.7992 67.4855 15.5811 67.2097C15.1162 66.6169 14.6595 66.0199 14.2192 65.4107C13.8489 64.8961 13.8531 64.3815 14.3591 63.9533C14.9063 63.4922 15.5276 63.5416 15.8773 64.1057C16.4616 65.0566 16.873 64.6408 17.3791 64.0809C17.8851 63.5252 18.4035 62.9735 18.9631 62.4712C19.4116 62.0678 19.9259 62.1254 20.3496 62.5289C20.724 62.887 20.9215 63.3893 20.5389 63.8133C19.391 65.0772 18.1978 66.2999 17.0047 67.5226C16.8771 67.6543 16.6385 67.6832 16.515 67.7326H16.5192Z" fill="black"/>
<path id="Vector_10" d="M15.0586 47.836C15.5317 47.8895 15.8773 48.1941 16.153 48.6099C16.4204 49.0093 16.6714 49.0545 17.0211 48.6511C17.5313 48.0541 18.0991 47.5066 18.6463 46.9426C19.1442 46.4239 19.7037 46.1069 20.3332 46.6956C20.938 47.2637 20.7652 47.8524 20.2468 48.3958C19.3046 49.388 18.3789 50.3966 17.4161 51.3723C16.6797 52.1175 16.116 52.0639 15.4577 51.2282C15.0133 50.6642 14.5566 50.1043 14.1781 49.4991C13.7255 48.7704 14.2028 47.873 15.0586 47.8401V47.836Z" fill="black"/>
</g>
<path id="Vector_11" d="M61.4692 5.52705C57.9276 7.7824 57.1872 11.0831 55.7665 14.229C55.0762 11.2283 54.726 8.23733 51.2244 6.85315C53.2253 4.92691 54.9361 3.20394 55.9666 0C57.2872 2.749 58.4078 4.82044 61.4692 5.53673V5.52705Z" fill="black"/>
<path id="Vector_12" d="M49.5169 10.7153C47.3525 12.0685 46.9001 14.0489 46.0319 15.9364C45.61 14.136 45.396 12.3414 43.2561 11.5109C44.4789 10.3552 45.5244 9.32141 46.1542 7.39905C46.9612 9.04845 47.646 10.2913 49.5169 10.7211V10.7153Z" fill="black"/>
</g>
</svg>
