<svg width="62" height="77" viewBox="0 0 62 77" fill="none" xmlns="http://www.w3.org/2000/svg">
<g id="Group 37">
<g id="Group">
<path id="Vector" d="M61.5874 41.0978C61.5874 49.5773 61.5636 58.0598 61.6112 66.5394C61.6171 67.8817 60.927 68.343 59.7045 67.9591C53.571 66.0334 47.4167 64.1672 41.2743 62.2683C40.8728 62.1433 40.5158 62.1612 40.1202 62.2832C34.0879 64.1524 28.0466 65.9917 22.0232 67.8847C21.1963 68.1436 20.4794 68.1049 19.6614 67.8519C13.522 65.9352 7.37064 64.0631 1.22229 62.1761C0.136582 61.8428 0.00867718 61.6761 0.00867718 60.557C0.00867718 43.5949 0.00867718 26.6359 0.00570265 9.67387C0.00570265 9.37624 -0.0210681 9.06967 0.041397 8.78394C0.1812 8.15296 0.823698 7.88808 1.58815 8.12321C6.72219 9.69173 11.8533 11.2632 16.9873 12.8347C17.9064 13.1145 18.8464 13.3407 19.7358 13.6889C20.5478 14.0074 21.2736 13.9419 22.0916 13.6859C28.0168 11.8287 33.9599 10.0161 39.8912 8.17976C40.4296 8.01308 40.9323 8.00117 41.4736 8.17082C47.8004 10.1352 54.1332 12.0817 60.463 14.0401C61.4446 14.3437 61.5844 14.552 61.5844 15.5819C61.5844 24.0882 61.5844 32.5915 61.5844 41.0978H61.5874ZM19.7923 65.5959C19.7923 65.2477 19.7923 64.9798 19.7923 64.7119C19.7923 59.9022 19.7923 55.0895 19.7923 50.2797C19.7923 48.7559 19.7923 48.7856 21.2914 48.7499C21.8863 48.735 22.0321 48.9196 22.0291 49.497C22.0053 54.5805 22.0291 59.6641 21.9964 64.7476C21.9934 65.4411 22.1035 65.578 22.7936 65.3578C28.0793 63.6821 33.371 62.0273 38.6776 60.4141C39.4093 60.1909 39.5997 59.8813 39.5997 59.1402C39.5729 47.732 39.5818 36.3268 39.5818 24.9186C39.5818 23.609 39.5818 23.6477 40.9114 23.5852C41.6194 23.5524 41.8187 23.7399 41.8187 24.4721C41.7919 36.1036 41.8038 47.732 41.7919 59.3635C41.7919 59.8754 41.89 60.1224 42.4433 60.2921C47.8332 61.9499 53.2111 63.6494 58.592 65.3399C59.3952 65.5929 59.3981 65.5989 59.3981 64.7744C59.4041 57.6313 59.4071 50.4911 59.41 43.3479C59.41 34.544 59.3951 25.74 59.4249 16.9391C59.4249 16.192 59.1929 15.8795 58.4968 15.7396C57.896 15.6206 57.316 15.3914 56.727 15.2098C51.9975 13.7455 47.265 12.2901 42.5385 10.8049C41.9525 10.6203 41.7651 10.7007 41.7859 11.3495C41.8276 12.6859 41.7978 14.0282 41.7978 15.3676C41.7978 17.0045 41.7978 16.9837 40.144 16.9599C39.6651 16.951 39.5699 16.7873 39.5759 16.3527C39.5967 14.6919 39.555 13.0282 39.5937 11.3674C39.6086 10.7245 39.4599 10.6293 38.856 10.8197C33.4424 12.5192 28.0228 14.2008 22.5973 15.8557C22.1124 16.0045 22.0053 16.2158 22.0053 16.6831C22.0202 24.8412 22.0172 32.9993 22.0202 41.1603C22.0202 42.4907 22.0202 42.4401 20.7203 42.5056C19.9678 42.5443 19.7744 42.3389 19.7774 41.58C19.8071 33.2969 19.7923 25.0138 19.8101 16.7337C19.8101 16.189 19.6495 15.9896 19.126 15.8289C13.8313 14.1979 8.54558 12.5311 3.25686 10.8733C2.21578 10.5459 2.2128 10.54 2.2128 11.6382C2.2128 27.5824 2.2128 43.5295 2.20091 59.4736C2.20091 59.9438 2.31989 60.1492 2.80176 60.295C6.42771 61.4022 10.0447 62.5481 13.6618 63.6821C15.6785 64.3131 17.6952 64.9441 19.7952 65.5989L19.7923 65.5959Z" fill="black"/>
<path id="Vector_2" d="M10.9877 20.213C13.6766 20.213 15.6577 22.6744 14.9854 25.2995C14.331 27.8473 13.1383 30.1896 11.9217 32.5082C11.535 33.2463 10.485 33.288 10.0983 32.5617C8.78057 30.1003 7.47475 27.6121 6.89769 24.862C6.39797 22.481 8.48014 20.213 10.9877 20.213ZM10.9877 29.4693C11.8146 27.8056 12.4511 26.2936 12.8319 24.6775C13.0044 23.9453 12.7605 23.2191 12.1567 22.7935C11.4636 22.3054 10.7289 22.2697 9.9912 22.6744C9.33978 23.0316 8.92037 23.7906 9.08099 24.4811C9.47066 26.1657 10.0864 27.7699 10.9877 29.4693Z" fill="black"/>
<path id="Vector_3" d="M50.6352 46.5564C52.9553 46.5594 54.7489 48.4107 54.74 50.7947C54.7341 52.9883 52.7887 54.8812 50.5727 54.8544C48.324 54.8276 46.4173 52.89 46.4351 50.6518C46.456 48.369 48.318 46.5505 50.6322 46.5535L50.6352 46.5564ZM52.527 50.7203C52.5389 49.5983 51.7625 48.7917 50.6471 48.7708C49.5435 48.75 48.6869 49.5476 48.6482 50.628C48.6095 51.7025 49.5138 52.643 50.5935 52.6549C51.6435 52.6639 52.5151 51.7918 52.527 50.7203Z" fill="black"/>
<path id="Vector_4" d="M34.9386 21.975C34.8642 21.9929 34.775 21.9126 34.7125 21.8024C34.4299 21.3113 34.1622 20.8143 33.8677 20.3292C33.7131 20.0702 33.9332 20.0315 34.0611 19.9631C34.9326 19.5047 35.8547 19.1803 36.8066 18.9243C37.1011 18.844 37.2141 18.963 37.2795 19.2101C37.2914 19.2577 37.3063 19.3053 37.3152 19.3529C37.4045 19.8827 37.693 20.4928 37.5205 20.9214C37.3598 21.3232 36.6162 21.2548 36.1552 21.4572C35.7744 21.6238 35.3877 21.7816 34.9356 21.9721L34.9386 21.975Z" fill="black"/>
<path id="Vector_5" d="M19.6406 46.3987C17.6774 46.3957 17.4721 46.0981 18.1712 44.2944C18.2485 44.092 18.3586 44.0236 18.5578 44.0653C19.2896 44.22 20.0213 44.22 20.756 44.0801C20.8988 44.0533 21.0683 44.0117 21.11 44.22C21.229 44.8212 21.345 45.4224 21.4491 46.0266C21.4997 46.3094 21.2498 46.2439 21.104 46.2856C20.6222 46.4225 20.1284 46.3987 19.6346 46.4017L19.6406 46.3987Z" fill="black"/>
<path id="Vector_6" d="M51.7357 36.0768C51.7298 37.8447 51.7298 37.8358 49.954 37.69C49.6327 37.6632 49.5227 37.5501 49.5257 37.2435C49.5376 36.425 49.5405 35.6095 49.5257 34.791C49.5197 34.4726 49.6387 34.3833 49.957 34.3595C51.7447 34.2226 51.7417 34.2106 51.7357 36.0768Z" fill="black"/>
<path id="Vector_7" d="M51.7357 42.7229C51.7328 44.4223 51.7357 44.4075 50.0165 44.3211C49.6119 44.3003 49.5167 44.1515 49.5257 43.7884C49.5435 43.0235 49.5405 42.2556 49.5227 41.4907C49.5138 41.1484 49.6238 41.0323 49.9808 41.0085C51.7417 40.8894 51.7417 40.8775 51.7357 42.7229Z" fill="black"/>
<path id="Vector_8" d="M32.3448 23.853C32.2675 23.9483 32.1961 24.0435 32.1158 24.1328C31.6547 24.6507 31.2055 25.1835 30.9021 25.8115C30.7237 26.1835 30.5333 26.1656 30.2061 26.0019C28.588 25.1924 28.5731 25.1596 29.638 23.7072C29.6975 23.6268 29.7599 23.5495 29.8194 23.4721C30.801 22.1923 31.3245 22.231 32.2109 23.6447C32.2496 23.7072 32.2883 23.7697 32.3418 23.8501L32.3448 23.853Z" fill="black"/>
<path id="Vector_9" d="M15.4881 43.1188C15.1609 43.6039 14.807 44.1635 14.4084 44.6932C14.3043 44.8331 14.1436 44.6367 14.0366 44.5593C13.2602 44.0146 12.6088 43.342 11.9931 42.6277C11.7581 42.3568 11.7729 42.1842 12.0823 41.9907C12.5196 41.714 12.9092 41.2229 13.3703 41.1544C13.8759 41.077 14.0752 41.7884 14.4738 42.086C14.7326 42.2765 14.9676 42.4967 15.2115 42.7051C15.3186 42.7973 15.4881 42.839 15.4911 43.1188H15.4881Z" fill="black"/>
<path id="Vector_10" d="M40.608 20.3112C40.6616 19.1703 41.2089 18.7298 42.25 18.9897C42.3928 19.0254 42.5415 19.0462 42.6813 19.0909C44.6266 19.7487 44.35 19.2516 43.5736 21.2696C43.4547 21.5791 43.2643 21.5851 42.9906 21.4987C42.4046 21.3202 41.8187 21.1208 41.2148 21.0225C40.7121 20.9422 40.4117 20.8172 40.611 20.3082L40.608 20.3112Z" fill="black"/>
<path id="Vector_11" d="M50.4478 31.0766C49.7428 31.2849 49.4007 30.9516 49.4781 30.1063C49.4989 29.8682 49.4067 29.6212 49.3918 29.3741C49.368 28.9664 48.9843 28.3949 49.2699 28.2015C49.7517 27.877 50.4121 27.8115 51.001 27.6568C51.2925 27.5794 51.2896 27.8294 51.3461 28.0139C51.6138 28.8652 51.6227 29.7551 51.7209 30.6301C51.7625 31.0022 51.5781 31.1063 51.242 31.0825C51.0219 31.0676 50.7988 31.0795 50.4448 31.0795L50.4478 31.0766Z" fill="black"/>
<path id="Vector_12" d="M11.0204 35.3685C12.0466 35.3655 12.0347 35.3685 12.0644 36.431C12.0793 36.9459 12.1269 37.4638 12.2191 37.9698C12.2786 38.3001 12.1537 38.4222 11.8741 38.4787C11.8503 38.4847 11.8265 38.4876 11.8027 38.4936C10.6684 38.815 10.0398 38.3884 9.91683 37.2138C9.89304 36.9935 9.87222 36.7703 9.87222 36.5501C9.87816 35.1006 9.72349 35.4101 11.0204 35.3655V35.3685Z" fill="black"/>
<path id="Vector_13" d="M25.0453 44.7587C24.9947 44.7378 24.9174 44.723 24.8698 44.6783C24.8163 44.6307 24.7895 44.5563 24.7508 44.4938C24.4593 44.0325 23.9864 43.5949 23.9269 43.1068C23.8644 42.586 24.6497 42.4877 24.9412 42.08C24.9561 42.0592 24.9769 42.0443 24.9918 42.0264C25.3011 41.7169 25.7056 41.0978 25.899 41.1573C26.4374 41.327 26.8865 41.7794 27.3714 42.1187C27.5379 42.2347 27.5915 42.3657 27.4576 42.5502C26.83 43.3955 26.0447 44.0682 25.2 44.6813C25.1613 44.7111 25.1137 44.7259 25.0483 44.7587H25.0453Z" fill="black"/>
<path id="Vector_14" d="M29.5041 36.7018C29.4565 37.4072 29.4476 37.9935 29.3167 38.5769C29.2394 38.9221 29.1234 38.9579 28.817 38.8596C28.2816 38.69 27.5528 38.7168 27.2494 38.3656C27.0055 38.0828 27.2702 37.3596 27.3178 36.8328C27.4398 35.425 27.4457 35.4726 28.6266 35.4041C29.3554 35.3624 29.6142 35.6006 29.5071 36.303C29.4803 36.4726 29.5041 36.6482 29.5041 36.7018Z" fill="black"/>
<path id="Vector_15" d="M47.3483 21.6416C47.4495 21.7101 47.5565 21.7666 47.6458 21.844C48.3329 22.4512 48.9337 23.1417 49.487 23.8738C49.6744 24.1209 49.6863 24.2786 49.3888 24.4542C48.9218 24.728 48.4935 25.24 48.0146 25.2876C47.5119 25.3352 47.4078 24.5495 47.0092 24.2399C46.9527 24.1953 46.9021 24.1358 46.8605 24.0733C46.6315 23.725 45.9681 23.4899 46.0812 23.1744C46.2686 22.6506 46.7713 22.2369 47.146 21.7785C47.1907 21.7249 47.2621 21.6982 47.3483 21.6446V21.6416Z" fill="black"/>
<path id="Vector_16" d="M27.3357 30.4248C27.3387 30.3504 27.3446 30.276 27.3476 30.2016C27.4279 28.5765 27.8651 28.3295 29.4238 28.9813C29.6528 29.0765 29.6439 29.1777 29.6231 29.3623C29.5725 29.8295 29.5517 30.2998 29.5041 30.7671C29.4625 31.1987 29.7123 31.8683 29.3703 32.0142C28.8646 32.2285 28.2132 32.1005 27.6212 32.1064C27.3297 32.1094 27.3416 31.8832 27.3387 31.6868C27.3357 31.2671 27.3387 30.8445 27.3387 30.4248H27.3357Z" fill="black"/>
</g>
<path id="Vector_17" d="M57.9396 3.4511C55.7457 4.85935 55.2871 6.92033 54.407 8.88461C53.9794 7.01099 53.7625 5.14341 51.5934 4.27912C52.8329 3.07638 53.8926 2.00055 54.531 0C55.349 1.71648 56.0431 3.00989 57.9396 3.45714V3.4511Z" fill="black"/>
<path id="Vector_18" d="M8.86263 71.5665C6.66874 72.9747 6.21014 75.0357 5.33011 77C4.90248 75.1263 4.68557 73.2588 2.51647 72.3945C3.75596 71.1917 4.81571 70.1159 5.45404 68.1154C6.2721 69.8318 6.96622 71.1252 8.86263 71.5725V71.5665Z" fill="black"/>
</g>
</svg>
