<svg width="78" height="77" viewBox="0 0 78 77" fill="none" xmlns="http://www.w3.org/2000/svg">
<g id="Group 43">
<g id="Group">
<path id="Vector" d="M38.7811 51.2604C39.5248 49.2106 40.1909 47.3754 40.857 45.5402C41.2311 44.5084 41.587 43.463 41.993 42.445C42.3626 41.5182 42.9831 41.1348 44.0507 41.3995C50.9765 43.1024 56.0865 47.1289 59.4947 53.3604C59.6726 53.6891 59.846 54.0178 60.0559 54.4104C61.2968 53.333 62.2093 52.0821 63.1538 50.8632C63.3408 50.6213 63.5005 50.361 63.7058 50.1373C64.3309 49.4434 65.0746 49.2882 65.8228 49.8817C66.5574 50.466 66.6121 51.2284 66.0965 52.0045C64.3948 54.5519 62.3462 56.7934 60.0102 58.761C55.4797 62.5821 50.2648 65.0336 44.4385 65.9969C34.9212 67.5673 26.2069 65.4582 18.5511 59.5645C11.7759 54.351 7.68333 47.4211 6.11384 38.9982C5.50247 35.7204 5.43859 32.4335 5.80359 29.1283C5.81728 28.9867 5.90397 28.8361 5.62566 28.6763C4.72229 29.4615 3.79611 30.2787 2.85168 31.0822C1.87987 31.9085 1.02213 31.9267 0.356009 31.1552C-0.246237 30.4522 -0.0819874 29.5985 0.830505 28.795C2.91099 26.9598 4.99604 25.1246 7.09021 23.3031C8.10764 22.4174 8.85132 22.4631 9.73187 23.4629C11.5705 25.54 13.4047 27.6263 15.2205 29.7217C16.0418 30.6667 16.0509 31.5935 15.289 32.2235C14.5772 32.8124 13.7423 32.6344 12.9302 31.7213C11.7485 30.3928 10.5668 29.0644 9.303 27.64C8.82394 28.6991 8.792 29.7583 8.73269 30.7672C8.2217 39.4776 10.7584 47.1471 16.6258 53.6708C17.2964 54.4195 17.5382 54.2917 17.9808 53.4608C21.3342 47.1974 26.4487 43.1526 33.3563 41.4178C34.5745 41.1119 35.1676 41.4132 35.6147 42.6321C36.5774 45.2663 37.5173 47.9095 38.4663 50.5436C38.5256 50.708 38.6077 50.8632 38.7856 51.2558L38.7811 51.2604ZM39.1369 63.3582C40.2684 63.2851 41.847 63.1619 43.4257 62.9199C48.3851 62.1621 52.838 60.2538 56.8621 57.2728C57.5328 56.7752 57.5647 56.3551 57.2362 55.6795C54.7223 50.5208 50.8077 46.9326 45.4058 44.9695C44.6712 44.7002 44.3473 44.8417 44.0872 45.5904C43.0242 48.6719 41.9109 51.7306 40.8068 54.7984C40.5878 55.4056 40.3643 56.0082 40.0951 56.5925C39.835 57.1586 39.3742 57.4417 38.7309 57.428C38.0876 57.4143 37.645 57.1084 37.3941 56.5423C37.1614 56.0265 36.9561 55.4923 36.7645 54.9582C35.6193 51.7899 34.4604 48.6263 33.3563 45.4443C33.1236 44.7687 32.8271 44.6865 32.2157 44.9102C26.7088 46.928 22.6665 50.5345 20.2073 55.8941C19.9746 56.4054 19.8925 56.7158 20.4354 57.1267C25.8465 61.1897 31.9419 63.1984 39.1324 63.3536L39.1369 63.3582Z" fill="black"/>
<path id="Vector_2" d="M71.7357 29.6943C72.6802 28.3796 73.4147 27.3296 74.1767 26.3024C74.8656 25.3665 75.7598 25.1383 76.5035 25.6769C77.2746 26.2339 77.343 27.0876 76.6495 28.0828C75.0207 30.4202 73.3828 32.7484 71.7357 35.0767C71.0696 36.0171 70.2803 36.1815 69.3952 35.5515C67.041 33.8806 64.7004 32.1915 62.3553 30.5115C61.7303 30.0641 61.2695 29.5117 61.4793 28.6946C61.7394 27.6719 62.8891 27.2337 63.8381 27.8454C65.1749 28.7082 66.457 29.6669 67.7618 30.58C68.0037 30.7489 68.2592 30.8995 68.6287 31.1369C68.8386 29.5026 68.4417 28.0417 68.1223 26.6037C65.4578 14.62 55.7078 5.3207 43.6447 3.54484C31.6317 1.77811 21.8863 5.88223 14.4449 15.4737C14.2806 15.6837 14.1346 15.9074 13.9658 16.1128C13.2495 17.0122 12.4876 17.1811 11.7074 16.6241C10.982 16.1083 10.8862 15.1815 11.4839 14.305C12.7294 12.4789 14.1529 10.7944 15.7543 9.2696C21.0012 4.27526 27.2152 1.31701 34.4011 0.312667C50.9081 -1.99276 66.717 8.67155 70.9328 25.0196C71.2978 26.4393 71.5578 27.8819 71.7403 29.6898L71.7357 29.6943Z" fill="black"/>
<path id="Vector_3" d="M47.03 26.5443C46.9981 31.1095 43.193 34.853 38.6442 34.7936C34.2004 34.7343 30.409 30.8949 30.3953 26.4393C30.3816 21.8467 34.2141 18.085 38.8541 18.1398C43.4987 18.1945 47.062 21.8558 47.03 26.5443ZM33.5434 26.3982C33.5434 29.3975 35.8109 31.671 38.7811 31.6573C41.6646 31.6436 43.9869 29.3519 44.037 26.4667C44.0872 23.6591 41.587 21.1528 38.7309 21.1482C35.8885 21.1482 33.5388 23.5221 33.5388 26.3982H33.5434Z" fill="black"/>
</g>
<path id="Vector_4" d="M77 65.0344C71.9816 68.1356 70.9326 72.6743 68.9196 77C67.9415 72.8739 67.4453 68.7612 62.4836 66.8579C65.3188 64.2092 67.743 61.84 69.2031 57.4344C71.0744 61.2145 72.6621 64.0628 77 65.0477V65.0344Z" fill="black"/>
</g>
</svg>
