<svg width="564" height="639" viewBox="0 0 564 639" fill="none" xmlns="http://www.w3.org/2000/svg">
<path fill-rule="evenodd" clip-rule="evenodd" d="M312 87C444.548 87 552 194.452 552 327C552 459.548 544.548 627 352 627C195.133 627 131.669 509.612 93.7528 426.981L93.3229 426.989L92 427C47.8172 427 12 391.183 12 347C12 307.135 41.1588 274.08 79.3121 268.001C105.599 163.979 199.81 87 312 87ZM75.8589 332.545L84.1411 363.455Z" fill="white"/>
<path d="M75.8589 332.545L84.1411 363.455M312 87C444.548 87 552 194.452 552 327C552 459.548 544.548 627 352 627C195.133 627 131.669 509.612 93.7528 426.981L93.3229 426.989L92 427C47.8172 427 12 391.183 12 347C12 307.135 41.1588 274.08 79.3121 268.001C105.599 163.979 199.81 87 312 87Z" stroke="black" stroke-width="24" stroke-linecap="round" stroke-linejoin="round"/>
<path d="M429 308C449 314.667 459 328 459 348C459 368 449 381.333 429 388" stroke="black" stroke-width="16" stroke-linecap="round" stroke-linejoin="round"/>
<path fill-rule="evenodd" clip-rule="evenodd" d="M309 449C309 449 375 463 407 463C439 463 469 453.528 469 453.528C469 453.528 468 522 398 522C328 522 309 449 309 449Z" stroke="black" stroke-width="16" stroke-linecap="round" stroke-linejoin="round"/>
<path fill-rule="evenodd" clip-rule="evenodd" d="M350 224C358.837 224 366 234.745 366 248C366 261.255 358.837 272 350 272C341.163 272 334 261.255 334 248C334 234.745 341.163 224 350 224ZM488 224C496.837 224 504 234.745 504 248C504 261.255 496.837 272 488 272C479.163 272 472 261.255 472 248C472 234.745 479.163 224 488 224Z" fill="black"/>
<path d="M308.204 217.085C321.232 211.792 332.412 208.443 341.746 207.039C351.08 205.634 362.43 205.593 375.796 206.915" stroke="black" stroke-width="16" stroke-linecap="round" stroke-linejoin="round"/>
<path d="M529.796 217.085C516.769 211.792 505.588 208.443 496.254 207.039C486.92 205.634 475.57 205.593 462.204 206.915" stroke="black" stroke-width="16" stroke-linecap="round" stroke-linejoin="round"/>
<path d="M346 307C379.137 307 406 280.137 406 247C406 213.863 379.137 187 346 187C312.863 187 286 213.863 286 247C286 280.137 312.863 307 346 307Z" stroke="black" stroke-width="16" stroke-linecap="round" stroke-linejoin="round"/>
<path d="M490 307C523.137 307 550 280.137 550 247C550 213.863 523.137 187 490 187C456.863 187 430 213.863 430 247C430 280.137 456.863 307 490 307Z" stroke="black" stroke-width="16" stroke-linecap="round" stroke-linejoin="round"/>
<path d="M442 200C434 194.667 426 192 418 192C410 192 402 194.667 394 200" stroke="black" stroke-width="16" stroke-linecap="round" stroke-linejoin="round"/>
<path d="M290.484 225.568L73.8268 263.771" stroke="black" stroke-width="16" stroke-linecap="round" stroke-linejoin="round"/>
<path fill-rule="evenodd" clip-rule="evenodd" d="M277.312 9.25797C321.612 3.03197 359.175 9.73397 361.212 24.227L361.171 23.948C430.089 33.905 462.601 61.62 479 81C493.667 98.333 501 118 501 140L487.421 138.871C471.263 137.542 421.711 119.403 408.764 118.454C411.023 124.556 412.654 130.983 413.657 137.735L411.329 136.09C393.169 123.342 381.493 117.076 376.302 117.293L376.141 117.302C373.535 117.484 370.475 116.964 366.96 115.74L363.945 115.585C362.635 115.519 361.363 115.459 360.13 115.403L360.955 116.284C363.506 119.029 365.476 121.338 366.866 123.212C369.264 126.446 370.961 129.769 371.957 133.181C358.459 126.497 296 102 251 111C227.673 115.665 202.7 137.111 182.563 133.184C174.011 137.97 166.206 144.624 159.296 153.522C135.592 184.045 159 206.408 159 224L158.995 224.737C158.83 237.316 154.669 281.806 146.512 358.209L146 363L108.117 272.825H67.1462C51.7802 215.747 48.1061 176.653 56.1231 155.542C65.7911 130.084 114.128 66.354 199.743 38.709C211.777 28.313 246.044 13.652 277.312 9.25797Z" fill="black" stroke="black" stroke-width="12" stroke-linecap="round" stroke-linejoin="round"/>
</svg>
