<svg width="203" height="38" viewBox="0 0 203 38" fill="none" xmlns="http://www.w3.org/2000/svg">
<g id="globaleye-capital_logo_w.815364ed 1" clip-path="url(#clip0_26_345)">
<path id="Vector" d="M63.0706 10.0725C61.3923 11.4236 60.464 13.8818 60.464 17.0626C60.464 20.2949 61.3923 22.7251 63.0941 24.0527C64.3224 25.0285 65.6492 25.3569 68.2277 25.3569H75.6913V15.4347H67.4776V18.4184H72.133V22.3779H68.9262C67.2994 22.3779 66.2211 22.0542 65.5695 21.3739C64.8193 20.5717 64.3693 18.8172 64.3693 16.7389C64.3693 13.0796 65.621 11.6253 68.7996 11.6253H75.6866V8.6416H68.373C66.0008 8.64629 64.2708 9.12012 63.0706 10.0725Z" fill="white"/>
<path id="Vector_2" d="M82.9018 21.6507C82.2501 21.0736 82.1986 20.9235 82.0767 18.0149V8.64624H78.523V18.0196C78.523 19.7507 78.673 21.1253 78.9262 21.8806C79.4513 23.485 80.7312 24.6391 82.433 25.0894C83.2862 25.3146 83.8348 25.3662 86.1882 25.3662H89.9716V22.3778H86.568C84.3036 22.3778 83.5535 22.2277 82.9018 21.6507Z" fill="white"/>
<path id="Vector_3" d="M99.0059 22.6546C96.0007 22.6546 94.6505 20.8766 94.6505 16.9687C94.6505 15.1906 94.899 13.863 95.4287 13.0326C96.1038 11.9536 97.3837 11.3531 98.959 11.3531C101.964 11.3531 103.314 13.0795 103.314 16.9405C103.314 20.8766 101.988 22.6546 99.0059 22.6546ZM99.0574 8.51953C96.6289 8.51953 94.5755 9.09657 93.2722 10.1474C91.6172 11.4516 90.7452 13.8818 90.7452 17.0625C90.7452 19.319 91.2187 21.1487 92.1986 22.5232C93.5019 24.4045 96.0288 25.4553 99.2356 25.4553C104.496 25.4553 107.224 22.6218 107.224 17.161C107.224 14.6558 106.624 12.4227 105.597 11.0951C104.364 9.47188 101.936 8.51953 99.0574 8.51953Z" fill="white"/>
<path id="Vector_4" d="M119.939 21.9791C119.512 22.3028 119.161 22.3778 118.134 22.3778H113.3V18.4934H118.209C119.161 18.4934 119.559 18.5685 119.986 18.8453C120.436 19.1455 120.712 19.6709 120.712 20.323C120.712 20.9751 120.417 21.6038 119.939 21.9791ZM113.305 11.6299H118.214C119.165 11.6299 119.54 11.705 119.967 11.9818C120.417 12.282 120.694 12.8075 120.694 13.4596C120.694 14.1117 120.394 14.7356 119.915 15.1156C119.489 15.4393 119.137 15.5144 118.139 15.5144H113.305V11.6299ZM124.622 13.0327C124.622 11.4282 123.797 9.89883 122.545 9.22328C121.819 8.82451 120.792 8.64624 119.189 8.64624H109.751V25.3615H118.992C120.497 25.3615 121.519 25.2349 122.17 24.9862C123.722 24.3857 124.622 22.908 124.622 20.9282C124.622 19.0751 123.797 17.7475 122.194 17.0203C123.596 16.4151 124.622 14.7591 124.622 13.0327Z" fill="white"/>
<path id="Vector_5" d="M131.913 18.4934L134.294 12.6527L136.671 18.4934H131.913ZM132.236 8.64624L125.326 25.3615H129.507L131.111 21.4771H137.473L139.076 25.3615H143.235L136.324 8.64624H132.236Z" fill="white"/>
<path id="Vector_6" d="M149.24 21.6507C148.588 21.0736 148.537 20.9235 148.415 18.0149V8.64624H144.861V18.0196C144.861 19.7507 145.011 21.1253 145.26 21.8806C145.785 23.485 147.065 24.6391 148.767 25.0894C149.62 25.3146 150.168 25.3662 152.522 25.3662H156.305V22.3778H152.902C150.642 22.3778 149.892 22.2277 149.24 21.6507Z" fill="white"/>
<path id="Vector_7" d="M160.309 9.99735C158.457 11.5736 157.477 13.9334 157.477 16.889C157.477 19.6709 158.256 22.0025 159.681 23.4803C161.008 24.883 162.709 25.3615 166.268 25.3615H170.9V22.3778H166.418C163.014 22.3778 161.758 21.402 161.509 18.545H170.9V15.566H161.509C161.636 13.9099 161.734 13.5346 162.236 12.8591C162.963 11.9067 163.863 11.6299 166.268 11.6299H170.9V8.64624H164.889C162.639 8.64624 161.486 8.99809 160.309 9.99735Z" fill="white"/>
<path id="Vector_8" d="M180.093 15.1625L176.263 8.64624H172.081L178.265 18.043V25.3615H181.823V18.1697L188.335 8.64624H184.125L180.093 15.1625Z" fill="white"/>
<path id="Vector_9" d="M197.974 11.6299H202.606V8.64624H196.596C194.341 8.64624 193.192 8.99809 192.011 9.99735C190.159 11.5783 189.184 13.9334 189.184 16.889C189.184 19.6709 189.962 22.0025 191.387 23.4803C192.714 24.883 194.416 25.3615 197.974 25.3615H202.606V22.3778H198.124C194.721 22.3778 193.469 21.402 193.216 18.545H202.606V15.5613H193.216C193.342 13.9053 193.441 13.5299 193.942 12.8544C194.669 11.902 195.569 11.6299 197.974 11.6299Z" fill="white"/>
<path id="Vector_10" d="M36.887 18.8686L47.5761 19.9992C47.7261 19.6567 47.8433 19.3048 47.9418 18.953L36.9948 17.7942L37.0276 17.494L32.255 16.992L37.037 16.49L37.0042 16.1569L47.9371 15.0123C47.8386 14.6745 47.7261 14.3461 47.5855 14.0177L36.8917 15.1342L36.8542 14.7824L32.2644 15.2656L36.6526 13.8394L36.5354 13.4782L45.2179 10.6587C45.0164 10.4429 44.7679 10.1848 44.4585 9.8846L36.24 12.554L36.1181 12.1693L31.9081 13.5392L35.7431 11.3248L35.5321 10.9589L41.6033 7.45448C41.3455 7.26213 41.0736 7.06509 40.7923 6.86337L35.0726 10.1614L34.8476 9.76732L31.1814 11.8878L34.3319 9.04954L34.0178 8.70238L38.0403 5.08065C37.7871 4.93053 37.5246 4.7804 37.2527 4.63028L33.4364 8.06435L33.0989 7.69374L30.0937 10.4007L32.4707 7.12608L32.0534 6.82114L34.6319 3.27447C34.3882 3.15719 34.1397 3.0399 33.8865 2.92732L31.4018 6.34732L30.9564 6.02361L28.6873 9.14337L30.2578 5.61547L29.7468 5.38559L31.3221 1.84361C31.0923 1.75448 30.8532 1.66534 30.6141 1.5762L29.053 5.08065L28.5091 4.8367L27.0183 8.18633L27.7825 4.59744L27.1917 4.47547L27.984 0.745836C27.759 0.694231 27.5293 0.647317 27.2996 0.605095L26.5073 4.33003L25.879 4.19398L25.157 7.59991V4.11892H24.5007V0.304846C24.3835 0.300154 24.271 0.290771 24.1585 0.290771C24.0553 0.290771 23.9569 0.300154 23.8584 0.300154V4.11423H23.1692V9.42016C23.1036 9.42954 23.038 9.43423 22.9723 9.44831L21.8753 4.31596L22.5785 4.16584L21.7909 0.464352C21.0549 0.567564 20.3329 0.72707 19.6296 0.924107L20.4173 4.62559L21.097 4.48015L21.1111 4.54114L22.1894 9.6125C21.9409 9.68287 21.6925 9.75793 21.4487 9.85176L19.3155 5.0525L19.9297 4.7804L18.3873 1.31818C18.3498 1.33226 18.3076 1.34632 18.2701 1.3604C17.6137 1.59497 16.9808 1.83892 16.3713 2.08756L17.9606 5.65769L18.5513 5.39497L18.5748 5.45127L20.6845 10.1942C20.4735 10.3021 20.2672 10.4241 20.061 10.5555L16.9714 6.3004L17.459 5.94855L15.0586 2.64114C14.3835 2.9367 13.7365 3.24164 13.1177 3.54658L15.7619 7.18707L16.2354 6.8446L19.3249 11.0997C19.1561 11.2404 18.9874 11.3858 18.8326 11.536L14.9273 8.01744L15.293 7.60929L11.6362 4.31596C10.9752 4.6725 10.3516 5.03374 9.77031 5.39028L13.9288 9.13398L14.2898 8.73053L18.1997 12.2537C18.0731 12.4132 17.9466 12.5774 17.834 12.751L13.2771 10.1192L13.5256 9.68756L8.03098 6.51621C7.384 6.95719 6.79329 7.3888 6.2682 7.80164L12.5317 11.4187L12.7801 10.9871L17.3418 13.6236C17.2574 13.7972 17.1777 13.9708 17.1074 14.149L12.0957 12.5211L12.2363 12.0942L4.26163 9.5046C3.51151 10.1989 3.01456 10.7431 2.74733 11.0527L11.6409 13.9379L11.7816 13.5063L11.805 13.5157L16.7933 15.1389C16.7698 15.2281 16.7417 15.3125 16.7229 15.4063C16.7042 15.4908 16.6948 15.5799 16.6807 15.6644L11.4346 15.1108L11.4768 14.712L0.928301 13.6002C0.628255 14.1913 0.40322 14.8011 0.262573 15.4251L11.2752 16.5792L11.3174 16.171L16.5588 16.7246C16.5542 16.8888 16.5542 17.0577 16.5588 17.2219L11.3127 17.7755L11.2752 17.4283L0.262573 18.5871C0.398532 19.1923 0.618879 19.7834 0.909548 20.3604L11.4721 19.2439L11.4346 18.8779L16.6761 18.329C16.7042 18.4792 16.7417 18.6246 16.7745 18.7747L11.7534 20.4073L11.6597 20.1211L2.78953 23.011C3.05675 23.316 3.5162 23.8086 4.17724 24.4278L12.2082 21.81L12.1097 21.5004L17.1214 19.8725C17.173 19.9992 17.2386 20.1258 17.2949 20.2525L12.7239 22.8937L12.5973 22.6779L6.36666 26.2809C6.83079 26.6374 7.33712 27.0081 7.89033 27.3927L13.4599 24.1698L13.3193 23.9305L17.8903 21.2893C17.9606 21.3925 18.0356 21.4957 18.1107 21.5942L14.1866 25.1268L14.0507 24.9767L9.92033 28.7016C10.4032 28.9925 10.9095 29.2834 11.444 29.5789L15.1711 26.2199L15.0164 26.0463L18.9405 22.5137C19.0202 22.5888 19.0999 22.6732 19.1843 22.7436L16.0853 27.0128L15.9634 26.9236L13.3287 30.5547C13.8069 30.7893 14.3085 31.0192 14.8195 31.249L17.2668 27.876L17.1167 27.7681L20.2157 23.4989C20.3001 23.5505 20.3844 23.6068 20.4688 23.6537L18.3263 28.4671L18.2279 28.4248L16.6339 32.0137C17.0933 32.1967 17.5574 32.375 18.0403 32.5532C18.0591 32.5626 18.0778 32.5673 18.0966 32.572L19.6578 29.0582L19.5265 29.0019L21.669 24.1839C21.7487 24.212 21.8331 24.2402 21.9128 24.2683L20.8158 29.4241L20.7407 29.41L19.9484 33.1678C20.4313 33.2945 20.9236 33.4024 21.4252 33.4821L22.2222 29.7244L22.1472 29.7103L23.2443 24.5545C23.3193 24.5639 23.3896 24.5732 23.4646 24.5826V29.851H23.4365L23.4412 33.6886C23.6803 33.6979 23.9194 33.7167 24.1585 33.7167C24.4069 33.7167 24.6507 33.6979 24.8945 33.6886L24.8898 29.851H24.8617V24.5826C24.9226 24.5779 24.9836 24.5686 25.0398 24.5639L26.1322 29.715L26.151 29.7103L26.9573 33.4681C27.4215 33.3883 27.8762 33.2898 28.3263 33.1725L27.5199 29.4194L27.534 29.4147L26.4416 24.2683C26.4885 24.2542 26.5307 24.2355 26.5776 24.2214L28.7201 29.0347L28.7904 29.0066L30.3563 32.5251C30.7876 32.3656 31.2049 32.2061 31.6174 32.0419L30.0234 28.4577L30.0703 28.4342L27.9278 23.6256C27.9559 23.6068 27.984 23.5928 28.0169 23.574L31.1111 27.8384L31.2049 27.7681L33.6755 31.174C34.0834 30.991 34.4819 30.8034 34.871 30.6157L32.255 27.0081L32.3394 26.9471L29.2452 22.6826C29.2592 22.6686 29.278 22.6545 29.2921 22.6404L33.2067 26.1683L33.3146 26.0463L37.0979 29.4569C37.4871 29.2411 37.8621 29.0207 38.2278 28.8048L34.1444 25.1221L34.2475 25.0095L30.3375 21.4863C30.3422 21.4816 30.3469 21.4769 30.3516 21.4676L34.9086 24.0994L34.9976 23.9258L40.6798 27.2098C41.0501 26.9518 41.397 26.6937 41.7252 26.4451L35.5883 22.8984L35.6915 22.7248L31.2049 20.1305L36.1369 21.735L36.2119 21.5004L44.4069 24.1698C44.7773 23.8132 45.0679 23.5083 45.293 23.269L36.5635 20.4261L36.6432 20.1868L31.894 18.6434L36.8635 19.1641L36.887 18.8686Z" fill="white"/>
<path id="Vector_11" d="M166.455 37.8969H164.271C163.089 37.8969 162.438 37.6951 161.926 37.1838C161.364 36.6208 161.054 35.6919 161.054 34.5894C161.054 33.2149 161.556 32.0843 162.377 31.6011C162.808 31.3383 163.46 31.2117 164.261 31.2117H166.455V32.2156H164.374C163.581 32.2156 163.131 32.3751 162.831 32.7457C162.559 33.107 162.391 33.7778 162.391 34.5519C162.391 35.4433 162.611 36.147 163 36.4988C163.31 36.7897 163.713 36.8976 164.444 36.8976H166.455V37.8969Z" fill="white"/>
<path id="Vector_12" d="M170.872 32.3704L171.973 35.2369H169.742L170.872 32.3704ZM170.131 31.2117L167.37 37.8969H168.743L169.423 36.2408H172.306L172.967 37.8969H174.35L171.645 31.2117H170.131Z" fill="white"/>
<path id="Vector_13" d="M178.537 34.5097C178.996 34.5097 179.278 34.4299 179.46 34.2611C179.653 34.0828 179.77 33.7122 179.77 33.3181C179.77 32.9052 179.62 32.5862 179.348 32.3845C179.179 32.2625 178.949 32.2156 178.527 32.2156H176.704V34.5097H178.537ZM176.704 37.8969H175.48V31.2117H178.593C179.634 31.2117 180.084 31.343 180.506 31.784C180.886 32.1734 181.087 32.7176 181.087 33.3462C181.087 34.0781 180.806 34.7302 180.347 35.1008C179.976 35.4011 179.517 35.5136 178.654 35.5136H176.699V37.8969H176.704Z" fill="white"/>
<path id="Vector_14" d="M183.656 31.2117H182.433V37.8969H183.656V31.2117Z" fill="white"/>
<path id="Vector_15" d="M184.805 31.2117V32.2109H187.041V37.8969H188.265V32.2109H190.525V31.2117H184.805Z" fill="white"/>
<path id="Vector_16" d="M193.67 32.3704L194.772 35.2369H192.536L193.67 32.3704ZM192.93 31.2117L190.164 37.8969H191.537L192.217 36.2408H195.1L195.761 37.8969H197.144L194.439 31.2117H192.93Z" fill="white"/>
<path id="Vector_17" d="M199.423 31.2117V35.0398C199.423 35.8608 199.512 36.2924 199.742 36.5129C200.014 36.7756 200.482 36.8929 201.204 36.8929H202.606V37.8969H201.022C199.84 37.8969 199.287 37.7373 198.809 37.2635C198.368 36.8319 198.199 36.2314 198.199 35.1102V31.2117H199.423Z" fill="white"/>
</g>
<defs>
<clipPath id="clip0_26_345">
<rect width="203" height="38" fill="white"/>
</clipPath>
</defs>
</svg>
