<svg width="118" height="36" viewBox="0 0 118 36" fill="none" xmlns="http://www.w3.org/2000/svg">
<g id="svgexport-1 1" clip-path="url(#clip0_26_334)">
<path id="Vector" d="M48.7325 29.7586C49.8457 34.2025 53.6969 35.9919 58.0293 35.9919C62.3013 35.9919 67.2354 34.0232 67.2354 29.1021C67.2354 26.8657 66.1825 24.9569 64.1668 23.8831C62.3616 22.9586 60.2858 22.6308 58.3301 22.2432C57.5479 22.0641 56.0435 21.8551 56.0435 20.7816C56.0435 19.708 57.2471 19.4694 58.0892 19.4694C59.6837 19.4694 60.8271 20.0062 61.4291 21.5272L66.6638 19.9464C65.4003 16.3976 61.9404 14.9363 58.3601 14.9363C56.3143 14.9363 54.118 15.3238 52.4333 16.4871C50.7784 17.6503 49.7856 19.6184 49.7856 21.6168C49.7856 26.4781 54.3886 27.5218 58.2698 28.2672C59.2025 28.4462 60.7971 28.6846 60.7971 29.9375C60.7971 31.0708 59.1724 31.19 58.3601 31.19C56.525 31.19 55.1408 30.5338 54.5994 28.7148L48.7325 29.7586ZM29.1503 30.6829H21.0573V15.2343H14.6789V35.6935H29.1503V30.6829ZM36.4025 23.0779V19.6184H38.8696C40.073 19.6184 41.3364 19.8274 41.3364 21.3484C41.3364 21.8257 41.126 22.3327 40.735 22.6905C40.2836 23.1077 39.5614 23.0779 38.9597 23.0779H36.4025ZM30.5959 35.6935H40.0429C41.9081 35.6935 44.1347 35.6637 45.729 34.5303C47.2031 33.4862 47.8352 31.5181 47.8352 29.7586C47.8352 27.3128 46.2106 25.5234 43.8337 25.1059V25.0464C45.9398 24.5689 47.3235 22.7497 47.3235 20.6026C47.3235 18.9326 46.5113 17.2624 45.1275 16.2782C43.8337 15.3537 42.2392 15.2343 40.6748 15.2343H30.5959V35.6935ZM36.4025 31.1304V27.4322H38.8996C39.4713 27.4322 40.1932 27.4322 40.735 27.7008C41.3364 27.9988 41.7276 28.625 41.7276 29.3113C41.7276 29.8777 41.4269 30.4146 40.9755 30.743C40.4639 31.16 39.7721 31.1304 39.1404 31.1304H36.4025ZM117.864 3.81648C117.981 3.91766 118.032 4.01141 117.64 3.88877C117.074 3.71212 116.631 3.60721 116.27 3.51514C110.325 2.02509 103.657 2.34342 97.9453 3.78675C94.1254 4.75253 89.4387 6.84131 84.2845 10.105C80.2188 12.6791 78.7053 13.7219 75.1703 16.6016C60.2994 5.86119 50.1751 3.37816 38.1427 3.37816C22.0292 3.37816 8.22884 10.2671 0.271529 16.3766C0.00364765 16.5812 -0.0856763 16.5037 0.0928811 16.3156C7.24722 8.67289 22.3025 0.00805664 41.0201 0.00805664C55.3201 0.00805664 68.033 5.63948 75.1703 11.0837C78.9942 8.29341 84.1575 5.42917 89.7867 3.36621C95.223 1.37426 99.9853 0.817123 103.618 0.817123C110.183 0.817123 114.008 1.78663 116.393 2.95899C116.791 3.15464 117.614 3.60153 117.864 3.81648Z" fill="white"/>
</g>
<defs>
<clipPath id="clip0_26_334">
<rect width="118" height="36" fill="white"/>
</clipPath>
</defs>
</svg>
