<svg width="108" height="30" viewBox="0 0 108 30" fill="none" xmlns="http://www.w3.org/2000/svg">
<g clip-path="url(#clip0_64_1679)">
<path d="M67.9912 19.9243H75.6891C75.9763 22.4859 78.2167 24.2507 82.1806 24.2507C85.5699 24.2507 87.638 23.1691 87.638 21.1197C87.638 18.7288 85.6274 18.5581 80.8593 17.9319C73.9657 17.1349 68.6231 15.5979 68.6231 9.56375C68.6231 3.52959 73.7359 -0.0567466 81.3189 0.000179392C89.2465 0.000179392 94.704 3.47267 95.1061 9.44989H87.3508C87.121 7.11593 84.8806 5.69278 81.6061 5.69278C78.3316 5.69278 76.3784 6.8313 76.3784 8.70986C76.3784 10.93 78.9061 11.1577 83.1572 11.67C89.9359 12.3531 95.5657 13.8901 95.5657 20.4935C95.5657 26.3 90.0508 30.0002 82.1231 30.0002C74.1955 30.0002 68.3359 26.1861 67.9912 19.9243Z" fill="black"/>
<path d="M32.1874 0.267755C32.9055 0.142518 33.681 0.0685141 34.5255 0.0599752C38.1446 0.00304921 41.534 1.31235 43.3723 5.01254C45.4404 1.87876 48.8872 0.0571289 53.368 0.0571289C59.4574 0.0571289 64.2829 3.47269 64.2829 12.8655V29.6586H56.1829V13.3209C56.1829 8.93758 54.5744 6.66054 51.0702 6.66054C47.5659 6.66054 45.2106 9.22221 45.2106 13.6624V29.6586H37.1106V13.3209C37.1106 8.93758 35.5021 6.66054 31.9404 6.66054C31.0816 6.66054 30.2945 6.82278 29.5966 7.13018" fill="black"/>
<path d="M29.8723 0.0571289L24.2511 14.8579L21.442 22.2583L18.6328 29.6586H10.6305L21.87 0.0571289H29.8723Z" fill="#EB6437"/>
<path d="M19.2447 0.0571289L13.6235 14.8579L10.8144 22.2583L8.00521 29.6586H0L11.2423 0.0571289H19.2447Z" fill="#EB6437"/>
<path d="M99.6702 25.8417C99.6702 23.4195 101.434 21.689 103.835 21.689C106.236 21.689 108 23.4195 108 25.8417C108 28.2639 106.188 29.9432 103.835 29.9432C101.483 29.9432 99.6702 28.2127 99.6702 25.8417Z" fill="#EB6437"/>
</g>
<defs>
<clipPath id="clip0_64_1679">
<rect width="108" height="30" fill="white"/>
</clipPath>
</defs>
</svg>
