<svg width="108" height="30" viewBox="0 0 108 30" fill="none" xmlns="http://www.w3.org/2000/svg">
<g id="Layer_1" clip-path="url(#clip0_172_616)">
<path id="Vector" d="M67.9911 19.924H75.689C75.9763 22.4857 78.2167 24.2504 82.1805 24.2504C85.5699 24.2504 87.638 23.1688 87.638 21.1195C87.638 18.7286 85.6273 18.5578 80.8592 17.9316C73.9656 17.1347 68.6231 15.5977 68.6231 9.5635C68.6231 3.52935 73.7358 -0.0569907 81.3188 -6.47491e-05C89.2465 -6.47491e-05 94.7039 3.47242 95.106 9.44965H87.3507C87.1209 7.11568 84.8805 5.69253 81.606 5.69253C78.3316 5.69253 76.3784 6.83105 76.3784 8.70961C76.3784 10.9297 78.906 11.1574 83.1571 11.6698C89.9358 12.3529 95.5656 13.8899 95.5656 20.4933C95.5656 26.2997 90.0507 29.9999 82.1231 29.9999C74.1954 29.9999 68.3358 26.1859 67.9911 19.924Z" fill="white"/>
<path id="Vector_2" d="M32.1875 0.267511C32.9056 0.142274 33.6811 0.06827 34.5256 0.0597311C38.1447 0.00280507 41.5341 1.3121 43.3724 5.01229C45.4404 1.87852 48.8873 0.0568848 53.3681 0.0568848C59.4575 0.0568848 64.283 3.47244 64.283 12.8652V29.6584H56.183V13.3206C56.183 8.93734 54.5745 6.6603 51.0702 6.6603C47.566 6.6603 45.2107 9.22197 45.2107 13.6622V29.6584H37.1107V13.3206C37.1107 8.93734 35.5021 6.6603 31.9404 6.6603C31.0816 6.6603 30.2946 6.82254 29.5966 7.12994" fill="white"/>
<path id="Vector_3" d="M29.8724 0.0568848L24.2512 14.8576L21.442 22.258L18.6329 29.6584H10.6306L21.87 0.0568848H29.8724Z" fill="white"/>
<path id="Vector_4" d="M19.2447 0.0568848L13.6235 14.8576L10.8144 22.258L8.00521 29.6584H0L11.2423 0.0568848H19.2447Z" fill="white"/>
<path id="Vector_5" d="M99.6702 25.8415C99.6702 23.4193 101.434 21.6887 103.835 21.6887C106.236 21.6887 108 23.4193 108 25.8415C108 28.2637 106.188 29.943 103.835 29.943C101.483 29.943 99.6702 28.2124 99.6702 25.8415Z" fill="white"/>
</g>
<defs>
<clipPath id="clip0_172_616">
<rect width="108" height="30" fill="white"/>
</clipPath>
</defs>
</svg>
