<svg width="129" height="18" viewBox="0 0 129 18" fill="none" xmlns="http://www.w3.org/2000/svg">
<g id="svgexport-55 1" clip-path="url(#clip0_26_332)">
<path id="Vector" fill-rule="evenodd" clip-rule="evenodd" d="M8.02418 5.38972L0 0.884462V16.5521H3.88635V7.48133L8.02418 9.7412L12.162 7.48133V16.5521H16.0481V0.884462L8.02418 5.38972ZM123.669 6.52427C123.669 5.32106 122.842 4.55581 121.495 4.55581L119.254 4.57903V8.66562L121.529 8.66643C122.496 8.66643 123.669 8.02767 123.669 6.46904V6.52427ZM124.622 16.5541L121.774 11.9188L119.254 11.9144V16.5541H115.17V1.34798H122.567C125.914 1.34798 127.709 4.16757 127.709 6.51388C127.709 8.82076 126.303 10.0027 125.408 10.6858L129 16.5541H124.622ZM49.0119 4.94922V16.5529H44.9124V4.94922H40.0015V1.34817H53.9461V4.94922H49.0119ZM110.781 8.94671C110.781 13.4367 106.896 17.0588 102.127 17.0588C97.3601 17.0588 93.4734 13.4367 93.4734 8.94671C93.4734 4.42466 97.3601 0.798245 102.127 0.798245C106.896 0.798245 110.781 4.42466 110.781 8.94671ZM106.626 8.84715C106.592 6.48246 104.532 4.5786 102.059 4.61178C99.547 4.64555 97.5938 6.61537 97.628 9.01205C97.6621 11.3757 99.7215 13.2798 102.198 13.2473C104.708 13.215 106.66 11.2438 106.626 8.84715ZM89.5624 12.4591C89.5624 14.732 87.9522 16.6654 84.3235 16.5581L76.3058 16.5508V1.37982L83.8045 1.38197C86.8003 1.38197 88.8605 3.03738 88.8605 5.28005C88.8605 6.90249 88.217 8.14061 86.213 8.59599C88.2846 8.85476 89.5624 10.7059 89.5624 12.4591ZM84.5542 5.84973C84.5542 5.00445 83.9699 4.44569 82.9698 4.44569L80.172 4.44764V7.26274L82.9698 7.2643C83.9919 7.26625 84.5557 6.71081 84.5542 5.81265V5.84973ZM85.2455 11.8751C85.2455 10.8344 84.5906 10.2482 83.4175 10.2482L80.172 10.25V13.4055L83.5191 13.431C84.5906 13.431 85.2455 12.8855 85.2455 11.9117V11.8751ZM67.8992 16.5508L66.7372 14.2746H60.327L59.1536 16.5508H54.6936L63.5099 0.5L72.3223 16.5508H67.8992ZM63.53 7.38862L61.592 11.4233L65.4418 11.4221L63.53 7.38862ZM35.4417 10.6167C35.4417 14.6577 32.7284 16.7909 28.5731 16.7909C24.4509 16.7909 21.738 14.6577 21.738 10.6167V1.36986H25.7224V11.0365C25.7224 12.5254 27.0609 13.4605 28.6078 13.4605C30.0825 13.4605 31.4581 12.5254 31.4581 11.0365V1.36986H35.4417V10.6167Z" fill="white"/>
</g>
<defs>
<clipPath id="clip0_26_332">
<rect width="129" height="17" fill="white" transform="translate(0 0.5)"/>
</clipPath>
</defs>
</svg>
