<svg width="26" height="30" viewBox="0 0 26 30" fill="none" xmlns="http://www.w3.org/2000/svg">
<g id="Neverfinal Logo 1" clip-path="url(#clip0_26_336)">
<g id="Group">
<path id="Vector" d="M16.1507 0.5C16.4306 0.520605 16.7097 0.541974 16.9873 0.562579C17.4882 0.598447 17.9065 0.825105 18.311 1.09908C19.1881 1.69358 19.9276 2.43308 20.5807 3.25195C21.4119 4.29213 22.2225 5.34758 23.0132 6.41905C23.9645 7.71489 24.7009 9.13284 25.37 10.5874C25.578 11.04 25.7998 11.4849 25.8701 11.9809C25.9099 12.2114 25.9099 12.4472 25.8701 12.6777C25.7715 13.1707 25.63 13.6553 25.5054 14.1437C25.0703 15.8524 24.59 17.5489 24.041 19.2256C23.6747 20.3429 23.3214 21.4655 22.8641 22.5507C22.6263 23.1162 22.3701 23.6741 22.1055 24.2273C21.8409 24.789 21.4127 25.2172 20.8713 25.5293C19.6332 26.2428 18.3416 26.861 17.008 27.3799C16.2035 27.6928 15.4021 28.0157 14.5846 28.2904C13.511 28.6529 12.4251 28.9849 11.3377 29.3084C10.7603 29.4779 10.1654 29.5809 9.56432 29.616C9.34179 29.629 9.12232 29.5603 8.94643 29.4229C8.57326 29.1459 8.20543 28.8628 7.84143 28.5743C7.04308 27.9432 6.36861 27.1861 5.6452 26.4764C4.77573 25.6262 3.95826 24.7257 3.19585 23.7801C2.38832 22.7751 1.61596 21.744 0.846671 20.7077C0.570612 20.3375 0.336612 19.9346 0.1072 19.5324C0.0353176 19.3912 -0.00138824 19.2348 0.000141176 19.076C-0.00291765 18.4541 0.0437294 17.8328 0.140082 17.2193C0.322082 15.9875 0.604259 14.7772 0.896376 13.5683C1.19538 12.3358 1.47067 11.0964 1.81861 9.87768C2.15738 8.69861 2.56114 7.53861 3.02838 6.40303C3.17826 6.03747 3.31361 5.66658 3.4482 5.29492C3.58585 4.89503 3.83514 4.54168 4.16702 4.27687C4.67785 3.87163 5.21085 3.50608 5.80655 3.22753C7.09585 2.62234 8.42567 2.11713 9.77308 1.66458C10.7695 1.32803 11.798 1.11434 12.8273 0.902184C13.6478 0.726658 14.4791 0.603026 15.3157 0.532053C15.5933 0.509921 15.8754 0.528237 16.1553 0.528237L16.1507 0.5ZM6.66532 20.0597L6.64926 20.0948C6.61255 20.0811 6.57432 20.0689 6.53838 20.0513C5.43491 19.5156 4.32991 18.9799 3.22567 18.4441C3.10638 18.3823 2.98173 18.3319 2.85249 18.2946C2.68732 18.2533 2.52902 18.2854 2.41661 18.4281C2.30344 18.5708 2.30649 18.7265 2.38449 18.8791C2.45408 19.0134 2.53208 19.1432 2.61773 19.2683C3.80761 21.032 5.17567 22.6575 6.58885 24.2457C6.83508 24.5234 7.11343 24.7707 7.38491 25.0241C7.4782 25.1103 7.58296 25.1821 7.69691 25.2378C7.77185 25.2797 7.85826 25.295 7.94314 25.2813C8.02802 25.2675 8.10526 25.2256 8.16338 25.163C8.21767 25.1019 8.24979 25.0256 8.25591 24.9447C8.26202 24.8646 8.24138 24.7837 8.19702 24.7165C8.11214 24.5807 8.01655 24.4525 7.91102 24.3319C7.6082 23.9801 7.29544 23.6382 6.99644 23.2833C6.15449 22.2843 5.31561 21.2816 4.47902 20.2765C4.41708 20.2024 4.36049 20.1246 4.30238 20.0483C4.38191 20.046 4.46067 20.0651 4.53102 20.1032C5.89985 20.7557 7.26714 21.4082 8.63291 22.0607C8.70861 22.0974 8.78891 22.1248 8.87149 22.1416C8.95102 22.1599 9.03361 22.1554 9.11008 22.1294C9.18732 22.1027 9.25461 22.0554 9.30585 21.9921C9.36473 21.9302 9.40296 21.8516 9.4152 21.7677C9.42743 21.683 9.41367 21.5975 9.37543 21.5212C9.32267 21.4166 9.25385 21.3197 9.17279 21.235C7.71602 19.6972 6.33038 18.0977 4.97608 16.4698C4.80326 16.2623 4.61285 16.0707 4.44002 15.8639C4.07679 15.4312 3.7212 14.9931 3.36255 14.5581C3.2272 14.3818 3.02991 14.262 2.81044 14.2239C2.54355 14.1804 2.35085 14.3734 2.42502 14.6306C2.47396 14.7825 2.54967 14.9237 2.65061 15.0473C3.06432 15.5792 3.49026 16.1012 3.91008 16.6301C4.46373 17.3314 5.0082 18.0404 5.56643 18.7379C5.92202 19.1874 6.29749 19.6202 6.66532 20.0597ZM21.4792 16.5691C21.4647 16.55 21.4524 16.5294 21.4425 16.508C21.3041 15.7395 21.1664 14.971 21.0303 14.2017C20.9646 13.8316 20.9095 13.4554 20.8399 13.0837C20.7933 12.8326 20.6556 12.6953 20.4568 12.6708C20.258 12.6457 20.0981 12.7494 19.9972 12.9921C19.9284 13.1638 19.8695 13.3394 19.8206 13.5172C19.5583 14.4383 19.2921 15.3587 19.0428 16.2836C18.7874 17.2322 18.5435 18.1839 18.311 19.1386C18.2498 19.3889 18.2414 19.6545 18.2376 19.9132C18.2346 20.0742 18.3355 20.1979 18.5037 20.2429C18.6437 20.2811 18.792 20.2147 18.8815 20.0521C18.9541 19.9201 19.013 19.7804 19.0574 19.6354C19.1897 19.2019 19.312 18.7654 19.4359 18.3289C19.6928 17.423 19.949 16.5179 20.2044 15.6128C20.2258 15.5357 20.2511 15.4594 20.2733 15.3816C20.3184 15.4579 20.349 15.5418 20.3627 15.6288C20.583 16.7675 20.7382 17.9176 20.8292 19.073C20.8445 19.2737 20.8628 19.4752 20.8919 19.6743C20.9256 19.8979 21.0632 20.0399 21.259 20.0742C21.4639 20.1101 21.6497 20.0139 21.7576 19.8071C21.7958 19.7323 21.8256 19.6537 21.8478 19.5721C21.9334 19.2561 22.0244 18.9409 22.0948 18.6212C22.3196 17.6123 22.5391 16.6026 22.754 15.5922C22.9291 14.7711 23.1004 13.9491 23.2671 13.1257C23.2961 12.986 23.3114 12.8433 23.3137 12.7014C23.3137 12.4808 23.2067 12.3267 23.0476 12.2885C22.8886 12.2503 22.7211 12.3282 22.6048 12.5129C22.5643 12.577 22.5307 12.6449 22.5039 12.7159C22.455 12.841 22.4129 12.9692 22.377 13.0982C22.0971 14.1888 21.818 15.2793 21.5404 16.3706C21.5274 16.4332 21.5037 16.4927 21.4792 16.5691ZM17.7176 6.99676C17.8423 7.03034 17.9218 7.04713 17.9975 7.07308C19.0895 7.44321 20.0576 8.02016 20.8728 8.83063C21.1901 9.14429 21.4601 9.50374 21.7553 9.83876C21.8616 9.9685 21.9801 10.0883 22.1086 10.1974C22.2324 10.2951 22.3884 10.3264 22.5368 10.2326C22.692 10.1326 22.7295 9.97079 22.6806 9.80976C22.6331 9.64874 22.5628 9.49534 22.4726 9.35416C21.4991 7.87134 20.1784 6.81055 18.5106 6.17332C18.4571 6.15271 18.4058 6.12676 18.3431 6.10082C18.3569 6.06647 18.3722 6.03289 18.3898 6.00008C18.6307 5.61545 18.6819 5.20105 18.5932 4.763C18.5076 4.31579 18.3332 3.88995 18.0801 3.51066C17.5226 2.6895 16.7365 2.31021 15.7439 2.33005C15.321 2.33845 15.0908 2.56434 15.1581 3.07032C15.1688 3.14511 15.1872 3.21837 15.2132 3.29011C15.3065 3.56026 15.3845 3.83653 15.5007 4.09676C16.0345 5.29492 16.5751 6.49079 17.1211 7.68361C17.411 8.31855 17.7176 8.94587 18.012 9.58082C18.1397 9.85479 18.2453 10.1387 18.3821 10.4088C18.4456 10.5371 18.5351 10.6508 18.6437 10.7431C18.8769 10.9347 19.1499 10.8255 19.1797 10.5279C19.1943 10.3776 19.1736 10.2257 19.1201 10.0845C18.9679 9.693 18.8004 9.3076 18.623 8.92832C18.4043 8.45516 18.1673 7.98963 17.9424 7.51953C17.8683 7.3585 17.804 7.19747 17.7176 6.99676ZM6.74255 13.6813H6.71808C6.71808 13.4706 6.72879 13.2608 6.71808 13.0517C6.65767 12.0336 6.51773 11.0323 6.1262 10.0753C5.96026 9.67926 5.72091 9.31676 5.42114 9.00845C5.29726 8.881 5.15579 8.77187 5.00132 8.6841C4.69314 8.50629 4.37349 8.52461 4.09514 8.73829C3.94526 8.85963 3.81832 9.00692 3.7212 9.17329C3.54685 9.461 3.49638 9.78534 3.50402 10.1188C3.5132 10.5332 3.56214 10.9438 3.70591 11.3323C3.88332 11.8131 4.0722 12.29 4.28632 12.7556C4.73291 13.7301 5.26285 14.6573 5.97173 15.4732C6.63396 16.2356 7.42544 16.8041 8.42796 17.0506C8.70632 17.1262 8.99538 17.1552 9.28367 17.1376C9.60638 17.1101 9.91149 16.9812 10.1554 16.7705C10.4001 16.5591 10.5699 16.2768 10.6418 15.9639C10.7481 15.4808 10.6762 15.0069 10.5248 14.5497C10.4567 14.3696 10.3443 14.2094 10.1983 14.0827C10.0056 13.9094 9.76238 13.9903 9.66832 14.2338C9.63773 14.3116 9.6232 14.3956 9.62779 14.4788C9.64232 14.6642 9.66985 14.8451 9.69967 15.0267C9.7402 15.2694 9.76314 15.5106 9.69126 15.7502C9.66144 15.8647 9.59567 15.9669 9.50391 16.0417C9.41138 16.1173 9.29743 16.1608 9.17814 16.1669C9.07644 16.1737 8.97473 16.1684 8.87455 16.1501C8.10985 16.0119 7.40632 15.6449 6.85802 15.0984C6.81596 15.0588 6.78308 15.0099 6.76244 14.9557C6.74179 14.9016 6.73414 14.8436 6.73949 14.7863C6.74867 14.42 6.74255 14.0499 6.74255 13.6813ZM10.9003 10.6851L10.862 10.7049C10.8353 10.6851 10.81 10.6645 10.7863 10.6416C9.70426 9.4816 8.62144 8.32389 7.47361 7.228C7.03391 6.80903 6.58732 6.39845 6.13614 5.99092C6.04055 5.9085 5.93273 5.84134 5.81573 5.7925C5.76526 5.76884 5.70791 5.76197 5.65285 5.77342C5.59779 5.78487 5.54885 5.81387 5.51214 5.85584C5.42802 5.94895 5.42802 6.05655 5.47238 6.16263C5.50296 6.23208 5.54273 6.29695 5.59014 6.35571C5.69643 6.48697 5.80349 6.61671 5.91973 6.73958C7.29849 8.19874 8.67267 9.664 10.0614 11.1117C10.5867 11.6589 11.1557 12.1649 11.7055 12.6884C11.7483 12.7296 11.795 12.7655 11.8454 12.7975C11.912 12.8426 11.9907 12.8693 12.071 12.8723C12.1521 12.8754 12.2324 12.8563 12.3027 12.8166C12.3731 12.7769 12.4304 12.7182 12.4687 12.6472C12.5069 12.5762 12.5245 12.4961 12.5184 12.4159C12.5107 12.316 12.4893 12.2168 12.4541 12.1221C12.3494 11.8207 12.2354 11.5208 12.1268 11.2216C11.6527 9.89218 11.1794 8.562 10.7068 7.23105C10.394 6.34426 10.0293 5.47274 9.79679 4.56C9.76773 4.45468 9.72338 4.35395 9.66373 4.26161C9.55744 4.09218 9.38843 4.02808 9.23014 4.07921C9.08791 4.125 8.98926 4.26847 8.99002 4.45774C8.99002 4.56763 9.00455 4.676 9.03361 4.78208C9.27602 5.65589 9.50008 6.53582 9.77614 7.39971C10.1027 8.42463 10.4766 9.43582 10.8261 10.4516C10.8521 10.5279 10.875 10.6065 10.9003 10.6851ZM14.4355 5.28195C14.463 4.74926 14.3812 4.21582 14.1946 3.71518C13.9851 3.13595 13.5874 2.75513 12.9588 2.63989C12.6377 2.58037 12.3586 2.66966 12.1681 2.92684C12.0412 3.10389 11.9418 3.29926 11.8745 3.50608C11.6833 4.07463 11.6718 4.66303 11.7346 5.25218C11.8691 6.49537 12.3624 7.59813 13.1041 8.59939C14.0539 9.87921 15.2805 10.8271 16.7097 11.5261C16.8229 11.5818 16.9453 11.6192 17.0707 11.6375C17.2358 11.6612 17.3995 11.6299 17.4997 11.478C17.606 11.3162 17.567 11.143 17.4614 11.0056C17.3597 10.8721 17.2358 10.7568 17.0951 10.6653C16.7893 10.4691 16.4696 10.2951 16.153 10.115C15.2767 9.61974 14.5831 8.92221 13.9446 8.16287C13.8597 8.0629 13.8727 7.97818 13.914 7.866C14.0073 7.60576 14.1143 7.344 14.1633 7.07384C14.2718 6.48011 14.3468 5.8795 14.4355 5.28195ZM13.6593 25.1386C13.6593 25.324 13.6654 25.4812 13.6593 25.6377C13.6456 25.8307 13.6823 26.0253 13.7656 26.2009C13.8291 26.3291 13.9277 26.4168 14.0807 26.4222C14.2443 26.4283 14.3498 26.339 14.4225 26.2032C14.5043 26.0368 14.5403 25.8529 14.5288 25.6682C14.515 25.0203 14.4997 24.3731 14.4936 23.7282C14.486 22.7377 14.4867 21.7463 14.4814 20.755C14.4844 20.6542 14.4753 20.5535 14.4538 20.4551C14.4401 20.3841 14.4041 20.3192 14.3514 20.2696C14.2978 20.22 14.2313 20.1879 14.1587 20.1773C14.0103 20.1513 13.8926 20.2162 13.81 20.336C13.7541 20.4207 13.7029 20.5077 13.6563 20.597C13.1821 21.4701 12.7088 22.3423 12.2354 23.2162C11.7009 24.1991 11.1656 25.1828 10.6303 26.1658C10.55 26.3138 10.4804 26.4672 10.42 26.6244C10.381 26.7259 10.3588 26.8335 10.3543 26.9419C10.3497 27.0144 10.3688 27.0861 10.4086 27.1472C10.4476 27.2075 10.5057 27.2548 10.5745 27.28C10.7274 27.3433 10.8582 27.2952 10.9676 27.1876C11.0203 27.1327 11.0654 27.0724 11.1029 27.006C11.3254 26.6382 11.5541 26.2749 11.759 25.8956C11.7911 25.8284 11.8408 25.7712 11.9036 25.7308C11.9663 25.6896 12.0389 25.6674 12.1138 25.6644C12.24 25.6522 12.3647 25.6239 12.484 25.5819C12.8656 25.4415 13.2441 25.2942 13.6593 25.1386ZM12.7386 17.2589C12.7524 17.1719 12.7585 17.1071 12.7738 17.0437C12.8908 16.5355 13.0154 16.0303 13.1263 15.5212C13.2318 15.0382 13.2265 15.0374 13.7044 14.8741C13.7366 14.8634 13.7694 14.8542 13.8008 14.842C14.3139 14.6467 14.8339 14.4612 15.3409 14.2513C15.5046 14.1827 15.6506 14.0804 15.7707 13.9507C15.9435 13.7606 15.8502 13.4943 15.5963 13.4477C15.4296 13.421 15.2598 13.4279 15.0954 13.4683C14.7819 13.5393 14.4722 13.6294 14.1694 13.7377C13.8038 13.8705 13.4437 14.0232 13.0919 14.1872C12.9673 14.2429 12.8579 14.3261 12.7715 14.4299C12.6851 14.5345 12.6239 14.6573 12.5933 14.7886C12.0909 16.7255 11.5288 18.6456 11.1144 20.6031C11.0188 21.0549 10.9117 21.5052 10.8307 21.96C10.8024 22.1164 10.8131 22.2767 10.8597 22.4286C10.9431 22.6804 11.2245 22.7377 11.4103 22.5476C11.5028 22.4499 11.5709 22.3324 11.6091 22.2034C11.7078 21.8646 11.7957 21.5219 11.8653 21.177C12.0098 20.4772 12.1353 19.7743 12.2806 19.0745C12.3356 18.8066 12.4205 18.5441 12.4817 18.3274C12.7891 18.2327 13.0491 18.1595 13.3037 18.0717C13.5668 17.9794 13.826 17.8748 14.0868 17.7733C14.2046 17.7275 14.333 17.6939 14.4347 17.623C14.5479 17.5512 14.6435 17.4551 14.7154 17.3421C14.8385 17.1284 14.7177 16.8858 14.4714 16.843C14.3468 16.8209 14.2183 16.8262 14.0952 16.8583C13.7037 16.9651 13.316 17.0895 12.929 17.2071C12.8732 17.2238 12.8181 17.2376 12.7386 17.2589ZM16.3901 24.4242C16.41 24.3037 16.4168 24.2464 16.4291 24.1899C16.5598 23.6176 16.6983 23.0467 16.8206 22.4721C16.8787 22.1928 16.9216 21.9112 16.9491 21.6273C16.9659 21.4578 16.8803 21.3457 16.7579 21.3067C16.6248 21.2648 16.4933 21.322 16.4038 21.4823C16.3427 21.6021 16.2891 21.7257 16.2448 21.8524C15.8953 22.7743 15.6934 23.7359 15.4839 24.6952C15.4518 24.8432 15.4151 24.9897 15.396 25.1393C15.3493 25.5018 15.6384 25.7338 15.9901 25.6216C16.046 25.6041 16.101 25.5804 16.1523 25.5514C16.5484 25.3248 16.9483 25.1042 17.3368 24.8653C17.4706 24.7783 17.5891 24.67 17.6886 24.5448C17.7428 24.4845 17.775 24.4082 17.7811 24.3273C17.7872 24.2464 17.7666 24.1663 17.7222 24.0984C17.6824 24.0266 17.6182 23.9717 17.5417 23.9419C17.4653 23.9122 17.3804 23.9099 17.3024 23.9351C17.1418 23.9839 16.9873 24.0503 16.8413 24.1335C16.7021 24.2075 16.5744 24.3037 16.3901 24.4242ZM17.5738 16.4798C17.5624 16.3462 17.5631 16.2607 17.5463 16.1791C17.5142 16.0264 17.4224 15.9196 17.2626 15.8921C17.1036 15.8647 16.9789 15.9379 16.8994 16.0699C16.8481 16.1569 16.8099 16.2501 16.7854 16.3477C16.7021 16.6904 16.6241 17.0338 16.5522 17.378C16.4421 17.8947 16.3411 18.4136 16.2295 18.9303C16.1706 19.2004 16.0842 19.4652 16.0322 19.7369C15.9993 19.9094 15.9886 20.0849 16.0008 20.2597C16.0024 20.3322 16.0276 20.4024 16.0727 20.4596C16.1178 20.5161 16.1813 20.5573 16.2524 20.5749C16.4 20.6146 16.5193 20.5482 16.6141 20.4444C16.6768 20.3764 16.7288 20.2994 16.7686 20.2162C16.8229 20.1025 16.865 19.9834 16.8948 19.8613C17.0493 19.1821 17.2053 18.5029 17.3444 17.8206C17.4362 17.3612 17.5012 16.8957 17.5738 16.4798ZM17.8499 14.5459C17.8453 14.3147 17.6603 14.1468 17.414 14.1498C17.177 14.1521 17.0049 14.3284 17.0041 14.5703C17.0018 14.6253 17.011 14.6802 17.0309 14.7314C17.0508 14.7825 17.0814 14.8291 17.1204 14.868C17.1594 14.9077 17.206 14.9382 17.2573 14.9588C17.3085 14.9786 17.3636 14.9886 17.4194 14.987C17.5348 14.9847 17.645 14.9374 17.726 14.8542C17.8063 14.7718 17.8514 14.6612 17.8499 14.5459ZM18.9228 24.0816C18.9763 24.0801 19.0283 24.0678 19.0773 24.0457C19.1254 24.0243 19.169 23.9931 19.205 23.9541C19.2417 23.9152 19.2692 23.8694 19.2876 23.8198C19.3059 23.7702 19.3136 23.7176 19.3113 23.6649C19.3082 23.5672 19.2677 23.4741 19.1973 23.4047C19.127 23.336 19.0321 23.2963 18.9335 23.2948C18.88 23.294 18.828 23.3047 18.7783 23.3245C18.7293 23.3444 18.685 23.3734 18.6475 23.4108C18.61 23.4482 18.581 23.4924 18.5611 23.5413C18.5412 23.5901 18.5313 23.642 18.532 23.6947C18.532 23.7458 18.542 23.7962 18.5618 23.8427C18.581 23.89 18.61 23.9328 18.6467 23.9686C18.6827 24.0045 18.7255 24.0327 18.7737 24.0526C18.8211 24.0717 18.8716 24.0816 18.9228 24.0816ZM20.8139 22.3858C20.8651 22.3874 20.9156 22.3782 20.9623 22.3599C21.0097 22.3416 21.0525 22.3133 21.0884 22.2782C21.1251 22.2431 21.1534 22.2004 21.1726 22.1538C21.1917 22.1073 21.2016 22.0577 21.2008 22.0073C21.2024 21.9547 21.1932 21.9028 21.1741 21.8539C21.155 21.8051 21.1259 21.7608 21.0884 21.7234C21.0517 21.686 21.0074 21.6563 20.9592 21.6357C20.9103 21.6158 20.8575 21.6051 20.8047 21.6051C20.7068 21.6051 20.6128 21.6433 20.5432 21.712C20.4728 21.7799 20.4331 21.873 20.4316 21.9699C20.4293 22.0218 20.4369 22.0745 20.4545 22.1233C20.4728 22.1729 20.5004 22.2179 20.5356 22.2569C20.5715 22.295 20.6143 22.3263 20.6617 22.3484C20.7099 22.3706 20.7611 22.3836 20.8139 22.3858ZM20.5149 23.049C20.5134 22.9567 20.4767 22.8674 20.4117 22.801C20.3467 22.7338 20.2587 22.6942 20.1654 22.6903C20.0668 22.6888 19.9727 22.7254 19.9016 22.7926C19.8305 22.8598 19.7892 22.9513 19.7861 23.049C19.7831 23.2337 19.9421 23.3818 20.1509 23.3879C20.1968 23.3894 20.2427 23.3818 20.2863 23.3657C20.3291 23.3489 20.3688 23.3245 20.4025 23.2932C20.4361 23.2619 20.4629 23.2238 20.482 23.1818C20.5004 23.1398 20.5111 23.0948 20.5126 23.049H20.5149Z" fill="white"/>
<path id="Vector_2" d="M17.2984 5.79776L16.0902 3.22974C16.3731 3.25416 16.5865 3.30453 16.7899 3.40984C17.1631 3.60445 17.3864 3.92803 17.5477 4.29358C17.6334 4.49505 17.6976 4.70339 17.7396 4.91708C17.8146 5.27882 17.6647 5.57797 17.2984 5.79776Z" fill="white"/>
<path id="Vector_3" d="M5.88747 13.7751C5.85076 13.7392 5.81712 13.7003 5.78576 13.6591C5.31929 12.841 4.89182 12.0038 4.61041 11.1025C4.53165 10.8377 4.47506 10.5668 4.44218 10.2928C4.42765 10.1341 4.43988 9.97459 4.47659 9.82043C4.49647 9.72198 4.56988 9.63498 4.63029 9.5144C4.73965 9.59988 4.82453 9.6533 4.89565 9.72122C5.13424 9.96085 5.31547 10.2501 5.42635 10.5683C5.59459 11.0339 5.71006 11.5169 5.76971 12.0076C5.85076 12.5937 5.88976 13.1844 5.88747 13.7751Z" fill="white"/>
<path id="Vector_4" d="M12.8494 3.59985C12.9656 3.61664 13.0742 3.66625 13.1629 3.7418C13.2516 3.81735 13.3174 3.91656 13.3518 4.02722C13.4382 4.28746 13.533 4.5622 13.533 4.83083C13.5292 5.55201 13.455 6.27091 13.3105 6.97759C13.3005 7.00888 13.2883 7.04017 13.2745 7.06993C13.2394 7.03483 13.208 6.99591 13.1812 6.95393C12.8348 6.19688 12.6528 5.37496 12.6482 4.54312C12.6406 4.17833 12.7178 3.83338 12.8494 3.59985Z" fill="white"/>
<path id="Vector_5" d="M13.6951 22.2592V24.3876C13.2722 24.3319 12.9021 24.4739 12.4823 24.5975C12.8899 23.7878 13.2753 23.0185 13.6653 22.2493L13.6951 22.2592Z" fill="white"/>
</g>
</g>
<defs>
<clipPath id="clip0_26_336">
<rect width="26" height="29" fill="white" transform="translate(0 0.5)"/>
</clipPath>
</defs>
</svg>
