<svg width="84" height="77" viewBox="0 0 84 77" fill="none" xmlns="http://www.w3.org/2000/svg">
<g id="Group 40">
<g id="Group">
<path id="Vector" d="M41.9013 76.9857C32.7767 76.9857 23.6473 76.9907 14.5227 76.9857C11.6457 76.9857 8.76862 76.8969 5.8916 76.9364C2.03747 76.9907 0.246123 74.0576 0.260927 71.2282C0.349755 49.4672 0.359615 27.7062 0.251048 5.9501C0.231308 2.16773 2.70861 -0.00492943 6.15808 8.39846e-06C30.0823 0.0493867 54.0115 0.0395159 77.9357 0.00495105C81.4641 0.00495105 83.7638 2.27141 83.749 5.7822C83.6602 27.6222 83.7046 49.4672 83.7046 71.3072C83.7046 74.9119 81.706 76.9067 78.0393 76.9216C69.4872 76.9561 60.94 76.9759 52.3879 76.9956C48.894 77.0055 45.4001 76.9956 41.9063 76.9956L41.9013 76.9857ZM10.1751 73.5391C10.027 73.0305 9.92339 72.6454 9.80002 72.2652C8.0284 66.9125 7.54971 61.4316 8.51695 55.8963C9.67171 49.2845 12.4648 43.4035 17.1234 38.52C25.7248 29.4986 36.3101 25.9088 48.4795 28.2493C60.0764 30.4763 68.3226 37.3744 73.1982 48.1982C75.108 52.4348 75.9568 56.9283 75.9766 61.5353C75.9914 65.3028 75.4091 69.0358 74.0767 72.601C73.8003 73.3466 73.899 73.6082 74.7527 73.5638C76.0259 73.4996 77.3041 73.5589 78.5773 73.5441C79.6383 73.5293 80.2748 73.0059 80.3834 71.9245C80.4328 71.4356 80.4327 70.9369 80.4327 70.448C80.4327 53.0027 80.4328 35.5573 80.4426 18.107C80.4426 16.4726 80.4525 16.4775 78.7401 16.4775C54.2335 16.4775 29.7221 16.4775 5.21552 16.4775C3.62156 16.4775 3.60677 16.4726 3.60677 18.0577C3.60183 35.424 3.60183 52.7854 3.60183 70.1518C3.60183 70.769 3.61663 71.3862 3.66598 71.9985C3.74001 72.912 4.30258 73.47 5.16619 73.5095C6.79963 73.5836 8.43799 73.5293 10.18 73.5293L10.1751 73.5391ZM41.9605 13.0606C54.2928 13.0606 66.625 13.0408 78.9572 13.0902C80.1811 13.0951 80.487 12.7396 80.4377 11.5792C80.3489 9.64854 80.4229 7.7129 80.4229 5.7822C80.4229 3.96014 79.8899 3.41699 78.0887 3.41699C54.0016 3.41699 29.9145 3.41699 5.82746 3.41699C4.21375 3.41699 3.66104 3.91571 3.62649 5.52544C3.58208 7.50058 3.60183 9.4757 3.61663 11.4459C3.6265 13.0556 3.6413 13.0556 5.22046 13.0556C17.4688 13.0556 29.7171 13.0556 41.9704 13.0556L41.9605 13.0606ZM19.9856 59.8416C19.9856 59.8416 19.9856 59.8218 19.9856 59.807C22.4481 59.807 24.9155 59.7675 27.378 59.8317C28.2564 59.8564 28.4736 59.5552 28.5229 58.7355C28.7647 54.6174 28.9818 50.4893 29.8948 46.4403C30.0922 45.5663 29.4211 45.6601 28.898 45.6601C24.8316 45.6601 20.7653 45.67 16.694 45.6503C16.1907 45.6503 15.8502 45.7638 15.5935 46.223C13.3827 50.119 12.0306 54.2766 11.6308 58.7503C11.5519 59.6391 11.8628 59.8811 12.7116 59.8663C15.1346 59.8218 17.5576 59.8515 19.9806 59.8515L19.9856 59.8416ZM63.9355 59.8416V59.8218C66.3585 59.8218 68.7815 59.7823 71.2046 59.8416C72.1126 59.8613 72.458 59.6342 72.3692 58.6812C71.9497 54.2174 70.6371 50.0548 68.3917 46.1786C68.1894 45.828 67.9525 45.6453 67.5231 45.6453C63.294 45.6601 59.0598 45.6651 54.8307 45.6552C54.2237 45.6552 53.9967 45.8971 54.12 46.4749C55.0034 50.4844 55.2551 54.568 55.4722 58.6466C55.5265 59.6836 55.9163 59.8663 56.7898 59.8564C59.1734 59.8268 61.5569 59.8465 63.9355 59.8465V59.8416ZM20.0645 63.2339C17.5576 63.2339 15.0507 63.2586 12.5438 63.224C11.848 63.2141 11.5864 63.4116 11.6308 64.1276C11.8184 67.1693 12.5833 70.0728 13.669 72.9022C13.817 73.2824 14.0095 73.5687 14.5474 73.5638C19.2355 73.5391 23.9187 73.5441 28.6068 73.5589C29.125 73.5589 29.3075 73.4552 29.2286 72.8577C28.8486 69.9691 28.6561 67.0607 28.5525 64.1474C28.5229 63.3376 28.133 63.219 27.4668 63.224C24.9994 63.2437 22.532 63.2339 20.0695 63.2339H20.0645ZM62.4649 73.554C64.7251 73.554 66.9853 73.549 69.2504 73.5589C69.729 73.5589 70.1189 73.5391 70.3212 72.991C71.3822 70.1518 72.1817 67.2533 72.3692 64.2066C72.4087 63.5351 72.2557 63.2339 71.5253 63.2339C66.4671 63.2536 61.4138 63.2487 56.3555 63.2339C55.8028 63.2339 55.5314 63.3919 55.4919 63.9844C55.3143 66.8484 55.2452 69.7222 54.806 72.5614C54.6678 73.47 55.0626 73.5737 55.8028 73.5638C58.0235 73.5342 60.2442 73.5539 62.4649 73.549V73.554ZM40.2778 52.7805C40.2778 50.7659 40.2284 48.7512 40.2975 46.7415C40.3271 45.8379 40.0014 45.6157 39.1723 45.6404C37.6129 45.6898 36.0486 45.6799 34.4892 45.6404C33.7489 45.6206 33.4528 45.833 33.29 46.6279C32.4609 50.6918 32.2191 54.8149 31.9082 58.933C31.8391 59.8416 32.3622 59.8416 32.9643 59.8366C35.0567 59.8317 37.154 59.7675 39.2464 59.8268C40.0656 59.8515 40.3172 59.6441 40.2926 58.8195C40.2383 56.8048 40.2777 54.7902 40.2728 52.7805H40.2778ZM43.7272 52.7163C43.7272 54.7309 43.7618 56.7406 43.7075 58.7503C43.6877 59.5404 43.9098 59.8564 44.7191 59.8366C46.8954 59.7922 49.0668 59.7823 51.243 59.7971C51.8796 59.7971 52.1116 59.6046 52.0721 58.9429C51.8105 54.7408 51.4996 50.5486 50.6706 46.4057C50.5324 45.7243 50.2018 45.6503 49.6639 45.6503C47.9811 45.6601 46.2983 45.6749 44.6155 45.6404C43.9197 45.6256 43.6976 45.8576 43.7075 46.5588C43.747 48.6129 43.7223 50.6671 43.7223 52.7163H43.7272ZM40.2778 68.4433C40.2778 67.0064 40.2383 65.5695 40.2926 64.1326C40.3172 63.4215 40.0803 63.2092 39.3895 63.2191C37.1737 63.2487 34.958 63.2388 32.7422 63.2092C32.1105 63.1993 31.8589 63.4018 31.9181 64.0684C32.1747 66.9619 32.3968 69.8555 32.6336 72.7491C32.683 73.3614 33.0038 73.5688 33.6107 73.5589C35.5403 73.5293 37.4698 73.5243 39.3944 73.5589C40.11 73.5737 40.3074 73.3071 40.2876 72.6306C40.2481 71.2381 40.2777 69.8407 40.2728 68.4433H40.2778ZM65.6134 42.2283C61.0239 36.7474 55.5364 33.4538 48.7213 31.7453C50.4732 34.4068 51.6131 37.0584 52.5113 39.8137C53.0377 41.4235 54.1381 42.2283 55.8127 42.2283C58.9611 42.2283 62.1096 42.2283 65.6134 42.2283ZM47.9367 63.2487C47.9367 63.2487 47.9367 63.229 47.9367 63.2191C46.8313 63.2191 45.7209 63.2536 44.6155 63.2042C43.9049 63.1746 43.7075 63.4413 43.7124 64.1276C43.742 66.957 43.742 69.7864 43.7124 72.6207C43.7075 73.2626 43.8111 73.5885 44.5711 73.5687C46.4957 73.5194 48.4252 73.5243 50.3498 73.5687C51.0506 73.5836 51.3121 73.2626 51.3615 72.6503C51.5983 69.8012 51.8155 66.9471 52.0671 64.093C52.1214 63.4462 51.9092 63.2141 51.2529 63.2388C50.1475 63.2833 49.0421 63.2487 47.9317 63.2487H47.9367ZM18.4656 42.1444C19.0529 42.1839 19.4082 42.2333 19.7586 42.2333C23.0403 42.2333 26.3269 42.179 29.6086 42.2629C30.6153 42.2876 30.941 41.8728 31.1581 41.0482C31.9378 38.0658 33.1666 35.266 34.7112 32.5996C34.8297 32.3922 35.185 32.2391 34.9432 31.8391C28.4242 33.4736 22.9712 36.7819 18.4706 42.1444H18.4656ZM49.6787 42.2333C48.3561 38.2781 47.231 34.4118 43.7322 31.5133C43.7322 35.0438 43.7322 38.2485 43.7322 41.4531C43.7322 41.9123 43.7716 42.2481 44.3737 42.2382C46.091 42.2135 47.8084 42.2283 49.6836 42.2283L49.6787 42.2333ZM40.2778 31.5231C39.7793 31.928 39.503 32.1107 39.2809 32.3428C36.7493 34.9648 35.5995 38.2978 34.5237 41.6654C34.4053 42.0358 34.4941 42.2135 34.8889 42.2135C36.4927 42.2135 38.0916 42.2135 39.6954 42.2185C40.105 42.2185 40.2827 42.0308 40.2778 41.616C40.2728 38.3423 40.2778 35.0685 40.2778 31.5182V31.5231Z" fill="black"/>
<path id="Vector_2" d="M12.5734 6.62652C13.7627 6.62652 14.3944 7.26843 14.3993 8.23625C14.4043 9.20406 13.7775 9.84598 12.8152 9.8608C11.8085 9.88055 11.1127 9.18432 11.1571 8.18194C11.2015 7.14006 11.8085 6.66602 12.5734 6.62158V6.62652Z" fill="black"/>
<path id="Vector_3" d="M23.7262 9.85601C22.8231 9.84613 22.0681 9.11039 22.073 8.2364C22.073 7.37722 22.8429 6.62667 23.7311 6.61679C24.6737 6.60692 25.4781 7.39697 25.4386 8.30554C25.4041 9.19928 24.6688 9.86588 23.7262 9.85601Z" fill="black"/>
</g>
<path id="Vector_4" d="M75.3439 25.366C71.804 27.6383 71.064 30.9638 69.644 34.1333C68.954 31.1101 68.604 28.0966 65.104 26.702C67.104 24.7613 68.814 23.0254 69.844 19.7974C71.164 22.567 72.284 24.654 75.3439 25.3757V25.366Z" fill="black"/>
</g>
</svg>
