<svg width="78" height="77" viewBox="0 0 78 77" fill="none" xmlns="http://www.w3.org/2000/svg">
<g id="Group 42">
<g id="Group">
<path id="Vector" d="M39.0207 0.0461586C50.2977 0.0461586 61.5746 0.0461586 72.8562 0.0461586C75.4438 0.0461586 76.8523 0.950512 77.6093 3.0117C77.7744 3.46159 77.7882 3.90688 77.7882 4.36135C77.7882 27.1217 77.7882 49.882 77.7882 72.6423C77.7882 74.8918 76.1687 76.7234 73.9298 76.8244C71.0302 76.9575 68.1261 76.9897 65.222 76.9897C47.7514 77.0034 30.2808 77.0034 12.8102 76.9897C10.062 76.9897 7.30929 76.9392 4.56115 76.8703C1.90478 76.8015 0.26232 75.0662 0.26232 72.399C0.26232 49.9463 0.294441 27.4889 0.21186 5.03617C0.202684 2.20375 1.88643 -0.0272915 5.30898 0.000252302C16.5493 0.0966555 27.7895 0.0369773 39.0298 0.0369773L39.0207 0.0461586ZM39.1124 17.1187C27.7207 17.1187 16.3245 17.1187 4.93277 17.1279C3.08386 17.1279 3.32244 16.9121 3.32244 18.6841C3.30867 35.5914 3.30867 52.4987 3.30867 69.4105C3.30867 70.4067 3.32702 71.3983 3.3362 72.3945C3.34537 73.3998 3.87297 73.8405 4.85019 73.8313C6.22655 73.8221 7.6075 73.7579 8.97928 73.8543C10.0483 73.9277 10.4061 73.5926 10.2409 72.5368C9.9932 70.953 10.6263 69.9798 12.1954 69.4105C13.9801 68.7587 15.6592 67.813 17.421 67.0923C18.1 66.8122 18.1458 66.5093 17.9119 65.9125C17.1503 63.9615 16.4621 61.9737 15.6684 60.0365C15.2417 59.0036 15.4206 58.2324 16.2143 57.4703C17.8935 55.8544 19.5589 54.2202 21.1693 52.5308C21.9492 51.7091 22.7383 51.6127 23.7385 52.0075C25.6516 52.7557 27.606 53.3938 29.5008 54.188C30.2899 54.5185 30.5423 54.2844 30.8359 53.605C31.6663 51.677 32.5793 49.7856 33.428 47.8667C33.8318 46.9532 34.4695 46.5263 35.4742 46.5354C37.8049 46.5584 40.1401 46.5676 42.4707 46.5354C43.5672 46.5171 44.2554 46.9624 44.6867 47.9723C45.4529 49.7627 46.3429 51.4979 47.0448 53.3112C47.4669 54.4084 48.0083 54.4864 48.9855 54.0779C50.8115 53.3158 52.6879 52.6685 54.5323 51.9478C55.3214 51.6402 56.0096 51.677 56.6289 52.2967C58.4365 54.11 60.2533 55.9141 62.061 57.7274C62.662 58.3288 62.7812 58.9898 62.4463 59.8161C61.6389 61.8314 60.9277 63.888 60.1294 65.9079C59.8771 66.546 59.9918 66.8306 60.6341 67.0969C62.1114 67.712 63.5153 68.5246 65.0201 69.0387C66.9929 69.7135 68.2041 70.7556 67.7912 73.028C67.6673 73.6982 68.0481 73.868 68.6675 73.8497C69.9291 73.813 71.1908 73.8359 72.4525 73.8359C74.5308 73.8359 74.7464 73.6201 74.7464 71.5498C74.7464 53.8759 74.7418 36.2019 74.7877 18.528C74.7877 17.3069 74.4069 17.0958 73.2966 17.1003C61.905 17.1417 50.5133 17.1233 39.117 17.1233L39.1124 17.1187ZM38.984 13.9328C40.8558 13.9328 42.7277 13.9328 44.5995 13.9328C54.1928 13.9328 63.7814 13.9236 73.3746 13.9604C74.3564 13.9604 74.7923 13.7997 74.7556 12.6704C74.6684 10.0721 74.7372 7.4692 74.7281 4.87091C74.7281 3.46159 74.3794 3.13106 72.9526 3.13106C50.3298 3.13106 27.707 3.13106 5.08418 3.13106C3.66194 3.13106 3.32702 3.44781 3.31784 4.88468C3.30408 7.48298 3.34996 10.0859 3.30408 12.6842C3.28573 13.6482 3.54723 13.9649 4.58868 13.9604C16.0538 13.919 27.5189 13.9328 38.9794 13.9328H38.984ZM57.6382 73.8221C59.6248 73.8221 61.6159 73.8405 63.6025 73.8084C63.9833 73.8038 64.5935 74.1114 64.699 73.3723C64.7907 72.7388 64.7127 72.2567 63.9603 71.9446C61.882 71.0861 59.8496 70.1221 57.8034 69.1902C56.3445 68.5246 56.1013 67.914 56.6702 66.3761C57.4501 64.269 58.2163 62.1528 59.0375 60.0594C59.2532 59.5086 59.1844 59.1597 58.7623 58.7557C57.7071 57.7549 56.6748 56.7312 55.6792 55.6754C55.2204 55.1888 54.8167 55.1016 54.179 55.354C52.0915 56.1895 49.9765 56.9516 47.8707 57.732C46.3934 58.2783 45.852 58.0396 45.1913 56.5706C44.2829 54.5553 43.3516 52.5492 42.4753 50.5155C42.2138 49.9004 41.8881 49.6479 41.1999 49.6754C39.7868 49.7305 38.3692 49.7213 36.9561 49.6754C36.2496 49.6525 35.855 49.8774 35.5706 50.5477C34.7126 52.5446 33.7997 54.5186 32.8913 56.4925C32.1572 58.0901 31.5929 58.3104 29.9229 57.6723C27.9685 56.924 26.0049 56.1987 24.0642 55.4137C23.3301 55.1153 22.8025 55.1658 22.252 55.7902C21.4399 56.7037 20.5866 57.5897 19.6552 58.3793C18.8891 59.0265 18.779 59.6279 19.1644 60.5414C19.9535 62.4374 20.6325 64.3838 21.3482 66.3119C21.9538 67.9553 21.7427 68.4924 20.1874 69.204C18.1091 70.1588 16.0308 71.1137 13.9296 72.018C13.2093 72.3302 13.2827 72.8902 13.3423 73.4411C13.4066 74.0333 13.9296 73.8084 14.2553 73.8084C18.3064 73.8221 22.3575 73.7992 26.4086 73.8267C27.161 73.8313 27.4317 73.6064 27.5831 72.8352C28.6337 67.5238 33.5611 63.6034 39.0436 63.6447C44.6087 63.686 49.4214 67.5605 50.4536 72.8994C50.5959 73.6247 50.8482 73.8451 51.5593 73.8313C53.5826 73.79 55.6104 73.8175 57.6382 73.8175V73.8221ZM38.9564 73.813V73.8038C41.4385 73.8038 43.9159 73.7533 46.3934 73.8267C47.4073 73.8543 47.5082 73.5467 47.2421 72.6791C46.1869 69.181 42.6084 66.6332 38.7821 66.7159C35.0338 66.7939 31.6479 69.4794 30.6983 73.0234C30.478 73.8451 30.8451 73.8221 31.3956 73.8175C33.9144 73.813 36.4331 73.8175 38.9518 73.8175L38.9564 73.813Z" fill="black"/>
<path id="Vector_2" d="M23.1879 8.56633C23.1971 9.40182 22.4171 10.1822 21.5776 10.1226C20.6462 10.0583 20.137 9.48905 20.0498 8.58928C19.9764 7.81347 20.738 7.06519 21.5409 7.03765C22.3988 7.00552 23.1787 7.73083 23.1833 8.56174L23.1879 8.56633Z" fill="black"/>
<path id="Vector_3" d="M13.5671 7.04231C14.393 7.07445 15.0903 7.79518 15.0674 8.60772C15.0398 9.48912 14.2737 10.1869 13.402 10.1272C12.5762 10.0675 11.9201 9.32386 11.966 8.50672C12.0119 7.69418 12.7597 7.01477 13.5671 7.04231Z" fill="black"/>
<path id="Vector_4" d="M31.2167 8.58941C31.2121 9.46163 30.5836 10.1181 29.7394 10.1365C28.9457 10.1548 28.2208 9.44327 28.2071 8.63073C28.1887 7.74015 28.7897 7.07451 29.6339 7.04696C30.5331 7.01942 31.2259 7.68965 31.2167 8.58941Z" fill="black"/>
</g>
<path id="Vector_5" d="M66.8514 31.8276C60.9274 35.7509 59.6891 41.4926 57.3129 46.965C56.1582 41.7452 55.5725 36.5423 49.7155 34.1344C53.0623 30.7837 55.9239 27.7865 57.6475 22.2131C59.8564 26.9951 61.7307 30.5985 66.8514 31.8445V31.8276Z" fill="black"/>
</g>
</svg>
