<svg width="78" height="77" viewBox="0 0 78 77" fill="none" xmlns="http://www.w3.org/2000/svg">
<g id="Group 41">
<g id="Group">
<path id="Vector" d="M0.548531 38.4538C0.548531 31.7997 0.548531 25.1411 0.548531 18.487C0.548531 14.1173 0.539294 9.75216 0.539294 5.38242C0.539294 1.98835 2.54955 0 5.96469 0C27.9713 0 49.9779 0.00461899 71.9891 0.00924306C75.4551 0.00924306 77.4653 1.98835 77.4653 5.43328C77.4653 27.4531 77.4653 49.4729 77.4653 71.4927C77.4653 75.0394 75.5151 76.9954 71.9799 77C49.9733 77 27.9667 77 5.95545 77C2.50334 77 0.539289 75.0117 0.534668 71.5251C0.534668 60.5013 0.534668 49.4729 0.534668 38.4491H0.54392L0.548531 38.4538ZM39.0023 17.7287C27.5692 17.7287 16.1408 17.7333 4.70769 17.7148C3.99602 17.7148 3.76958 17.8628 3.7742 18.6165C3.79731 36.2435 3.79268 53.8704 3.7973 71.4974C3.7973 73.3516 4.19936 73.7354 6.07561 73.7354C27.8234 73.7354 49.5712 73.7354 71.3236 73.7354C71.7627 73.7354 72.2017 73.7539 72.6407 73.7354C73.5834 73.6984 74.1426 73.1435 74.1981 72.191C74.2212 71.7794 74.2119 71.3679 74.2119 70.961C74.2166 53.5698 74.2166 36.1787 74.2489 18.7876C74.2489 17.9691 74.0825 17.7102 73.2091 17.7148C61.8084 17.7472 50.403 17.7379 39.0023 17.7379V17.7287ZM39.0069 14.4086V14.4178C50.4308 14.4178 61.8592 14.4132 73.2831 14.4317C73.9855 14.4317 74.2397 14.2884 74.2304 13.53C74.1842 10.7741 74.2258 8.01813 74.2119 5.26219C74.2027 3.74549 73.7267 3.28771 72.2063 3.28771C50.0287 3.28771 27.8511 3.28771 5.67356 3.29233C4.32876 3.29233 3.80192 3.79636 3.7973 5.12347C3.78344 7.90716 3.83428 10.6955 3.76034 13.4792C3.73723 14.3069 3.98678 14.4271 4.73081 14.4225C16.1546 14.3994 27.5831 14.4086 39.0069 14.4086Z" fill="black"/>
<path id="Vector_2" d="M38.4431 63.7383C28.3595 63.5903 19.3711 59.6321 11.903 52.1458C10.1423 50.384 8.51101 48.4974 6.80576 46.6847C6.50999 46.3703 6.44992 46.1761 6.78266 45.8293C9.34747 43.1334 11.6997 40.2388 14.5741 37.8481C19.8517 33.4645 25.7993 30.5144 32.5926 29.3583C42.1771 27.7307 51.0546 29.6173 59.2621 34.7685C63.1486 37.21 66.3604 40.4099 69.3688 43.8317C69.7385 44.2478 70.1036 44.6686 70.4826 45.0802C71.1973 45.8663 71.2112 46.64 70.5241 47.4015C67.3354 50.9666 64.119 54.4902 60.1031 57.1767C54.8811 60.6679 49.1969 62.8505 42.9304 63.5117C41.6133 63.6504 40.3009 63.6458 38.4477 63.729L38.4431 63.7383ZM38.9284 60.5246C41.4054 60.5616 43.8454 60.2702 46.2439 59.7385C54.7101 57.8703 61.3786 53.1492 66.8964 46.62C67.146 46.324 67.1321 46.1622 66.8872 45.8894C64.3177 42.9855 61.6235 40.2203 58.3794 38.0516C50.2783 32.6322 41.4331 30.7687 31.8855 32.7617C24.2465 34.3616 17.9477 38.3475 12.7349 44.1091C12.1064 44.8027 11.0435 45.4871 11.0019 46.2223C10.9557 47.0362 12.1018 47.6928 12.7441 48.4003C19.7685 56.1132 28.4195 60.3257 38.9237 60.5199L38.9284 60.5246Z" fill="black"/>
<path id="Vector_3" d="M18.2481 8.06437C20.6188 8.06437 22.9941 8.07824 25.3649 8.05512C25.9194 8.0505 26.2522 8.11524 26.1736 8.7996C26.0858 9.57644 26.4878 10.5984 26.0165 11.0839C25.5405 11.574 24.5192 11.2319 23.7382 11.2365C19.5189 11.2504 15.3043 11.2272 11.0851 11.2596C10.4011 11.2642 10.036 11.1625 10.147 10.3764C10.2486 9.63193 9.82808 8.63313 10.3272 8.19847C10.7523 7.82854 11.7182 8.07362 12.4483 8.06899C14.38 8.05975 16.3164 8.06899 18.2481 8.06899V8.06437Z" fill="black"/>
<path id="Vector_4" d="M32.6249 9.60868C32.628 10.6969 32.0842 11.241 30.9936 11.241C29.903 11.241 29.3577 10.6953 29.3577 9.60405C29.3546 8.57751 29.8706 8.06578 30.9058 8.06886C30.9659 8.06886 31.0213 8.06886 31.0814 8.06886C32.1104 8.06886 32.6265 8.58213 32.6295 9.60868H32.6249Z" fill="black"/>
<path id="Vector_5" d="M38.9977 9.69674C38.9977 10.7264 38.4817 11.2396 37.4496 11.2366C36.3651 11.2366 35.8213 10.6909 35.8183 9.59963C35.8152 8.57309 36.3328 8.05981 37.371 8.05981C38.4093 8.05981 38.9515 8.60546 38.9977 9.69674Z" fill="black"/>
<path id="Vector_6" d="M38.9469 57.3384C33.369 57.3337 28.5952 53.7362 27.3382 48.5896C26.2522 44.1551 28.2809 39.5727 32.4678 36.9878C37.542 33.8573 44.4416 34.8608 48.2819 39.286C53.2359 45.0014 50.9715 53.5374 43.7345 56.432C42.2002 57.047 40.6059 57.3754 38.9469 57.3384ZM30.305 46.0973C30.2958 47.3088 30.5038 48.3815 30.9982 49.3988C33.5215 54.5408 40.9386 55.7569 45.2411 51.7294C47.6811 49.4451 48.3697 46.236 47.0618 43.2488C45.8372 40.4513 42.3851 38.315 39.4044 38.5045C40.8832 42.2916 40.5597 44.5574 38.2675 46.4811C36.0308 48.3584 33.7248 48.2567 30.3004 46.0973H30.305ZM37.0845 42.3425C37.103 40.9507 36.6223 40.2571 35.7951 39.7299C34.9263 39.1796 34.2562 39.5681 33.6 40.0952C33.1887 40.4235 32.8005 40.7703 32.4031 41.1171C32.1212 41.3622 32.0103 41.6998 32.0242 42.0558C32.075 43.4708 33.2303 44.5251 34.6814 44.4927C36.0909 44.4603 37.0845 43.4107 37.0891 42.3379L37.0845 42.3425Z" fill="black"/>
</g>
<path id="Vector_7" d="M70.8561 64.029C67.541 66.1569 66.8481 69.2711 65.5183 72.2392C64.8721 69.4081 64.5444 66.5861 61.2668 65.2801C63.1397 63.4627 64.741 61.8371 65.7056 58.8142C66.9417 61.4079 67.9905 63.3623 70.8561 64.0381V64.029Z" fill="black"/>
</g>
</svg>
