<svg width="78" height="77" viewBox="0 0 78 77" fill="none" xmlns="http://www.w3.org/2000/svg">
<g id="Group 36">
<path id="Vector" d="M11.9373 15.9223C12.4869 15.9223 12.9552 15.9223 13.4236 15.9223C17.3986 15.9261 21.3736 15.9416 25.3486 15.9223C25.8673 15.9223 26.0647 16.0385 26.0183 16.5729C25.9486 17.3823 26.3472 18.4125 25.8634 18.9431C25.4106 19.4388 24.3733 19.098 23.5953 19.098C18.3507 19.1096 13.1101 19.0903 7.8655 19.1212C7.15333 19.1251 6.97915 18.9276 6.98302 18.2266C7.01399 12.4716 7.01012 6.71652 6.98689 0.965339C6.98689 0.283718 7.13784 -0.0299778 7.86937 0.0745891C8.60864 0.179156 9.56079 -0.258487 10.0523 0.256602C10.5013 0.732962 10.1878 1.66245 10.1917 2.39054C10.2072 5.6631 10.1917 8.93567 10.1994 12.2043C10.1994 12.3902 10.0988 12.5994 10.3581 12.8008C11.3838 11.7861 12.3824 10.7365 13.4739 9.78382C19.1636 4.80334 25.7202 1.49205 33.2019 0.531582C48.5834 -1.44357 61.0349 3.89709 70.3319 16.3405C73.9585 21.1971 76.2344 26.7236 77.0124 32.7227C78.8548 46.8896 74.3417 58.7482 63.5197 68.0856C58.1591 72.7137 51.8617 75.5176 44.8638 76.5478C36.0971 77.8413 27.7755 76.3774 20.0576 71.9275C11.8908 67.2142 6.16634 60.3981 2.8764 51.5641C0.848245 46.1227 0.244444 40.4877 0.763094 34.7133C0.914044 33.0286 1.24691 31.3866 1.6417 29.7483C1.79265 29.1287 2.09068 29.1055 2.57063 29.2449C3.18991 29.4192 3.80919 29.5896 4.43235 29.7522C4.76908 29.8374 4.88133 29.9885 4.77682 30.3603C3.85951 33.6212 3.69308 36.9596 3.84016 40.3173C4.08787 45.9485 5.60125 51.2388 8.47704 56.0798C13.8222 65.0803 21.6291 70.7812 31.886 72.8841C48.9046 76.3736 65.753 67.0826 71.9536 50.9173C74.0359 45.4876 74.7249 39.8565 74.0166 34.0937C72.1587 18.9625 60.9884 6.97212 46.6907 4.00939C33.0394 1.17834 21.5594 5.27581 12.1695 15.4846C12.1115 15.5466 12.0611 15.6124 12.0147 15.6822C11.9992 15.7054 11.9953 15.7364 11.9373 15.9339V15.9223Z" fill="black"/>
<path id="Vector_2" d="M46.8308 33.7496C40.5648 37.8414 39.255 43.8298 36.7415 49.5372C35.5202 44.0932 34.9006 38.6668 28.7054 36.1555C32.2455 32.6608 35.2723 29.5349 37.0955 23.7222C39.432 28.7096 41.4145 32.4677 46.8308 33.7672V33.7496Z" fill="black"/>
<path id="Vector_3" d="M55.0697 51.2713C52.2215 53.0995 51.6261 55.7751 50.4836 58.3253C49.9285 55.8928 49.6469 53.4683 46.8308 52.3462C48.44 50.7848 49.8158 49.3881 50.6445 46.7909C51.7066 49.0193 52.6077 50.6985 55.0697 51.2791V51.2713Z" fill="black"/>
</g>
</svg>
