<svg width="86" height="77" viewBox="0 0 86 77" fill="none" xmlns="http://www.w3.org/2000/svg">
<g id="Group 44">
<path id="Vector" d="M36.5571 61.6787C34.8125 62.7515 33.053 63.671 31.0357 62.5982C29.0745 61.5553 28.361 59.8434 28.6561 57.4772C26.8704 58.6696 25.096 59.0958 23.202 58.2809C22.0663 57.7912 21.2781 56.924 20.7738 55.8101C19.6269 53.2982 20.6131 51.1078 23.8931 48.9921C22.989 48.5622 22.1971 48.0464 21.6143 47.2651C21.42 47.0035 21.11 47.0745 20.8335 47.0857C18.1475 47.2053 15.5886 46.6895 13.1566 45.5494C13.0184 45.4821 12.8615 45.3476 12.7345 45.37C9.80945 45.8372 7.20192 44.3645 4.41135 44.0169C4.19842 43.9907 3.99295 43.9122 3.78001 43.8673C2.05412 43.5048 1.69549 42.9553 2.11015 41.2844C4.14985 32.9974 6.19702 24.7103 8.24045 16.427C8.30022 16.1878 8.35626 15.9448 8.43097 15.7094C8.74104 14.7076 9.34622 14.3786 10.3474 14.6777C13.0483 15.4776 15.7492 16.2663 18.4389 17.1036C19.0068 17.2793 19.5186 17.2643 20.064 17.1148C22.3054 16.5093 24.5506 15.9187 26.7882 15.3057C29.6423 14.5282 32.4217 14.8571 35.216 15.6981C40.9951 17.4438 46.8004 19.1071 52.5871 20.8191C53.0951 20.9686 53.521 20.9425 53.9991 20.6808C55.938 19.623 58.0374 19.1034 60.2378 19.0436C60.7234 19.0287 61.0484 18.9576 61.2091 18.4306C61.351 17.9596 61.7844 17.7316 62.2028 17.4998C64.3209 16.3224 66.4353 15.1337 68.5497 13.9488C70.0627 13.1003 70.7164 13.2573 71.5719 14.7823C74.9079 20.7182 78.229 26.6653 81.5575 32.6086C82.271 33.8833 82.9957 35.1542 83.7018 36.4326C84.3256 37.5614 84.1127 38.3576 82.9845 38.9968C80.7393 40.2677 78.483 41.5162 76.2303 42.7721C75.9315 42.9366 75.5953 43.2169 75.2852 43.0973C74.3289 42.7273 74.1309 43.4562 73.8059 44.0206C72.8383 45.6877 71.811 47.325 70.9294 49.0332C69.6406 51.5339 67.5299 53.0702 65.1652 54.4233C57.9851 58.5239 50.8499 62.6992 43.6849 66.8296C40.5207 68.65 37.0764 66.9866 36.5123 63.4243C36.4226 62.8636 36.7028 62.3328 36.5646 61.6824L36.5571 61.6787ZM29.4107 32.7021C34.1439 32.5376 37.7189 30.4556 39.8931 26.1868C40.3339 25.3234 40.7411 25.1888 41.619 25.4467C44.9438 26.4298 48.2835 27.368 51.6344 28.2614C53.6555 28.7997 55.5084 27.312 55.4934 25.2523C55.4822 23.6002 54.6006 22.6582 52.5422 22.0601C46.8154 20.3967 41.0923 18.7109 35.3617 17.0588C33.2846 16.4607 31.2151 15.7878 28.9848 16.1654C25.9851 16.6775 23.1123 17.6643 20.1574 18.3483C19.7576 18.4418 19.668 18.6997 19.5746 19.066C18.9395 21.5929 18.2596 24.1048 17.6096 26.6279C16.1639 32.2311 14.7294 37.838 13.2837 43.4412C13.1753 43.8673 13.1454 44.1813 13.6498 44.4131C15.7679 45.4036 17.9981 45.841 20.3255 45.8858C20.8261 45.8971 20.897 45.7475 20.8298 45.2205C20.6019 43.4113 21.2108 41.8264 22.7724 40.8807C24.6552 39.7406 26.6687 38.8136 28.6299 37.8044C28.884 37.6736 29.1716 37.6287 29.4107 37.8567C29.5714 38.0137 29.6722 38.2043 29.6012 38.4436C29.5004 38.78 29.209 38.9033 28.9288 39.0454C27.2365 39.9014 25.533 40.7349 23.8557 41.6171C22.3465 42.4095 21.689 43.9944 22.1597 45.5532C22.8022 47.6726 24.9727 48.5323 27.1245 47.4819C30.5875 45.7887 34.0393 44.0767 37.4948 42.3722C38.2195 42.0133 38.9368 41.6395 39.6727 41.3106C39.994 41.1685 40.3563 41.1386 40.5543 41.5461C40.7523 41.9498 40.5244 42.1927 40.2032 42.3834C40.0425 42.4768 39.8707 42.5478 39.7026 42.6301C34.3867 45.2616 29.067 47.8931 23.7548 50.5321C22.1111 51.3507 21.4238 52.6927 21.6741 54.513C21.8758 55.9821 23.0376 57.1109 24.6664 57.4249C25.7535 57.6342 26.6724 57.2006 27.5727 56.6848C32.5375 53.8439 37.5023 51.0068 42.4708 48.166C42.6575 48.0576 42.8406 47.9305 43.0386 47.8483C43.3412 47.7287 43.5877 47.8483 43.7633 48.1062C43.9538 48.3865 43.8866 48.6519 43.64 48.8463C43.4234 49.0182 43.1731 49.1528 42.934 49.2911C39.1609 51.4591 35.3804 53.6159 31.6148 55.7989C29.8478 56.8231 29.3173 58.6958 30.2737 60.333C31.1254 61.7908 32.997 62.2132 34.6855 61.2862C36.5945 60.2396 38.481 59.1631 40.3788 58.0977C42.467 56.9278 44.5553 55.754 46.6435 54.5878C46.9461 54.4159 47.2599 54.2439 47.5625 54.599C47.7045 54.7672 47.8502 54.9354 47.7381 55.1784C47.5812 55.5148 47.2525 55.6494 46.9573 55.8176C44.5478 57.1745 42.1308 58.5239 39.7213 59.8845C38.2345 60.7255 37.4761 62.2057 37.7974 63.5851C38.3727 66.0484 40.7785 67.0464 43.0423 65.7419C50.637 61.3647 58.2317 56.9801 65.8227 52.5955C67.1302 51.8404 68.3219 50.9171 69.1101 49.6201C70.5334 47.2838 71.8596 44.8878 73.2605 42.5404C73.5257 42.0956 73.4921 41.7666 73.253 41.3517C72.3079 39.707 71.3926 38.0474 70.4624 36.3914C67.5859 31.2667 64.7057 26.1457 61.8441 21.0135C61.5602 20.5014 61.2688 20.2547 60.6263 20.2734C58.9303 20.3257 57.3052 20.6397 55.7138 21.2191C55.075 21.4546 54.7239 21.5406 55.4486 22.2171C56.9205 23.5927 57.1558 25.6037 56.2107 27.3419C55.2917 29.0352 53.3641 29.9622 51.4775 29.4725C48.2499 28.6352 45.0334 27.7306 41.8319 26.7999C41.2081 26.6167 40.9727 26.7737 40.6851 27.2933C37.6143 32.803 31.1105 35.2813 25.1445 33.2553C24.7149 33.1095 24.3488 32.9488 24.4833 32.4367C24.6178 31.9246 24.9988 31.9582 25.4509 32.0666C26.7434 32.3806 28.0285 32.7768 29.4032 32.6909L29.4107 32.7021ZM18.3306 18.8119C18.4315 18.2773 18.0467 18.2998 17.7628 18.2138C15.3346 17.4849 12.8989 16.7934 10.4893 16.0121C9.76462 15.7766 9.57036 15.9411 9.48071 16.6401C9.40226 17.2494 9.18185 17.84 9.03616 18.4418C7.13468 26.1719 5.24815 33.9057 3.32052 41.6283C3.15615 42.2862 3.27943 42.4694 3.92944 42.6114C6.2269 43.1085 8.51689 43.6393 10.7882 44.2374C11.5989 44.4505 11.8193 44.2187 12.0135 43.4636C13.7693 36.541 15.5736 29.6295 17.3556 22.7105C17.6955 21.3948 18.0131 20.0753 18.3269 18.8156L18.3306 18.8119ZM82.7641 37.3334C82.6931 37.1839 82.6184 36.9783 82.5138 36.7914C78.5017 29.6332 74.4783 22.4788 70.4811 15.3094C70.1411 14.6964 69.8199 14.6141 69.2334 14.9543C67.1862 16.1355 65.1353 17.3092 63.0508 18.4194C62.2812 18.8305 62.2214 19.223 62.6361 19.9482C64.3508 22.9423 66.0169 25.9663 67.7055 28.9791C69.9693 33.0198 72.2369 37.0643 74.5045 41.105C74.7622 41.5648 74.9639 42.103 75.6887 41.6881C77.9039 40.4247 80.1304 39.1874 82.3569 37.9464C82.5848 37.8193 82.7865 37.6923 82.7641 37.3371V37.3334Z" fill="black" stroke="black" stroke-width="2" stroke-miterlimit="10"/>
<path id="Vector_2" d="M70.1681 67.2028C66.0591 69.742 65.2002 73.4582 63.552 77.0001C62.7511 73.6217 62.3448 70.2542 58.2822 68.6958C60.6037 66.5271 62.5885 64.5872 63.7841 60.98C65.3163 64.075 66.6163 66.4072 70.1681 67.2137V67.2028Z" fill="black"/>
<path id="Vector_3" d="M33.4769 4.21544C30.7971 5.93558 30.2369 8.45302 29.162 10.8523C28.6396 8.56376 28.3747 6.28255 25.7252 5.22685C27.2392 3.75772 28.5336 2.44362 29.3133 0C30.3126 2.09664 31.1604 3.67651 33.4769 4.22282V4.21544Z" fill="black"/>
</g>
</svg>
