<svg width="78" height="77" viewBox="0 0 78 77" fill="none" xmlns="http://www.w3.org/2000/svg">
<g id="Group 43">
<g id="Group">
<path id="Vector" d="M39.2167 51.2604C39.9604 49.2106 40.6265 47.3754 41.2927 45.5402C41.6668 44.5084 42.0227 43.463 42.4287 42.445C42.7983 41.5182 43.4188 41.1348 44.4864 41.3995C51.4122 43.1024 56.5222 47.1289 59.9303 53.3604C60.1083 53.6891 60.2816 54.0178 60.4915 54.4104C61.7325 53.333 62.645 52.0821 63.5894 50.8632C63.7765 50.6213 63.9362 50.361 64.1415 50.1373C64.7665 49.4434 65.5102 49.2882 66.2585 49.8817C66.993 50.466 67.0478 51.2284 66.5322 52.0045C64.8304 54.5519 62.7819 56.7934 60.4459 58.761C55.9154 62.5821 50.7005 65.0336 44.8742 65.9969C35.3569 67.5673 26.6426 65.4582 18.9868 59.5645C12.2115 54.351 8.119 47.4211 6.54951 38.9982C5.93814 35.7204 5.87426 32.4335 6.23926 29.1283C6.25295 28.9867 6.33963 28.8361 6.06132 28.6763C5.15796 29.4615 4.23178 30.2787 3.28735 31.0822C2.31554 31.9085 1.4578 31.9267 0.791678 31.1552C0.189432 30.4522 0.353682 29.5985 1.26617 28.795C3.34666 26.9598 5.4317 25.1246 7.52588 23.3031C8.5433 22.4174 9.28699 22.4631 10.1675 23.4629C12.0062 25.54 13.8403 27.6263 15.6562 29.7217C16.4774 30.6667 16.4866 31.5935 15.7246 32.2235C15.0129 32.8124 14.1779 32.6344 13.3658 31.7213C12.1841 30.3928 11.0025 29.0644 9.73867 27.64C9.25961 28.6991 9.22767 29.7583 9.16836 30.7672C8.65737 39.4776 11.1941 47.1471 17.0614 53.6708C17.7321 54.4195 17.9739 54.2917 18.4165 53.4608C21.7699 47.1974 26.8844 43.1526 33.792 41.4178C35.0102 41.1119 35.6033 41.4132 36.0504 42.6321C37.0131 45.2663 37.9529 47.9095 38.9019 50.5436C38.9612 50.708 39.0434 50.8632 39.2213 51.2558L39.2167 51.2604ZM39.5726 63.3582C40.7041 63.2851 42.2827 63.1619 43.8613 62.9199C48.8207 62.1621 53.2737 60.2538 57.2978 57.2728C57.9685 56.7752 58.0004 56.3551 57.6719 55.6795C55.158 50.5208 51.2434 46.9326 45.8414 44.9695C45.1069 44.7002 44.783 44.8417 44.5229 45.5904C43.4598 48.6719 42.3466 51.7306 41.2425 54.7984C41.0235 55.4056 40.7999 56.0082 40.5307 56.5925C40.2707 57.1586 39.8099 57.4417 39.1666 57.428C38.5233 57.4143 38.0807 57.1084 37.8298 56.5423C37.5971 56.0265 37.3918 55.4923 37.2001 54.9582C36.055 51.7899 34.8961 48.6263 33.792 45.4443C33.5593 44.7687 33.2627 44.6865 32.6514 44.9102C27.1445 46.928 23.1021 50.5345 20.643 55.8941C20.4103 56.4054 20.3281 56.7158 20.8711 57.1267C26.2822 61.1897 32.3776 63.1984 39.5681 63.3536L39.5726 63.3582Z" fill="black"/>
<path id="Vector_2" d="M72.1714 29.6943C73.1158 28.3796 73.8504 27.3296 74.6123 26.3024C75.3013 25.3665 76.1955 25.1383 76.9392 25.6769C77.7103 26.2339 77.7787 27.0876 77.0852 28.0828C75.4564 30.4202 73.8185 32.7484 72.1714 35.0767C71.5053 36.0171 70.716 36.1815 69.8309 35.5515C67.4766 33.8806 65.1361 32.1915 62.791 30.5115C62.1659 30.0641 61.7051 29.5117 61.915 28.6946C62.1751 27.6719 63.3248 27.2337 64.2738 27.8454C65.6106 28.7082 66.8927 29.6669 68.1975 30.58C68.4393 30.7489 68.6948 30.8995 69.0644 31.1369C69.2743 29.5026 68.8773 28.0417 68.5579 26.6037C65.8935 14.62 56.1435 5.3207 44.0803 3.54484C32.0674 1.77811 22.3219 5.88223 14.8806 15.4737C14.7163 15.6837 14.5703 15.9074 14.4015 16.1128C13.6852 17.0122 12.9233 17.1811 12.1431 16.6241C11.4177 16.1083 11.3218 15.1815 11.9195 14.305C13.1651 12.4789 14.5886 10.7944 16.19 9.2696C21.4368 4.27526 27.6509 1.31701 34.8368 0.312667C51.3438 -1.99276 67.1527 8.67155 71.3684 25.0196C71.7334 26.4393 71.9935 27.8819 72.176 29.6898L72.1714 29.6943Z" fill="black"/>
<path id="Vector_3" d="M47.4657 26.5443C47.4337 31.1095 43.6286 34.853 39.0799 34.7936C34.636 34.7343 30.8446 30.8949 30.8309 26.4393C30.8173 21.8467 34.6497 18.085 39.2897 18.1398C43.9343 18.1945 47.4976 21.8558 47.4657 26.5443ZM33.979 26.3982C33.979 29.3975 36.2466 31.671 39.2167 31.6573C42.1002 31.6436 44.4225 29.3519 44.4727 26.4667C44.5229 23.6591 42.0227 21.1528 39.1666 21.1482C36.3241 21.1482 33.9745 23.5221 33.9745 26.3982H33.979Z" fill="black"/>
</g>
<path id="Vector_4" d="M77.4357 65.0344C72.4173 68.1356 71.3683 72.6743 69.3553 77C68.3771 72.8739 67.8809 68.7612 62.9193 66.8579C65.7545 64.2092 68.1786 61.84 69.6388 57.4344C71.51 61.2145 73.0978 64.0628 77.4357 65.0477V65.0344Z" fill="black"/>
</g>
</svg>
