<svg width="58" height="89" viewBox="0 0 58 89" fill="none" xmlns="http://www.w3.org/2000/svg">
<g id="Group 51">
<path id="Vector" d="M24.8225 19.7711C20.8523 22.4316 20.0223 26.3252 18.4298 30.0362C17.6559 26.4965 17.2634 22.9682 13.338 21.3354C15.5811 19.0632 17.4989 17.0307 18.6541 13.2513C20.1345 16.4941 21.3906 18.9376 24.8225 19.7825V19.7711Z" fill="black"/>
<path id="Vector_2" d="M34.5401 6.51987C30.5698 9.18033 29.7399 13.074 28.1474 16.7849C27.3735 13.2452 26.981 9.71699 23.0556 8.08417C25.2987 5.81192 27.2165 3.77946 28.3717 0C29.8521 3.2428 31.1082 5.68632 34.5401 6.53128V6.51987Z" fill="black"/>
<path id="Vector_3" d="M23.0694 88.4149C18.1399 88.7771 13.5462 87.9909 8.9524 86.8601C4.52648 85.7647 2.14124 82.8052 1.39033 78.6355C-0.606187 67.5398 -0.0584629 56.338 1.355 45.2777C2.09707 39.4736 7.7421 38.016 12.5567 36.7262C20.0569 34.7297 27.6278 34.871 35.0839 37.2386C41.2236 39.1821 43.2996 41.5673 43.6265 47.9103C43.7855 50.9139 44.5011 51.5941 47.5842 50.852C54.1568 49.2707 57.6463 52.1595 57.9467 58.9618C58.1322 63.0962 57.9467 67.2041 55.5261 70.8349C53.7505 73.5028 51.4006 76.0913 48.2556 75.9499C44.0152 75.7644 42.6106 77.4605 41.5328 81.2239C39.872 87.0545 34.4301 87.6287 29.4742 88.3619C27.3186 88.6799 25.0748 88.4149 23.0606 88.4149H23.0694ZM42.3544 49.8184C29.907 56.2674 17.4862 56.0465 4.99468 51.6294C2.54761 50.7637 2.23841 51.4616 2.17658 53.5288C1.92922 61.9036 2.01757 70.2695 2.99816 78.5913C3.43987 82.3458 6.01061 84.6162 9.52661 85.5615C17.3007 87.6463 25.2161 87.7082 33.0962 86.3831C37.6546 85.6145 40.3579 82.5579 40.9409 78.0083C42.1335 68.8384 43.2996 59.6509 42.3455 49.8184H42.3544ZM41.8332 45.1275C41.683 42.6098 40.0575 40.9048 38.0522 40.1008C27.5395 35.9135 17.0003 35.5159 6.62017 40.6662C4.69433 41.6203 3.31619 43.1221 2.97166 45.3307C2.80381 46.3643 2.86565 47.4774 3.7844 48.1488C4.74732 48.8467 5.34805 47.7866 6.04595 47.389C16.912 41.1698 27.8575 40.2775 38.8649 46.9915C41.3119 48.4845 41.5505 46.8943 41.8332 45.1275ZM56.8336 60.5873C56.9042 57.6985 56.4714 54.9688 54.0685 53.0694C53.0614 52.2743 51.6303 51.5234 50.4907 52.6454C48.7945 54.3062 50.7999 54.7302 51.7098 55.4281C52.6197 56.126 52.7257 57.1773 52.9819 58.1491C54.6162 64.4125 51.9041 69.607 45.8704 72.0629C45.04 72.3986 43.4322 72.3014 43.6265 73.6707C43.8209 75.0577 45.2608 75.0488 46.4269 75.1283C47.9641 75.2255 49.298 74.6866 50.5437 73.865C55.3406 70.7112 56.4626 65.8259 56.8248 60.5873H56.8336ZM51.7981 61.0997C50.8352 59.854 52.9642 56.3204 49.1302 56.6296C46.2679 56.8593 43.653 57.9459 43.7149 61.6651C43.7502 63.7146 43.706 65.7729 43.5735 67.8136C43.335 71.4621 45.2255 71.4356 47.6107 70.0752C50.9147 68.1935 51.7363 64.969 51.8069 61.0997H51.7981Z" fill="black"/>
</g>
</svg>
