<svg width="177" height="220" viewBox="0 0 177 220" fill="none" xmlns="http://www.w3.org/2000/svg">
<g id="Layer_1" clip-path="url(#clip0_172_319)">
<g id="Group">
<path id="Vector" d="M112.82 97.2165C113.812 104.968 110.023 113.103 106.448 121.305C102.648 130.038 98.2043 138.376 92.5768 146.128C89.0921 150.934 86.8027 156.451 84.8743 162.082C84.5924 162.905 84.3668 163.706 84.4457 164.553C85.1562 172.259 82.9571 179.649 81.9647 187.163C81.6489 189.578 81.2655 191.981 80.8595 194.384C79.9911 199.45 77.4875 203.501 73.2923 206.491C70.191 208.702 67.6536 211.478 65.2176 214.378C59.3646 221.317 52.8575 221.249 47.4105 213.983C44.6588 210.316 41.4786 207.157 37.678 204.652C34.6444 202.655 33.1332 199.981 33.4828 196.325C33.8212 192.839 32.9077 189.42 32.7949 186.012C32.6483 181.285 31.4754 176.738 31.2837 172.067C31.0131 165.67 29.1636 160.006 25.8367 154.398C18.3033 141.716 10.6685 129.034 5.05231 115.314C1.84951 107.506 -0.360879 99.5634 0.0451101 90.9884C0.597706 79.4235 4.51099 69.3253 11.7962 60.3216C23.7391 45.5637 40.1704 40.1028 57.9324 40.3736C77.7808 40.6782 94.415 49.6142 104.903 67.0011C110.046 75.5196 113.136 85.2793 112.809 97.2165H112.82ZM75.1531 101.696C76.7771 102.677 76.5515 103.986 76.5064 105.171C76.1568 115.619 73.484 125.717 71.6909 135.939C70.4729 142.844 69.052 149.716 68.5671 156.734C68.4994 157.76 68.3302 158.821 69.6835 159.272C72.5367 160.231 75.2772 161.472 77.9048 162.95C78.5927 163.334 79.1002 163.447 79.3258 162.443C80.8144 155.966 84.6149 150.652 88.1109 145.214C94.5391 135.217 99.6252 124.498 104.937 113.915C110.497 102.835 110.891 91.4171 106.482 79.8522C104.305 74.1657 100.392 69.5059 97.2118 64.4173C88.4831 50.4379 75.3899 44.4467 59.3195 44.7513C49.8916 44.9318 40.7342 46.9627 32.0506 50.8553C22.07 55.3459 14.3562 61.8674 10.4768 72.5748C7.1612 81.7252 5.67257 91.0335 5.97706 100.692C6.1575 106.412 7.90551 111.67 10.2851 116.815C12.9353 122.558 16.1155 127.996 19.3634 133.401C24.2691 141.569 28.2614 150.189 32.0619 158.9C33.1896 161.472 35.0166 161.89 37.3284 160.728C39.2005 159.78 41.2305 159.374 43.2266 159.024C44.8505 158.742 45.437 158.155 45.4257 156.485C45.4144 152.706 44.9182 148.971 44.5122 145.236C43.7115 137.778 43.1025 130.275 41.8845 122.874C41.0613 117.875 41.9522 112.223 37.5202 108.24C37.0916 107.856 36.618 106.615 37.4187 106.683C40.7906 106.987 38.6366 104.731 38.9298 103.67C39.0877 103.117 38.3885 102.215 39.2682 101.967C40.3959 101.639 40.2719 102.892 40.5425 103.445C41.0613 104.539 41.5124 105.724 41.659 106.908C42.1439 110.767 45.3242 111.207 48.121 112.742C48.2338 109.47 47.2977 106.277 50.602 104.765C52.2937 103.998 54.1544 104.686 55.0115 106.333C56.7821 109.752 54.4364 112.121 52.3613 114.547C54.4477 115.664 56.534 116.307 58.6767 115.461C60.6615 114.671 59.0263 112.787 59.5451 111.478C60.1089 110.023 60.6728 108.623 62.4096 108.33C63.9433 108.071 65.1951 108.781 66.1198 109.898C67.1912 111.207 67.1574 112.708 66.2326 114.096C65.68 114.931 64.9583 115.641 64.1801 116.555C65.7702 117.593 67.5183 117.785 69.1986 118.293C71.5894 119.015 71.7586 118 72.0856 116.048C72.8976 111.275 73.2472 106.378 75.1531 101.662V101.696ZM43.4521 112.809C42.6627 113.915 43.5649 114.716 43.6664 115.608C45.2903 129.102 47.6361 142.506 48.6285 156.068C48.7413 157.546 49.2149 158.008 50.6697 157.907C53.2974 157.726 55.9476 157.693 58.5865 157.647C60.4586 157.614 62.5674 158.482 64.1576 157.58C66.0296 156.519 65.0823 154.127 65.353 152.345C66.819 142.63 68.646 132.983 70.7662 123.381C70.9579 122.49 71.2285 121.351 69.8189 121.17C66.9544 120.809 64.3944 119.748 62.1051 118C61.4171 117.469 60.7292 117.808 59.9736 117.921C57.1768 118.338 54.1432 118.902 51.82 116.984C49.2713 114.863 46.0798 114.457 43.4296 112.809H43.4521ZM78.5025 176.354C77.871 176.67 77.5439 176.806 77.2507 176.986C67.1235 183.226 56.1731 186.069 44.2641 184.952C42.2116 184.76 40.1591 184.557 38.0953 184.478C37.1931 184.444 35.5015 183.496 35.8173 185.64C36.0315 187.096 35.603 189.194 38.3434 189.025C40.5876 188.878 42.8657 188.923 45.1099 189.127C57.1655 190.198 67.8566 186.847 77.4086 179.514C78.3785 178.769 78.5025 177.889 78.4912 176.354H78.5025ZM77.4875 186.419C77.2394 186.385 77.1154 186.328 77.0477 186.362C76.732 186.565 76.4387 186.78 76.1342 186.994C67.4506 193.188 57.8986 196.111 47.1962 194.689C44.4107 194.317 41.6364 193.854 38.8509 193.549C38.1855 193.482 36.9788 192.951 36.9112 194.396C36.8661 195.468 36.5841 196.63 38.1517 197.126C42.3808 198.457 46.6098 199.608 51.1208 199.123C59.3308 198.254 66.9995 195.614 74.4765 192.252C77.2282 191.011 77.668 188.969 77.4763 186.407L77.4875 186.419ZM39.2118 201.921C39.2231 202.79 39.5839 202.925 39.9335 203.095C46.091 206.096 52.6771 206.92 59.3759 206.468C64.7666 206.096 69.9542 204.719 74.1156 200.906C75.1982 199.924 76.5966 199.01 75.638 196.9C64.1012 202.632 51.9666 204.64 39.2231 201.921H39.2118ZM59.8947 177.708C52.3388 177.076 44.7265 177.37 37.2382 175.926C36.5954 175.802 35.5692 174.685 35.2421 176.219C35.0278 177.212 34.9715 178.363 35.8849 179.107C36.2796 179.435 36.9337 179.536 37.4751 179.57C45.031 180.123 52.5982 180.901 59.8947 177.708ZM43.813 162.601C42.0763 162.759 40.2493 163.041 38.6028 164.034C38.0502 164.361 37.2044 164.609 37.757 165.421C38.1404 165.974 38.7607 166.583 39.6629 166.189C41.1966 165.523 42.7529 164.868 44.2867 164.191C44.7603 163.977 45.4595 163.932 45.3016 163.12C45.1325 162.228 44.4558 162.646 43.813 162.601ZM52.1471 208.905C49.1811 208.386 46.6211 207.529 43.3845 206.231C47.2639 210.575 48.2225 210.835 52.1471 208.905ZM52.0343 107.055C50.4329 107.789 50.4103 109.21 50.4667 110.643C50.4893 111.252 50.4216 112.245 51.4366 111.805C52.9026 111.173 53.1507 109.684 53.2635 108.274C53.3199 107.529 52.8124 107.089 52.0343 107.055Z" fill="black"/>
<path id="Vector_2" d="M16.1268 93.3804C14.9201 102.125 17.8071 110.248 21.9798 118.09C22.8594 119.748 23.6601 121.463 24.4383 123.167C24.6864 123.697 25.4307 124.34 24.5849 124.871C23.9421 125.277 23.3444 124.792 22.8143 124.352C19.5213 121.61 17.4914 118 16.0591 114.084C13.5894 107.303 12.191 100.364 13.657 93.0983C13.86 92.1054 13.9728 91.0787 15.1682 91.1351C16.1945 91.1915 16.499 92.0377 16.1268 93.3691V93.3804Z" fill="black"/>
<path id="Vector_3" d="M80.5776 65.3538C82.5399 65.5456 84.2991 66.4595 85.7539 67.8247C91.2912 73.0035 95.0353 79.2881 97.1216 86.5881C97.4149 87.6035 97.6517 88.4836 96.4901 88.9462C95.3849 89.3749 95.0466 88.3144 94.618 87.6825C91.8438 83.632 90.3552 78.9158 87.8177 74.7298C85.7991 71.4014 83.7014 68.1971 79.8333 66.7303C79.3258 66.5385 78.5927 66.4031 78.9875 65.6358C79.2919 65.0379 79.946 65.2184 80.5776 65.3651V65.3538Z" fill="black"/>
</g>
<path id="Vector_4" d="M96.7946 17.413C91.7084 19.568 89.8138 23.7539 87.5132 29.5646C86.0359 23.5621 84.2991 19.7598 78.9987 18.1351C83.4195 15.1677 85.9344 11.3541 88.8891 7.06662C90.4454 11.5459 92.5204 14.9195 96.7946 17.413ZM91.0205 16.9053C90.4679 15.6416 89.9379 13.4753 88.2575 13.4866C86.4531 13.4978 85.0998 15.5288 84.863 17.3002C84.6713 18.8233 86.2953 20.3014 87.5809 20.4819C89.4642 20.7527 90.3664 18.97 91.0205 16.9053Z" fill="black"/>
<path id="Vector_5" d="M133.976 89.0478C129.984 91.6767 129.15 95.5241 127.548 99.191C126.77 95.6934 126.375 92.2069 122.428 90.5935C124.684 88.3482 126.612 86.3399 127.774 82.6052C129.262 85.8096 130.526 88.2241 133.976 89.059V89.0478Z" fill="black"/>
<g id="Group_2">
<path id="Vector_6" d="M177 1.38006C172.32 7.99181 167.685 14.6374 162.948 21.204C155.922 30.9637 150.239 41.4116 146.314 52.8298C145.84 54.2063 145.581 56.3726 143.596 56.4403C141.296 56.5193 141.059 54.2289 140.484 52.6719C136.863 42.7204 132.961 32.9043 128.879 23.0657C134.912 30.6139 138.059 39.753 142.728 48.9598C151.66 30.8847 163.163 15.2241 175.962 0.5C176.312 0.793354 176.65 1.08671 177 1.38006Z" fill="black"/>
<path id="Vector_7" d="M118.256 63.9321C122.564 63.6614 126.872 63.2439 131.191 63.1423C141.521 62.9054 151.863 62.3187 162.17 63.3116C165.418 63.6275 165.057 61.5627 165.068 59.7124C165.136 47.8992 165.17 36.0748 165.125 24.2617C165.125 21.9713 165.181 19.8952 167.752 18.3946C167.91 33.0284 169.286 47.4141 166.884 61.7884C166.264 65.5005 164.392 64.6655 161.866 64.6994C149.765 64.8461 137.664 65.3425 125.563 65.6471C123.127 65.7036 120.601 66.3241 118.244 63.9209L118.256 63.9321Z" fill="black"/>
<path id="Vector_8" d="M115.921 66.2226C114.512 64.4173 114.681 62.6121 114.861 60.8971C116.35 46.4776 115.684 32.0243 115.346 17.5822C115.267 14.3441 114.805 12.3244 119.868 12.7419C127.12 13.3512 134.54 12.1213 141.882 11.5121C148.479 10.9592 155.054 11.2187 161.64 11.828C149.156 11.7377 136.841 14.0394 124.379 14.0281C117.421 14.0281 117.286 14.0846 117.545 21.0348C118.041 34.1567 118.041 47.2674 117.218 60.3781C117.094 62.2961 117.105 64.2029 115.921 66.2226Z" fill="black"/>
</g>
<path id="Vector_9" d="M113.519 164.993C111.151 162.95 111.782 159.972 111.568 157.467C110.869 149.377 112.143 141.287 112.211 133.186C112.233 130.885 113.429 129.564 116.09 129.734C125.011 130.309 133.965 130.298 142.852 131.437C144.611 131.663 146.788 132.769 148.412 130.557C148.908 129.88 149.878 130.411 150.239 131.133C150.509 131.674 150.554 132.374 150.532 132.994C150.137 143.668 151.479 154.296 151.299 164.97C151.265 166.719 151.141 167.418 148.942 167.497C137.54 167.949 126.127 167.046 114.748 167.971C113.891 168.039 113.057 167.847 112.335 167.283C112.335 166.301 114.106 166.234 113.53 164.97C114.331 165.76 115.256 166.076 116.417 166.076C126.432 166.053 136.457 165.974 146.472 166.155C148.93 166.2 149.314 165.444 149.133 163.266C148.479 155.289 147.758 147.324 147.893 139.302C148.017 132.396 147.938 132.374 140.878 132.295C133.3 132.216 125.71 132.442 118.154 132.024C114.85 131.844 114.32 132.735 114.41 135.736C114.669 144.593 114.636 153.461 114.624 162.319C114.624 163.221 115.504 164.767 113.542 164.981L113.519 164.993Z" fill="black"/>
<path id="Vector_10" d="M121.955 138.128C125.778 138.839 126.883 141.344 128.033 143.397C129.804 146.534 131.078 146.049 133.164 143.724C135.927 140.655 138.758 137.587 142.841 135.838C140.055 139.031 137.506 142.472 134.416 145.338C131.777 147.786 132.071 149.614 133.999 152.254C136.232 155.312 137.957 158.731 139.92 162.025C137.698 163.323 136.942 161.788 136.164 160.66C134.506 158.279 132.849 155.876 131.416 153.36C130.12 151.081 129.195 151.318 127.864 153.304C126.251 155.718 124.447 158.008 122.699 160.321C121.966 161.292 120.917 162.454 119.767 161.596C118.357 160.536 119.88 159.543 120.5 158.708C122.394 156.169 124.199 153.518 126.409 151.273C128.315 149.332 128.101 147.798 126.725 145.8C125.169 143.544 123.827 141.141 121.955 138.106V138.128Z" fill="black"/>
</g>
<defs>
<clipPath id="clip0_172_319">
<rect width="177" height="219" fill="white" transform="translate(0 0.5)"/>
</clipPath>
</defs>
</svg>
