<svg width="136" height="200" viewBox="0 0 136 200" fill="none" xmlns="http://www.w3.org/2000/svg">
<g id="Layer_1" clip-path="url(#clip0_172_340)">
<g id="Group">
<path id="Vector" d="M60.7068 25.1536C54.174 27.9147 51.7405 33.2779 48.7856 40.7228C46.8881 33.0322 44.6574 28.1605 37.8494 26.0788C43.5275 22.2768 46.7577 17.3907 50.5528 11.8974C52.5517 17.6364 55.217 21.9588 60.7068 25.1536ZM53.2904 24.5031C52.5807 22.884 51.8999 20.1084 49.7416 20.1229C47.424 20.1373 45.6858 22.7394 45.3816 25.009C45.1354 26.9606 47.2212 28.8544 48.8725 29.0857C51.2915 29.4326 52.4503 27.1485 53.2904 24.5031Z" fill="black"/>
<path id="Vector_2" d="M108.464 116.935C103.336 120.304 102.264 125.233 100.207 129.931C99.208 125.45 98.701 120.983 93.6313 118.916C96.5283 116.039 99.0052 113.466 100.497 108.681C102.409 112.786 104.032 115.88 108.464 116.95V116.935Z" fill="black"/>
<g id="Group_2">
<path id="Vector_3" d="M105.002 41.489C104.162 41.5902 103.452 41.7926 102.742 41.7492C101.699 41.6769 101.815 40.6939 101.743 40.0434C101.381 36.9931 100.99 33.9429 100.83 30.8782C100.743 29.3314 100.236 28.9266 98.7155 29.0134C96.1806 29.1435 93.6168 28.9266 91.0819 28.9989C89.0975 29.0567 88.4167 28.0015 88.4456 26.2812C88.4891 23.8526 90.2273 25.1247 91.1978 25.2114C100.352 26.0499 100.352 26.0643 100.555 17.1016C100.599 15.309 100.685 13.502 100.787 11.7094C100.874 10.365 101.772 9.98917 102.974 9.93134C104.423 9.85906 104.452 10.8854 104.481 11.8251C104.611 15.4247 104.814 19.0242 104.712 22.6238C104.654 24.6187 105.335 25.1102 107.233 25.1102C110.405 25.1102 113.592 25.4427 116.764 25.6162C118.111 25.6885 119.125 26.3101 119.053 27.6834C118.98 29.0567 117.618 28.6953 116.778 28.7387C113.606 28.8977 110.405 29.0423 107.233 28.9556C105.35 28.8977 104.886 29.5049 105.017 31.3119C105.205 34.0586 105.103 36.8197 105.118 39.5663C105.118 40.1879 105.06 40.8096 105.017 41.489H105.002Z" fill="black"/>
<path id="Vector_4" d="M117.169 10.9288C114.432 9.15071 111.81 7.24251 109 5.65234C95.6447 -1.93711 78.842 7.69064 77.5384 22.9852C76.0899 39.9711 87.7359 47.6762 102.8 49.1796C109.13 49.8012 114.997 48.9339 120.414 44.7416C131.828 35.9089 129.656 20.4698 122.703 11.189C120.037 7.63282 116.706 4.71269 113.461 1.83593C113.939 0.968563 114.591 0.881827 115.069 1.1854C124.803 7.3437 130.105 15.8872 130.191 27.669C130.278 38.2797 124.137 44.9295 116.025 49.7723C103.148 57.463 80.4354 49.8157 76.1768 36.4004C70.5276 18.5183 84.1291 -2.00939 103.322 0.159022C108.551 0.751722 112.708 3.64294 116.431 7.17023C117.459 8.13878 118.01 9.30973 117.169 10.9288Z" fill="black"/>
</g>
<g id="Group_3">
<path id="Vector_5" d="M122.746 91.536C122.268 91.5938 121.848 91.7094 121.443 91.6805C120.849 91.6372 120.907 91.0734 120.863 90.6975C120.646 88.9339 120.429 87.1702 120.327 85.4066C120.284 84.5103 119.98 84.279 119.11 84.3224C117.647 84.3947 116.17 84.2646 114.707 84.3224C113.563 84.3513 113.172 83.7441 113.186 82.7611C113.215 81.3589 114.215 82.0961 114.779 82.1395C120.066 82.6166 120.066 82.631 120.182 77.4557C120.211 76.4149 120.255 75.3741 120.313 74.3477C120.356 73.567 120.878 73.3647 121.573 73.3213C122.413 73.2779 122.428 73.8706 122.442 74.42C122.514 76.5016 122.63 78.5833 122.572 80.6505C122.543 81.807 122.935 82.0817 124.021 82.0961C125.86 82.0961 127.686 82.2841 129.525 82.3853C130.307 82.4286 130.887 82.79 130.843 83.5851C130.8 84.3802 130.018 84.1634 129.525 84.1923C127.686 84.279 125.846 84.3657 124.006 84.3224C122.92 84.2935 122.645 84.6404 122.717 85.6812C122.819 87.2714 122.775 88.8616 122.775 90.4518C122.775 90.8132 122.732 91.1746 122.717 91.5649L122.746 91.536Z" fill="black"/>
<path id="Vector_6" d="M129.105 74.6079C127.657 73.6682 126.266 72.6563 124.789 71.8179C117.734 67.7991 108.855 72.8876 108.16 80.983C107.392 89.9603 113.548 94.0369 121.515 94.832C124.861 95.1644 127.961 94.7018 130.829 92.4901C136.869 87.8207 135.71 79.6675 132.046 74.7524C130.641 72.8732 128.873 71.3264 127.164 69.8085C127.41 69.3459 127.758 69.3025 128.004 69.4615C133.146 72.7141 135.942 77.2389 136 83.455C136.043 89.064 132.799 92.5768 128.511 95.1355C121.703 99.1977 109.695 95.1644 107.45 88.0665C104.452 78.6122 111.651 67.7557 121.79 68.8977C124.557 69.2158 126.759 70.7337 128.714 72.5985C129.25 73.1045 129.54 73.7261 129.105 74.5934V74.6079Z" fill="black"/>
</g>
</g>
<g id="V88pke">
<g id="Group_4">
<path id="Vector_7" d="M1.02898 125.394C1.02898 101.093 1.05795 83.0232 1.00001 64.9531C1.00001 63.1316 1.62286 61.8306 3.0424 60.8186C5.73661 58.9104 8.69156 57.566 12.0231 57.3636C27.3628 56.4818 42.6879 55.4554 58.0566 54.8772C63.0829 54.6893 68.0368 54.7471 73.0196 55.3542C77.7852 55.918 81.0588 59.402 81.9569 65.1844C82.9274 71.386 82.4639 77.6311 82.4494 83.8617C82.3769 108.943 81.9569 134.039 83.2171 159.106C83.3909 162.604 83.8254 166.088 84.0717 169.586C84.5642 176.713 82.5797 183.189 78.6833 189.102C77.1334 191.458 74.6854 192.355 71.9912 192.557C55.6376 193.742 39.284 195.087 22.8579 195C18.2951 194.971 13.8048 194.378 9.35787 193.236C6.63469 192.543 4.89648 190.938 4.14326 188.264C2.73821 183.262 1.70977 178.144 1.59389 172.969C1.2028 155.029 0.898613 137.103 1.02898 125.394ZM3.78113 121.144C3.69422 121.144 3.59283 121.144 3.50592 121.144C3.50592 122.055 3.47695 122.965 3.50592 123.876C4.05635 140.211 1.70977 156.59 4.14326 172.897C4.83854 177.58 5.40346 182.279 6.11323 186.948C6.47535 189.29 7.82246 190.736 10.2849 191.169C14.0076 191.834 17.7592 192.138 21.5253 192.239C31.8821 192.514 42.2099 192.21 52.5378 191.184C59.2733 190.504 66.0378 190.114 72.7878 189.637C74.7868 189.492 76.1629 188.524 77.1478 186.803C79.7696 182.264 81.0443 177.335 81.1602 172.145C81.363 163.558 80.0883 155.043 80.0159 146.457C79.9579 139.706 79.7407 132.94 79.7551 126.189C79.7551 115.015 78.7557 103.84 79.1902 92.6654C79.451 85.7843 80.2187 78.9321 80.0883 72.0366C80.0449 69.2321 79.7407 66.471 79.1758 63.7243C78.4805 60.3561 76.4091 58.4623 73.15 57.5949C68.6162 56.3806 63.9954 56.3517 59.3892 56.6264C46.3382 57.407 33.2292 57.3926 20.2217 58.8382C15.7168 59.3297 11.154 59.2429 6.92439 61.4258C3.43349 63.2184 2.15881 65.1555 2.72373 69.1598C3.46246 74.4363 3.8101 79.7417 3.8101 85.076C3.79562 97.1034 3.8101 109.116 3.8101 121.144H3.78113Z" fill="black"/>
<path id="Vector_8" d="M74.4971 135.455C74.4971 143.71 74.4681 151.964 74.5261 160.219C74.5261 162.156 74.8882 164.078 75.062 166.016C75.1489 167.042 75.2648 168.097 75.2068 169.124C75.033 172.55 73.5266 173.966 70.0936 173.75C56.3618 172.853 42.63 173.229 28.8982 173.186C23.3649 173.171 17.8316 173.388 12.2983 173.562C10.4298 173.619 9.66206 173.056 9.67654 171.032C9.74897 158.686 9.56066 146.326 9.73448 133.981C9.95176 118.657 10.0242 103.334 10.0676 88.0105C10.0676 83.8906 11.0526 82.9365 15.2098 82.6907C29.579 81.8378 43.9626 81.4619 58.3463 81.5342C62.0689 81.5487 65.7481 81.1005 69.4273 80.609C72.4547 80.2043 73.2514 80.9271 73.3528 84.0351C73.7728 97.5949 74.5695 111.155 74.6275 124.729C74.6419 128.3 74.6275 131.87 74.6275 135.441C74.5695 135.441 74.5261 135.441 74.4681 135.441L74.4971 135.455ZM72.3968 138.722C72.5706 130.468 72.5561 122.228 72.3388 113.974C72.1795 107.671 71.3538 101.411 71.4697 95.094C71.5277 91.7836 71.4697 88.4587 71.3249 85.1627C71.1945 82.604 70.6586 82.2715 68.1816 82.7341C64.9804 83.3123 61.7503 83.6159 58.5056 83.8472C49.0034 84.4977 39.5012 84.1941 29.9991 84.3098C25.1176 84.3676 20.2361 84.6423 15.3692 85.0615C12.7039 85.2928 12.3852 85.6831 12.4722 88.3286C12.5301 90.4681 12.7329 92.622 12.6315 94.7471C12.2259 103.493 11.3423 112.239 11.3423 120.985C11.3568 136.901 11.8783 152.817 12.2114 168.733C12.2549 171.133 12.7184 171.466 15.1953 171.379C20.1347 171.191 25.0886 170.988 30.028 170.844C37.8355 170.627 45.6574 170.569 53.4648 170.251C59.2009 170.02 64.9225 170.164 70.6006 170.96C71.9187 171.148 72.1071 171.017 72.0781 169.731C71.8463 159.395 72.2954 149.073 72.4112 138.737L72.3968 138.722Z" fill="black"/>
<path id="Vector_9" d="M38.5742 66.5722C42.9342 66.5722 47.2942 66.5722 51.6542 66.5722C52.6392 66.5722 53.7255 66.6734 54.1456 67.7431C54.5657 68.8129 54.4208 69.9693 53.6531 70.8656C52.8275 71.8486 51.5962 71.8776 50.4229 71.9065C47.0334 72.0077 43.6584 71.9643 40.2689 72.2245C35.2137 72.6148 30.1439 72.8461 25.0741 73.2075C23.3359 73.3376 21.9743 72.9473 21.2646 71.227C20.4969 69.4056 21.2211 67.96 23.1621 67.6275C27.16 66.9336 31.2158 67.3239 35.2426 66.948C36.3435 66.8468 37.4588 66.9336 38.5597 66.9336C38.5597 66.8035 38.5597 66.6734 38.5597 66.5577L38.5742 66.5722ZM40.211 67.9455C36.1697 68.1334 32.4036 68.2491 28.6519 68.5093C27.0441 68.6105 25.4507 68.9719 23.8574 69.2755C23.249 69.3911 22.7565 69.8103 22.829 70.4898C22.8869 71.0825 23.3939 71.3282 23.9443 71.3716C25.2335 71.4728 26.5371 71.6896 27.8263 71.6029C35.0833 71.1258 42.3258 70.403 49.6118 70.3741C50.2346 70.3741 50.8575 70.0705 51.4514 69.8248C52.1612 69.5501 52.1032 68.9141 51.9728 68.3358C51.828 67.6997 51.321 67.9166 50.872 67.9166C47.2362 67.931 43.6005 67.9166 40.2255 67.9166L40.211 67.9455Z" fill="black"/>
<path id="Vector_10" d="M48.6703 182.409C48.7282 185.965 45.7877 189.825 43.0356 189.796C39.5592 189.752 36.6622 186.572 36.6187 182.756C36.5753 178.665 38.6466 175.759 41.703 175.643C45.1794 175.513 48.6123 178.838 48.6703 182.409ZM38.5452 182.25C38.6756 183.811 39.0812 185.3 40.3124 186.384C42.4851 188.292 44.7883 187.57 45.6719 184.837C46.2802 182.958 45.8891 181.252 45.0925 179.604C44.1364 177.667 42.0941 177.248 40.3558 178.506C39.0957 179.416 38.719 180.775 38.5452 182.235V182.25Z" fill="black"/>
<path id="Vector_11" d="M60.3742 71.1258C58.6505 71.1258 57.5641 70.0705 57.5786 68.3792C57.593 66.8035 58.8822 65.7337 60.7653 65.7482C62.5759 65.7482 63.8506 66.789 63.8506 68.2491C63.8506 69.8537 62.3297 71.1258 60.3742 71.1403V71.1258ZM58.8967 68.4226C59.056 69.4056 59.592 70.1428 60.6639 70.0705C61.6054 70.0127 62.2283 69.3333 62.2427 68.3936C62.2717 67.4395 61.6489 66.7456 60.6928 66.7312C59.6789 66.7023 59.0126 67.3094 58.8822 68.4226H58.8967Z" fill="black"/>
</g>
</g>
<g id="Group_5">
<path id="Vector_12" d="M27.8113 124.293C28.2893 124.395 28.9121 124.395 29.4046 124.626C31.8671 125.826 36.0388 124.539 36.7775 127.777C37.6176 131.435 33.4315 132.982 31.447 135.439C30.9255 136.09 30.013 136.755 29.2308 136.09C28.3182 135.323 28.7238 134.297 29.3177 133.401C30.4331 131.695 33.7501 130.813 32.7796 128.659C32.0699 127.083 28.999 127.3 26.9132 126.939C26.0006 126.78 25.1895 126.259 25.3198 125.276C25.5226 123.773 26.8118 124.395 27.8113 124.293Z" fill="black"/>
<path id="Vector_13" d="M39.6745 138.301C38.1246 137.824 38.1681 136.885 38.6171 135.873C40.7319 131.059 42.8612 126.245 44.9905 121.431C45.3526 120.607 45.8451 119.884 46.8881 120.145C47.7137 120.347 48.0613 121.012 47.7282 121.778C45.454 126.997 43.1509 132.201 40.8043 137.376C40.616 137.81 39.9932 138.041 39.6745 138.301Z" fill="black"/>
<path id="Vector_14" d="M51.4653 130.611C52.5952 131.189 53.1456 131.377 53.5801 131.709C54.9852 132.808 58.6499 132.302 57.578 134.861C56.7089 136.943 54.0147 134.716 52.233 134.239C50.292 133.719 47.7427 133.242 48.1917 130.235C48.4235 128.674 54.0292 124.915 55.3183 125.305C56.7813 125.739 56.651 126.765 55.7819 127.546C54.6376 128.558 53.2904 129.339 51.4653 130.625V130.611Z" fill="black"/>
</g>
</g>
<defs>
<clipPath id="clip0_172_340">
<rect width="136" height="200" fill="white"/>
</clipPath>
</defs>
</svg>
